<?xml version="1.0" encoding="UTF-8" standalone="no"?>
<!-- Created with Inkscape (http://www.inkscape.org/) -->

<svg
   xmlns:dc="http://purl.org/dc/elements/1.1/"
   xmlns:cc="http://creativecommons.org/ns#"
   xmlns:rdf="http://www.w3.org/1999/02/22-rdf-syntax-ns#"
   xmlns:svg="http://www.w3.org/2000/svg"
   xmlns="http://www.w3.org/2000/svg"
   xmlns:sodipodi="http://sodipodi.sourceforge.net/DTD/sodipodi-0.dtd"
   xmlns:inkscape="http://www.inkscape.org/namespaces/inkscape"
   width="744.09448819"
   height="1052.3622047"
   id="svg2"
   version="1.1"
   inkscape:version="0.91 r13725"
   sodipodi:docname="bagnur.svg">
  <defs
     id="defs4" />
  <sodipodi:namedview
     id="base"
     pagecolor="#ffffff"
     bordercolor="#666666"
     borderopacity="1.0"
     inkscape:pageopacity="0.0"
     inkscape:pageshadow="2"
     inkscape:zoom="0.70710678"
     inkscape:cx="478.8973"
     inkscape:cy="617.10331"
     inkscape:document-units="px"
     inkscape:current-layer="layer1"
     showgrid="true"
     inkscape:window-width="1253"
     inkscape:window-height="737"
     inkscape:window-x="19"
     inkscape:window-y="0"
     inkscape:window-maximized="0">
    <inkscape:grid
       type="xygrid"
       id="grid2985" />
  </sodipodi:namedview>
  <metadata
     id="metadata7">
    <rdf:RDF>
      <cc:Work
         rdf:about="">
        <dc:format>image/svg+xml</dc:format>
        <dc:type
           rdf:resource="http://purl.org/dc/dcmitype/StillImage" />
        <dc:title />
      </cc:Work>
    </rdf:RDF>
  </metadata>
  <g
     inkscape:label="Layer 1"
     inkscape:groupmode="layer"
     id="layer1">
    <rect
       style="opacity:1;fill:#000000;fill-opacity:1;stroke:none"
       id="rect3044"
       width="420"
       height="120"
       x="20"
       y="234.70593" />
    <path
       style="fill:none;stroke:#000000;stroke-width:4;stroke-linecap:round;stroke-linejoin:round;stroke-miterlimit:4;stroke-opacity:1;stroke-dasharray:none"
       d="m 50,72.362183 c 0,0 -7.015863,38.062207 0,54.999997 1.803987,4.35521 5.64479,8.19601 10,10 6.159197,2.55122 13.840803,2.55122 20,0 4.35521,-1.80399 8.196013,-5.64479 10,-10 1.275611,-3.0796 1.275611,-6.9204 0,-10 -1.803987,-4.35521 -5.64479,-9.07101 -10,-10.875 -6.159197,-2.55122 -20,0 -20,0"
       id="path2987"
       inkscape:connector-curvature="0"
       sodipodi:nodetypes="cssssssc" />
    <path
       sodipodi:nodetypes="cssssssssc"
       style="fill:none;stroke:#000000;stroke-width:4;stroke-linecap:round;stroke-linejoin:round;stroke-miterlimit:4;stroke-opacity:1;stroke-dasharray:none"
       d="m 161.99971,157.19025 c 0,0 19.58784,4.04309 28,0 4.8093,-2.31147 8.23377,-7.46486 10,-12.5 3.03423,-8.64993 3.50793,-19.0311 0,-27.5 -1.80399,-4.35521 -5.64479,-8.19601 -10,-10 -6.1592,-2.55122 -13.8408,-2.55122 -20,0 -4.35521,1.80399 -8.19601,5.64479 -10,10 -1.27561,3.0796 -1.27561,6.9204 0,10 1.80399,4.35521 5.64479,9.16828 10,10.97227 6.1592,2.55122 20,0 20,0"
       id="path3759"
       inkscape:connector-curvature="0" />
    <path
       style="font-size:medium;font-style:normal;font-variant:normal;font-weight:normal;font-stretch:normal;text-indent:0;text-align:start;text-decoration:none;line-height:normal;letter-spacing:normal;word-spacing:normal;text-transform:none;direction:ltr;block-progression:tb;writing-mode:lr-tb;text-anchor:start;baseline-shift:baseline;color:#000000;fill:#000000;fill-opacity:1;stroke:none;stroke-width:4;marker:none;visibility:visible;display:inline;overflow:visible;enable-background:accumulate;font-family:Sans;-inkscape-font-specification:Sans"
       d="m 342.5,105.72028 c -3.37138,0.18053 -6.58675,0.6781 -9.25,1.78125 -4.89838,2.02898 -9.06477,6.19537 -11.09375,11.09375 -1.5685,3.78671 -1.42153,8.87084 -1.09375,13.21875 0.32778,4.34791 0.96875,7.90625 0.96875,7.90625 a 2.0012813,2.0012813 0 1 0 3.9375,-0.71875 c 0,0 -0.62748,-3.35646 -0.9375,-7.46875 -0.31002,-4.11229 -0.17022,-9.03376 0.8125,-11.40625 1.579,-3.81204 5.09421,-7.32725 8.90625,-8.90625 3.91229,-1.62052 11.33516,-1.78197 17.5625,-1.3125 6.22734,0.46947 11.3125,1.4375 11.3125,1.4375 a 2.0041461,2.0041461 0 1 0 0.75,-3.9375 c 0,0 -5.28704,-0.98151 -11.75,-1.46875 -3.23148,-0.24362 -6.75362,-0.39928 -10.125,-0.21875 z"
       id="path3765"
       inkscape:connector-curvature="0" />
    <path
       style="fill:#000000;fill-opacity:1;stroke:none"
       d="m 379,99.965968 c -4.27466,-1.636221 -9.78437,-1.417841 -16,3.999942 13.15715,-0.96784 11.66901,17.13468 33.92022,19.90732 -19.48417,2.31653 -23.4958,-17.325 -35.62811,-16.78078 -1.24256,0.0557 -2.3729,0.002 -3.14482,0.40772 l -0.89771,2.18256 c 1.33435,-0.53005 2.60309,-0.79293 3.75042,-0.71682 -2.99402,19.13256 35.84436,26.64078 48.32928,15.75829 C 393.80978,119.80282 388.40429,103.56559 379,99.965968 z"
       id="path3769"
       inkscape:connector-curvature="0"
       sodipodi:nodetypes="sccsccccs"
       inkscape:transform-center-x="-7.80518"
       inkscape:transform-center-y="-6.7537482" />
    <g
       id="g3824"
       transform="matrix(1.3636359,0,0,1.0000001,-25.454517,-1.3266472e-5)">
      <path
         transform="matrix(2,0,0,2,-50,-173.36218)"
         d="m 61,152.36218 a 1,1 0 0 1 -1,1 1,1 0 0 1 -1,-1 1,1 0 0 1 1,-1 1,1 0 0 1 1,1 z"
         sodipodi:ry="1"
         sodipodi:rx="1"
         sodipodi:cy="152.36218"
         sodipodi:cx="60"
         id="path3806"
         style="fill:#000000;fill-opacity:1;stroke:none"
         sodipodi:type="arc" />
      <path
         sodipodi:type="arc"
         style="fill:#000000;fill-opacity:1;stroke:none"
         id="path3808"
         sodipodi:cx="60"
         sodipodi:cy="152.36218"
         sodipodi:rx="1"
         sodipodi:ry="1"
         d="m 61,152.36218 a 1,1 0 0 1 -1,1 1,1 0 0 1 -1,-1 1,1 0 0 1 1,-1 1,1 0 0 1 1,1 z"
         transform="matrix(2,0,0,2,-50,-191.36218)" />
      <path
         sodipodi:type="arc"
         style="fill:#000000;fill-opacity:1;stroke:none"
         id="path3810"
         sodipodi:cx="60"
         sodipodi:cy="152.36218"
         sodipodi:rx="1"
         sodipodi:ry="1"
         d="m 61,152.36218 a 1,1 0 0 1 -1,1 1,1 0 0 1 -1,-1 1,1 0 0 1 1,-1 1,1 0 0 1 1,1 z"
         transform="matrix(0,2,-2,0,365.72437,2.3621852)" />
      <path
         transform="matrix(0,2,-2,0,383.72437,2.3621852)"
         d="m 61,152.36218 a 1,1 0 0 1 -1,1 1,1 0 0 1 -1,-1 1,1 0 0 1 1,-1 1,1 0 0 1 1,1 z"
         sodipodi:ry="1"
         sodipodi:rx="1"
         sodipodi:cy="152.36218"
         sodipodi:cx="60"
         id="path3812"
         style="fill:#000000;fill-opacity:1;stroke:none"
         sodipodi:type="arc" />
      <path
         transform="matrix(-1.4142136,1.4142136,-1.4142136,-1.4142136,363.96152,246.61808)"
         d="m 61,152.36218 a 1,1 0 0 1 -1,1 1,1 0 0 1 -1,-1 1,1 0 0 1 1,-1 1,1 0 0 1 1,1 z"
         sodipodi:ry="1"
         sodipodi:rx="1"
         sodipodi:cy="152.36218"
         sodipodi:cx="60"
         id="path3814"
         style="fill:#000000;fill-opacity:1;stroke:none"
         sodipodi:type="arc" />
      <path
         sodipodi:type="arc"
         style="fill:#000000;fill-opacity:1;stroke:none"
         id="path3816"
         sodipodi:cx="60"
         sodipodi:cy="152.36218"
         sodipodi:rx="1"
         sodipodi:ry="1"
         d="m 61,152.36218 a 1,1 0 0 1 -1,1 1,1 0 0 1 -1,-1 1,1 0 0 1 1,-1 1,1 0 0 1 1,1 z"
         transform="matrix(-1.4142136,1.4142136,-1.4142136,-1.4142136,376.68944,259.346)" />
      <path
         sodipodi:type="arc"
         style="fill:#000000;fill-opacity:1;stroke:none"
         id="path3818"
         sodipodi:cx="60"
         sodipodi:cy="152.36218"
         sodipodi:rx="1"
         sodipodi:ry="1"
         d="m 61,152.36218 a 1,1 0 0 1 -1,1 1,1 0 0 1 -1,-1 1,1 0 0 1 1,-1 1,1 0 0 1 1,1 z"
         transform="matrix(-1.4142136,-1.4142136,1.4142136,-1.4142136,-54.255902,416.32371)" />
      <path
         transform="matrix(-1.4142136,-1.4142136,1.4142136,-1.4142136,-66.983822,429.05163)"
         d="m 61,152.36218 a 1,1 0 0 1 -1,1 1,1 0 0 1 -1,-1 1,1 0 0 1 1,-1 1,1 0 0 1 1,1 z"
         sodipodi:ry="1"
         sodipodi:rx="1"
         sodipodi:cy="152.36218"
         sodipodi:cx="60"
         id="path3820"
         style="fill:#000000;fill-opacity:1;stroke:none"
         sodipodi:type="arc" />
      <path
         inkscape:transform-center-y="-6.3639594"
         inkscape:transform-center-x="-5.3639528"
         transform="matrix(-1.4142136,-1.4142136,1.4142136,-1.4142136,-60.619855,422.68767)"
         d="m 61,152.36218 a 1,1 0 0 1 -1,1 1,1 0 0 1 -1,-1 1,1 0 0 1 1,-1 1,1 0 0 1 1,1 z"
         sodipodi:ry="1"
         sodipodi:rx="1"
         sodipodi:cy="152.36218"
         sodipodi:cx="60"
         id="path3822"
         style="fill:#000000;fill-opacity:1;stroke:none"
         sodipodi:type="arc" />
    </g>
    <path
       sodipodi:nodetypes="cssssssc"
       style="fill:none;stroke:#000000;stroke-width:4;stroke-linecap:round;stroke-linejoin:round;stroke-miterlimit:4;stroke-opacity:1;stroke-dasharray:none"
       d="m 145,138.2283 c 0,0 2.67878,-14.53284 0,-20.99999 -1.80399,-4.35521 -5.64479,-8.19601 -10,-10 -6.1592,-2.55121 -13.90324,-2.69701 -20,0 -4.53174,2.00471 -8.21312,6.37803 -10,11 -1.20199,3.10907 -1.27561,6.9204 0,10 1.80399,4.35521 5.64479,8.19601 10,10 6.1592,2.55122 20,0 20,0"
       id="path3838"
       inkscape:connector-curvature="0" />
    <path
       sodipodi:nodetypes="csscc"
       style="fill:none;stroke:#000000;stroke-width:4;stroke-linecap:round;stroke-linejoin:round;stroke-miterlimit:4;stroke-opacity:1;stroke-dasharray:none"
       d="m 255,139.36218 c 0,0 2.55122,-14.8408 0,-21 -1.80399,-4.35521 -5.62312,-8.24924 -10,-10 -10,-4 -23,-4 -30,0 l 0,31"
       id="path3840"
       inkscape:connector-curvature="0" />
    <path
       inkscape:connector-curvature="0"
       id="path3852"
       d="m 309,108.36218 c 0,0 2.55122,14.8408 0,21 -1.80399,4.35521 -5.62312,8.24924 -10,10 -10,4 -23,4 -30,0 l 0,-31"
       style="fill:none;stroke:#000000;stroke-width:4;stroke-linecap:round;stroke-linejoin:round;stroke-miterlimit:4;stroke-opacity:1;stroke-dasharray:none"
       sodipodi:nodetypes="csscc" />
    <path
       inkscape:connector-curvature="0"
       id="path3854"
       d="m 360,163.50987 c -10,-4 -23,-4 -30,0 l 0,31"
       style="fill:none;stroke:#000000;stroke-width:4;stroke-linecap:round;stroke-linejoin:round;stroke-miterlimit:4;stroke-opacity:1;stroke-dasharray:none"
       sodipodi:nodetypes="ccc" />
    <path
       inkscape:transform-center-y="-5.4570926"
       inkscape:transform-center-x="-8.28784"
       sodipodi:nodetypes="sccsccccs"
       inkscape:connector-curvature="0"
       id="path3856"
       d="m 376.09474,156.15447 c -3.99932,-2.22611 -9.48426,-2.79157 -16.40564,1.68963 13.16139,0.9085 9.12019,18.6168 30.75301,24.51808 -19.61574,-0.47103 -20.80035,-20.48301 -32.88717,-21.66544 -1.23789,-0.12115 -2.34919,-0.33465 -3.17085,-0.0425 l -1.19826,2.03312 c 1.39605,-0.33538 2.68925,-0.41563 3.81417,-0.17749 -5.67798,18.51427 31.70244,31.45638 45.60493,22.45513 -14.66435,-7.07326 -17.71167,-23.91312 -26.51019,-28.81049 z"
       style="fill:#000000;fill-opacity:1;stroke:none" />
    <path
       style="font-size:medium;font-style:normal;font-variant:normal;font-weight:normal;font-stretch:normal;text-indent:0;text-align:start;text-decoration:none;line-height:normal;letter-spacing:normal;word-spacing:normal;text-transform:none;direction:ltr;block-progression:tb;writing-mode:lr-tb;text-anchor:start;baseline-shift:baseline;color:#000000;fill:#cccccc;fill-opacity:1;stroke:none;stroke-width:4;marker:none;visibility:visible;display:inline;overflow:visible;enable-background:accumulate;font-family:Sans;-inkscape-font-specification:Sans"
       d="m 49.9375,243.6875 a 2.0002,2.0002 0 0 0 -1.90625,1.6875 c 0,0 -1.770386,9.59317 -2.65625,21.34375 -0.885864,11.75058 -1.019575,25.60525 2.78125,34.78125 2.028976,4.89838 6.19537,9.03352 11.09375,11.0625 6.702368,2.77621 14.797632,2.77621 21.5,0 4.89838,-2.02898 9.064774,-6.16412 11.09375,-11.0625 1.500599,-3.62277 1.500599,-7.90848 0,-11.53125 C 89.851018,285.15787 85.859623,280.11648 80.75,278 76.963295,276.4315 71.879158,276.57847 67.53125,276.90625 63.183342,277.23403 59.625,277.875 59.625,277.875 a 2.0041461,2.0041461 0 1 0 0.75,3.9375 c 0,0 3.356457,-0.62748 7.46875,-0.9375 4.112293,-0.31002 9.033758,-0.17022 11.40625,0.8125 3.600797,1.4915 7.291008,5.91296 8.90625,9.8125 1.050623,2.53643 1.050623,5.93232 0,8.46875 -1.578998,3.81204 -5.09421,7.32725 -8.90625,8.90625 -5.616026,2.32623 -12.883974,2.32623 -18.5,0 -3.81204,-1.579 -7.327252,-5.09421 -8.90625,-8.90625 -3.215038,-7.76179 -3.336851,-21.42253 -2.46875,-32.9375 0.868101,-11.51497 2.59375,-20.9375 2.59375,-20.9375 A 2.0002,2.0002 0 0 0 49.9375,243.6875 z"
       id="path3010"
       inkscape:connector-curvature="0" />
    <path
       style="font-size:medium;font-style:normal;font-variant:normal;font-weight:normal;font-stretch:normal;text-indent:0;text-align:start;text-decoration:none;line-height:normal;letter-spacing:normal;word-spacing:normal;text-transform:none;direction:ltr;block-progression:tb;writing-mode:lr-tb;text-anchor:start;baseline-shift:baseline;color:#000000;fill:#cccccc;fill-opacity:1;stroke:none;stroke-width:4;marker:none;visibility:visible;display:inline;overflow:visible;enable-background:accumulate;font-family:Sans;-inkscape-font-specification:Sans"
       d="m 180,276.625 c -3.70709,0 -7.43006,0.70565 -10.78125,2.09375 -4.89838,2.02898 -9.03352,6.16412 -11.0625,11.0625 -1.5006,3.62277 -1.5006,7.90848 0,11.53125 1.98871,4.80115 5.92939,9.93629 11.0625,12.0625 3.78671,1.5685 8.90209,1.42153 13.25,1.09375 C 186.81666,314.14097 190.375,313.5 190.375,313.5 a 2.0041461,2.0041461 0 1 0 -0.75,-3.9375 c 0,0 -3.35646,0.62748 -7.46875,0.9375 -4.11229,0.31002 -9.03376,0.17022 -11.40625,-0.8125 -3.57731,-1.48177 -7.28698,-5.99698 -8.90625,-9.90625 -1.05062,-2.53643 -1.05062,-5.93232 0,-8.46875 1.579,-3.81204 5.09421,-7.32725 8.90625,-8.90625 5.61603,-2.32623 12.85272,-2.32623 18.46875,0 3.81204,1.579 7.3585,5.09421 8.9375,8.90625 3.26244,7.87623 2.85906,17.82286 -0.0313,26.0625 -1.64004,4.67541 -4.90268,9.40573 -9,11.375 -3.42521,1.64624 -10.3084,1.80668 -16.125,1.3125 -5.8166,-0.49418 -10.59375,-1.46875 -10.59375,-1.46875 a 2.0002,2.0002 0 1 0 -0.8125,3.90625 c 0,0 5.01339,1.04591 11.09375,1.5625 6.08036,0.51659 13.20055,0.6781 18.1875,-1.71875 5.52128,-2.65367 9.10758,-8.23013 11,-13.625 3.17815,-9.06022 3.72217,-19.87593 -0.0313,-28.9375 -2.02898,-4.89838 -6.19537,-9.03352 -11.09375,-11.0625 -3.35119,-1.3881 -7.04291,-2.09375 -10.75,-2.09375 z"
       id="path3012"
       inkscape:connector-curvature="0" />
    <path
       inkscape:connector-curvature="0"
       id="path3014"
       d="m 342.5,279.08093 c -3.37138,0.18053 -6.58675,0.6781 -9.25,1.78125 -4.89838,2.02898 -9.06477,6.19537 -11.09375,11.09375 -1.5685,3.78671 -1.42153,8.87084 -1.09375,13.21875 0.32778,4.34791 0.96875,7.90625 0.96875,7.90625 a 2.0012813,2.0012813 0 1 0 3.9375,-0.71875 c 0,0 -0.62748,-3.35646 -0.9375,-7.46875 -0.31002,-4.11229 -0.17022,-9.03376 0.8125,-11.40625 1.579,-3.81204 5.09421,-7.32725 8.90625,-8.90625 3.91229,-1.62052 11.33516,-1.78197 17.5625,-1.3125 6.22734,0.46947 11.3125,1.4375 11.3125,1.4375 a 2.0041461,2.0041461 0 1 0 0.75,-3.9375 c 0,0 -5.28704,-0.98151 -11.75,-1.46875 -3.23148,-0.24362 -6.75362,-0.39928 -10.125,-0.21875 z"
       style="font-size:medium;font-style:normal;font-variant:normal;font-weight:normal;font-stretch:normal;text-indent:0;text-align:start;text-decoration:none;line-height:normal;letter-spacing:normal;word-spacing:normal;text-transform:none;direction:ltr;block-progression:tb;writing-mode:lr-tb;text-anchor:start;baseline-shift:baseline;color:#000000;fill:#00ff00;fill-opacity:1;stroke:none;stroke-width:4;marker:none;visibility:visible;display:inline;overflow:visible;enable-background:accumulate;font-family:Sans;-inkscape-font-specification:Sans" />
    <path
       inkscape:transform-center-y="-6.7537482"
       inkscape:transform-center-x="-7.80518"
       sodipodi:nodetypes="sccsccccs"
       inkscape:connector-curvature="0"
       id="path3016"
       d="m 379,273.32662 c -4.27466,-1.63622 -9.78437,-1.41784 -16,3.99994 13.15715,-0.96784 11.66901,17.13468 33.92022,19.90732 -19.48417,2.31653 -23.4958,-17.325 -35.62811,-16.78078 -1.24256,0.0557 -2.3729,0.002 -3.14482,0.40772 l -0.89771,2.18256 c 1.33435,-0.53005 2.60309,-0.79293 3.75042,-0.71682 -2.99402,19.13256 35.84436,26.64078 48.32928,15.75829 C 393.80978,293.16347 388.40429,276.92624 379,273.32662 z"
       style="fill:#00ff00;fill-opacity:1;stroke:none" />
    <g
       transform="matrix(1.3636359,0,0,1.0000001,-25.454517,173.36064)"
       id="g3018"
       style="fill:#cccccc">
      <path
         sodipodi:type="arc"
         style="fill:#cccccc;fill-opacity:1;stroke:none"
         id="path3020"
         sodipodi:cx="60"
         sodipodi:cy="152.36218"
         sodipodi:rx="1"
         sodipodi:ry="1"
         d="m 61,152.36218 a 1,1 0 0 1 -1,1 1,1 0 0 1 -1,-1 1,1 0 0 1 1,-1 1,1 0 0 1 1,1 z"
         transform="matrix(2,0,0,2,-50,-173.36218)" />
      <path
         transform="matrix(2,0,0,2,-50,-191.36218)"
         d="m 61,152.36218 a 1,1 0 0 1 -1,1 1,1 0 0 1 -1,-1 1,1 0 0 1 1,-1 1,1 0 0 1 1,1 z"
         sodipodi:ry="1"
         sodipodi:rx="1"
         sodipodi:cy="152.36218"
         sodipodi:cx="60"
         id="path3022"
         style="fill:#cccccc;fill-opacity:1;stroke:none"
         sodipodi:type="arc" />
      <path
         transform="matrix(0,2,-2,0,365.72437,2.3621852)"
         d="m 61,152.36218 a 1,1 0 0 1 -1,1 1,1 0 0 1 -1,-1 1,1 0 0 1 1,-1 1,1 0 0 1 1,1 z"
         sodipodi:ry="1"
         sodipodi:rx="1"
         sodipodi:cy="152.36218"
         sodipodi:cx="60"
         id="path3024"
         style="fill:#cccccc;fill-opacity:1;stroke:none"
         sodipodi:type="arc" />
      <path
         sodipodi:type="arc"
         style="fill:#cccccc;fill-opacity:1;stroke:none"
         id="path3026"
         sodipodi:cx="60"
         sodipodi:cy="152.36218"
         sodipodi:rx="1"
         sodipodi:ry="1"
         d="m 61,152.36218 a 1,1 0 0 1 -1,1 1,1 0 0 1 -1,-1 1,1 0 0 1 1,-1 1,1 0 0 1 1,1 z"
         transform="matrix(0,2,-2,0,383.72437,2.3621852)" />
      <path
         sodipodi:type="arc"
         style="fill:#cccccc;fill-opacity:1;stroke:none"
         id="path3028"
         sodipodi:cx="60"
         sodipodi:cy="152.36218"
         sodipodi:rx="1"
         sodipodi:ry="1"
         d="m 61,152.36218 a 1,1 0 0 1 -1,1 1,1 0 0 1 -1,-1 1,1 0 0 1 1,-1 1,1 0 0 1 1,1 z"
         transform="matrix(-1.4142136,1.4142136,-1.4142136,-1.4142136,363.96152,246.61808)" />
      <path
         transform="matrix(-1.4142136,1.4142136,-1.4142136,-1.4142136,376.68944,259.346)"
         d="m 61,152.36218 a 1,1 0 0 1 -1,1 1,1 0 0 1 -1,-1 1,1 0 0 1 1,-1 1,1 0 0 1 1,1 z"
         sodipodi:ry="1"
         sodipodi:rx="1"
         sodipodi:cy="152.36218"
         sodipodi:cx="60"
         id="path3030"
         style="fill:#cccccc;fill-opacity:1;stroke:none"
         sodipodi:type="arc" />
      <path
         transform="matrix(-1.4142136,-1.4142136,1.4142136,-1.4142136,-54.255902,416.32371)"
         d="m 61,152.36218 a 1,1 0 0 1 -1,1 1,1 0 0 1 -1,-1 1,1 0 0 1 1,-1 1,1 0 0 1 1,1 z"
         sodipodi:ry="1"
         sodipodi:rx="1"
         sodipodi:cy="152.36218"
         sodipodi:cx="60"
         id="path3032"
         style="fill:#cccccc;fill-opacity:1;stroke:none"
         sodipodi:type="arc" />
      <path
         sodipodi:type="arc"
         style="fill:#cccccc;fill-opacity:1;stroke:none"
         id="path3034"
         sodipodi:cx="60"
         sodipodi:cy="152.36218"
         sodipodi:rx="1"
         sodipodi:ry="1"
         d="m 61,152.36218 a 1,1 0 0 1 -1,1 1,1 0 0 1 -1,-1 1,1 0 0 1 1,-1 1,1 0 0 1 1,1 z"
         transform="matrix(-1.4142136,-1.4142136,1.4142136,-1.4142136,-66.983822,429.05163)" />
      <path
         sodipodi:type="arc"
         style="fill:#cccccc;fill-opacity:1;stroke:none"
         id="path3036"
         sodipodi:cx="60"
         sodipodi:cy="152.36218"
         sodipodi:rx="1"
         sodipodi:ry="1"
         d="m 61,152.36218 a 1,1 0 0 1 -1,1 1,1 0 0 1 -1,-1 1,1 0 0 1 1,-1 1,1 0 0 1 1,1 z"
         transform="matrix(-1.4142136,-1.4142136,1.4142136,-1.4142136,-60.619855,422.68767)"
         inkscape:transform-center-x="-5.3639528"
         inkscape:transform-center-y="-6.3639594" />
    </g>
    <path
       style="font-size:medium;font-style:normal;font-variant:normal;font-weight:normal;font-stretch:normal;text-indent:0;text-align:start;text-decoration:none;line-height:normal;letter-spacing:normal;word-spacing:normal;text-transform:none;direction:ltr;block-progression:tb;writing-mode:lr-tb;text-anchor:start;baseline-shift:baseline;color:#000000;fill:#cccccc;fill-opacity:1;stroke:none;stroke-width:4;marker:none;visibility:visible;display:inline;overflow:visible;enable-background:accumulate;font-family:Sans;-inkscape-font-specification:Sans"
       d="m 124.96875,276.59375 c -3.72161,-0.0195 -7.43417,0.67561 -10.78125,2.15625 -5.14941,2.27795 -9.09547,7.03706 -11.0625,12.125 -1.39032,3.59621 -1.47803,7.82501 0.0313,11.46875 2.02898,4.89838 6.19537,9.06477 11.09375,11.09375 3.78671,1.5685 8.87084,1.42153 13.21875,1.09375 4.34791,-0.32778 7.90625,-0.96875 7.90625,-0.96875 a 2.0041461,2.0041461 0 1 0 -0.75,-3.9375 c 0,0 -3.35646,0.62748 -7.46875,0.9375 -4.11229,0.31002 -9.03376,0.17022 -11.40625,-0.8125 -3.81204,-1.579 -7.32725,-5.12546 -8.90625,-8.9375 -1.04194,-2.51546 -0.98241,-5.87807 0.0313,-8.5 1.60673,-4.156 5.02343,-8.17478 8.9375,-9.90625 5.49936,-2.43274 12.80099,-2.30345 18.4375,0.0313 3.81204,1.579 7.32725,5.09421 8.90625,8.90625 1.0465,2.52647 1.16972,7.70745 0.84375,12.03125 -0.32597,4.3238 -0.96875,7.84375 -0.96875,7.84375 a 2.0012813,2.0012813 0 1 0 3.9375,0.71875 c 0,0 0.68752,-3.72184 1.03125,-8.28125 0.34373,-4.55941 0.47603,-9.90307 -1.15625,-13.84375 -2.02898,-4.89838 -6.19537,-9.03352 -11.09375,-11.0625 -3.34095,-1.38386 -7.05964,-2.13674 -10.78125,-2.15625 z"
       id="path3038"
       inkscape:connector-curvature="0" />
    <path
       style="font-size:medium;font-style:normal;font-variant:normal;font-weight:normal;font-stretch:normal;text-indent:0;text-align:start;text-decoration:none;line-height:normal;letter-spacing:normal;word-spacing:normal;text-transform:none;direction:ltr;block-progression:tb;writing-mode:lr-tb;text-anchor:start;baseline-shift:baseline;color:#000000;fill:#cccccc;fill-opacity:1;stroke:none;stroke-width:4;marker:none;visibility:visible;display:inline;overflow:visible;enable-background:accumulate;font-family:Sans;-inkscape-font-specification:Sans"
       d="M 228.875,276.65625 C 223.25137,276.64796 217.96306,277.73539 214,280 a 2.0002,2.0002 0 0 0 -1,1.71875 l 0,31 a 2.0002,2.0002 0 1 0 4,0 l 0,-29.59375 c 6.34981,-3.03994 18.22112,-3.1428 27.25,0.46875 3.79989,1.51996 7.32288,5.08366 8.90625,8.90625 0.96807,2.33714 1.12355,7.50528 0.8125,11.875 -0.31105,4.36972 -0.9375,8 -0.9375,8 a 2.0002,2.0002 0 1 0 3.9375,0.6875 c 0,0 0.64199,-3.78452 0.96875,-8.375 0.32676,-4.59048 0.4894,-9.89669 -1.09375,-13.71875 -2.02461,-4.88783 -6.13988,-9.11219 -11.09375,-11.09375 -5.27748,-2.11099 -11.25137,-3.21046 -16.875,-3.21875 z"
       id="path3040"
       inkscape:connector-curvature="0" />
    <path
       style="font-size:medium;font-style:normal;font-variant:normal;font-weight:normal;font-stretch:normal;text-indent:0;text-align:start;text-decoration:none;line-height:normal;letter-spacing:normal;word-spacing:normal;text-transform:none;direction:ltr;block-progression:tb;writing-mode:lr-tb;text-anchor:start;baseline-shift:baseline;color:#000000;fill:#cccccc;fill-opacity:1;stroke:none;stroke-width:4;marker:none;visibility:visible;display:inline;overflow:visible;enable-background:accumulate;font-family:Sans;-inkscape-font-specification:Sans"
       d="M 268.96875,279.6875 A 2.0002,2.0002 0 0 0 267,281.71875 l 0,31 a 2.0002,2.0002 0 0 0 1,1.75 c 7.92613,4.52921 21.19505,4.34698 31.75,0.125 4.95387,-1.98156 9.06914,-6.20592 11.09375,-11.09375 1.58315,-3.82206 1.42051,-9.12827 1.09375,-13.71875 -0.32676,-4.59048 -0.96875,-8.40625 -0.96875,-8.40625 a 2.0002,2.0002 0 1 0 -3.9375,0.6875 c 0,0 0.62645,3.63028 0.9375,8 0.31105,4.36972 0.15557,9.56911 -0.8125,11.90625 -1.58337,3.82259 -5.10636,7.38629 -8.90625,8.90625 -9.02815,3.61126 -20.89978,3.50795 -27.25,0.46875 l 0,-29.625 a 2.0002,2.0002 0 0 0 -2.03125,-2.03125 z"
       id="path3042"
       inkscape:connector-curvature="0" />
    <path
       style="fill:#00ff00;fill-opacity:1;stroke:none"
       d="m 379,273.32662 c -4.27466,-1.63622 -9.78437,-1.41784 -16,3.99994 13.15715,-0.96784 11.67824,17.06159 33.92022,19.90732 3.29956,0.42216 4.3404,0.58439 12.40906,0.85097 C 393.80978,293.16347 388.40429,276.92624 379,273.32662 z"
       id="path3825"
       inkscape:connector-curvature="0"
       sodipodi:nodetypes="scscs"
       inkscape:transform-center-x="-7.80518"
       inkscape:transform-center-y="-6.7537482" />
    <rect
       y="541.36218"
       x="58"
       height="85"
       width="425.19684"
       id="rect3029"
       style="fill:#000000;fill-opacity:1;stroke:none"
       inkscape:export-filename="/home/diau/g3969.png"
       inkscape:export-xdpi="1199.9384"
       inkscape:export-ydpi="1199.9384" />
    <g
       id="g3067"
       transform="matrix(-0.36288799,0,0,-0.36288799,352.62511,740.09057)"
       inkscape:export-filename="/home/diau/g3969.png"
       inkscape:export-xdpi="1199.9384"
       inkscape:export-ydpi="1199.9384">
      <path
         style="color:#000000;font-style:normal;font-variant:normal;font-weight:normal;font-stretch:normal;font-size:medium;line-height:normal;font-family:Sans;-inkscape-font-specification:Sans;text-indent:0;text-align:start;text-decoration:none;text-decoration-line:none;letter-spacing:normal;word-spacing:normal;text-transform:none;direction:ltr;block-progression:tb;writing-mode:lr-tb;baseline-shift:baseline;text-anchor:start;display:inline;overflow:visible;visibility:visible;fill:#e6e6e6;fill-opacity:1;stroke:none;stroke-width:4;marker:none;enable-background:accumulate"
         d="m 49.9375,426.36218 a 2.0002,2.0002 0 0 0 -1.90625,1.6875 c 0,0 -1.770386,9.59317 -2.65625,21.34375 -0.885864,11.75058 -1.019575,25.60525 2.78125,34.78125 2.028976,4.89838 6.19537,9.03352 11.09375,11.0625 6.702368,2.77621 14.797632,2.77621 21.5,0 4.89838,-2.02898 9.064774,-6.16412 11.09375,-11.0625 1.500599,-3.62277 1.500599,-7.90848 0,-11.53125 -1.992732,-4.81088 -5.984127,-9.85227 -11.09375,-11.96875 -3.786705,-1.5685 -8.870842,-1.42153 -13.21875,-1.09375 -4.347908,0.32778 -7.90625,0.96875 -7.90625,0.96875 a 2.0041461,2.0041461 0 1 0 0.75,3.9375 c 0,0 3.356457,-0.62748 7.46875,-0.9375 4.112293,-0.31002 9.033758,-0.17022 11.40625,0.8125 3.600797,1.4915 7.291008,5.91296 8.90625,9.8125 1.050623,2.53643 1.050623,5.93232 0,8.46875 -1.578998,3.81204 -5.09421,7.32725 -8.90625,8.90625 -5.616026,2.32623 -12.883974,2.32623 -18.5,0 -3.81204,-1.579 -7.327252,-5.09421 -8.90625,-8.90625 -3.215038,-7.76179 -3.336851,-21.42253 -2.46875,-32.9375 0.868101,-11.51497 2.59375,-20.9375 2.59375,-20.9375 a 2.0002,2.0002 0 0 0 -2.03125,-2.40625 z"
         id="path3031"
         inkscape:connector-curvature="0" />
      <path
         style="color:#000000;font-style:normal;font-variant:normal;font-weight:normal;font-stretch:normal;font-size:medium;line-height:normal;font-family:Sans;-inkscape-font-specification:Sans;text-indent:0;text-align:start;text-decoration:none;text-decoration-line:none;letter-spacing:normal;word-spacing:normal;text-transform:none;direction:ltr;block-progression:tb;writing-mode:lr-tb;baseline-shift:baseline;text-anchor:start;display:inline;overflow:visible;visibility:visible;fill:#e6e6e6;fill-opacity:1;stroke:none;stroke-width:4;marker:none;enable-background:accumulate"
         d="m 180,459.29968 c -3.70709,0 -7.43006,0.70565 -10.78125,2.09375 -4.89838,2.02898 -9.03352,6.16412 -11.0625,11.0625 -1.5006,3.62277 -1.5006,7.90848 0,11.53125 1.98871,4.80115 5.92939,9.93629 11.0625,12.0625 3.78671,1.5685 8.90209,1.42153 13.25,1.09375 4.34791,-0.32778 7.90625,-0.96875 7.90625,-0.96875 a 2.0041461,2.0041461 0 1 0 -0.75,-3.9375 c 0,0 -3.35646,0.62748 -7.46875,0.9375 -4.11229,0.31002 -9.03376,0.17022 -11.40625,-0.8125 -3.57731,-1.48177 -7.28698,-5.99698 -8.90625,-9.90625 -1.05062,-2.53643 -1.05062,-5.93232 0,-8.46875 1.579,-3.81204 5.09421,-7.32725 8.90625,-8.90625 5.61603,-2.32623 12.85272,-2.32623 18.46875,0 3.81204,1.579 7.3585,5.09421 8.9375,8.90625 3.26244,7.87623 2.85906,17.82286 -0.0313,26.0625 -1.64004,4.67541 -4.90268,9.40573 -9,11.375 -3.42521,1.64624 -10.3084,1.80668 -16.125,1.3125 -5.8166,-0.49418 -10.59375,-1.46875 -10.59375,-1.46875 a 2.0002,2.0002 0 1 0 -0.8125,3.90625 c 0,0 5.01339,1.04591 11.09375,1.5625 6.08036,0.51659 13.20055,0.6781 18.1875,-1.71875 5.52128,-2.65367 9.10758,-8.23013 11,-13.625 3.17815,-9.06022 3.72217,-19.87593 -0.0313,-28.9375 -2.02898,-4.89838 -6.19537,-9.03352 -11.09375,-11.0625 -3.35119,-1.3881 -7.04291,-2.09375 -10.75,-2.09375 z"
         id="path3033"
         inkscape:connector-curvature="0" />
      <path
         inkscape:connector-curvature="0"
         id="path3035"
         d="m 342.5,461.75561 c -3.37138,0.18053 -6.58675,0.6781 -9.25,1.78125 -4.89838,2.02898 -9.06477,6.19537 -11.09375,11.09375 -1.5685,3.78671 -1.42153,8.87084 -1.09375,13.21875 0.32778,4.34791 0.96875,7.90625 0.96875,7.90625 a 2.0012813,2.0012813 0 1 0 3.9375,-0.71875 c 0,0 -0.62748,-3.35646 -0.9375,-7.46875 -0.31002,-4.11229 -0.17022,-9.03376 0.8125,-11.40625 1.579,-3.81204 5.09421,-7.32725 8.90625,-8.90625 3.91229,-1.62052 11.33516,-1.78197 17.5625,-1.3125 6.22734,0.46947 11.3125,1.4375 11.3125,1.4375 a 2.0041461,2.0041461 0 1 0 0.75,-3.9375 c 0,0 -5.28704,-0.98151 -11.75,-1.46875 -3.23148,-0.24362 -6.75362,-0.39928 -10.125,-0.21875 z"
         style="color:#000000;font-style:normal;font-variant:normal;font-weight:normal;font-stretch:normal;font-size:medium;line-height:normal;font-family:Sans;-inkscape-font-specification:Sans;text-indent:0;text-align:start;text-decoration:none;text-decoration-line:none;letter-spacing:normal;word-spacing:normal;text-transform:none;direction:ltr;block-progression:tb;writing-mode:lr-tb;baseline-shift:baseline;text-anchor:start;display:inline;overflow:visible;visibility:visible;fill:#e6e6e6;fill-opacity:1;stroke:none;stroke-width:4;marker:none;enable-background:accumulate" />
      <path
         inkscape:transform-center-y="-6.7537482"
         inkscape:transform-center-x="-7.80518"
         sodipodi:nodetypes="sccsccccs"
         inkscape:connector-curvature="0"
         id="path3037"
         d="m 379,456.0013 c -4.27466,-1.63622 -9.78437,-1.41784 -16,3.99994 13.15715,-0.96784 11.66901,17.13468 33.92022,19.90732 -19.48417,2.31653 -23.4958,-17.325 -35.62811,-16.78078 -1.24256,0.0557 -2.3729,0.002 -3.14482,0.40772 l -0.89771,2.18256 c 1.33435,-0.53005 2.60309,-0.79293 3.75042,-0.71682 -2.99402,19.13256 35.84436,26.64078 48.32928,15.75829 C 393.80978,475.83815 388.40429,459.60092 379,456.0013 Z"
         style="fill:#e6e6e6;fill-opacity:1;stroke:none" />
      <g
         transform="matrix(1.3636359,0,0,1.0000001,-25.454517,356.03532)"
         id="g3039"
         style="fill:#e6e6e6">
        <circle
           style="fill:#e6e6e6;fill-opacity:1;stroke:none"
           id="path3041"
           transform="matrix(2,0,0,2,-50,-173.36218)"
           cx="60"
           cy="152.36218"
           r="1" />
        <circle
           transform="matrix(2,0,0,2,-50,-191.36218)"
           id="path3043"
           style="fill:#e6e6e6;fill-opacity:1;stroke:none"
           cx="60"
           cy="152.36218"
           r="1" />
        <circle
           transform="matrix(0,2,-2,0,365.72437,2.3621852)"
           id="path3045"
           style="fill:#e6e6e6;fill-opacity:1;stroke:none"
           cx="60"
           cy="152.36218"
           r="1" />
        <circle
           style="fill:#e6e6e6;fill-opacity:1;stroke:none"
           id="path3047"
           transform="matrix(0,2,-2,0,383.72437,2.3621852)"
           cx="60"
           cy="152.36218"
           r="1" />
        <circle
           style="fill:#e6e6e6;fill-opacity:1;stroke:none"
           id="path3049"
           transform="matrix(-1.4142136,1.4142136,-1.4142136,-1.4142136,363.96152,246.61808)"
           cx="60"
           cy="152.36218"
           r="1" />
        <circle
           transform="matrix(-1.4142136,1.4142136,-1.4142136,-1.4142136,376.68944,259.346)"
           id="path3051"
           style="fill:#e6e6e6;fill-opacity:1;stroke:none"
           cx="60"
           cy="152.36218"
           r="1" />
        <circle
           transform="matrix(-1.4142136,-1.4142136,1.4142136,-1.4142136,-54.255902,416.32371)"
           id="path3053"
           style="fill:#e6e6e6;fill-opacity:1;stroke:none"
           cx="60"
           cy="152.36218"
           r="1" />
        <circle
           style="fill:#e6e6e6;fill-opacity:1;stroke:none"
           id="path3055"
           transform="matrix(-1.4142136,-1.4142136,1.4142136,-1.4142136,-66.983822,429.05163)"
           cx="60"
           cy="152.36218"
           r="1" />
        <circle
           style="fill:#e6e6e6;fill-opacity:1;stroke:none"
           id="path3057"
           transform="matrix(-1.4142136,-1.4142136,1.4142136,-1.4142136,-60.619855,422.68767)"
           inkscape:transform-center-x="-5.3639528"
           inkscape:transform-center-y="-6.3639594"
           cx="60"
           cy="152.36218"
           r="1" />
      </g>
      <path
         style="color:#000000;font-style:normal;font-variant:normal;font-weight:normal;font-stretch:normal;font-size:medium;line-height:normal;font-family:Sans;-inkscape-font-specification:Sans;text-indent:0;text-align:start;text-decoration:none;text-decoration-line:none;letter-spacing:normal;word-spacing:normal;text-transform:none;direction:ltr;block-progression:tb;writing-mode:lr-tb;baseline-shift:baseline;text-anchor:start;display:inline;overflow:visible;visibility:visible;fill:#e6e6e6;fill-opacity:1;stroke:none;stroke-width:4;marker:none;enable-background:accumulate"
         d="m 124.96875,459.26843 c -3.72161,-0.0195 -7.43417,0.67561 -10.78125,2.15625 -5.14941,2.27795 -9.09547,7.03706 -11.0625,12.125 -1.39032,3.59621 -1.47803,7.82501 0.0313,11.46875 2.02898,4.89838 6.19537,9.06477 11.09375,11.09375 3.78671,1.5685 8.87084,1.42153 13.21875,1.09375 4.34791,-0.32778 7.90625,-0.96875 7.90625,-0.96875 a 2.0041461,2.0041461 0 1 0 -0.75,-3.9375 c 0,0 -3.35646,0.62748 -7.46875,0.9375 -4.11229,0.31002 -9.03376,0.17022 -11.40625,-0.8125 -3.81204,-1.579 -7.32725,-5.12546 -8.90625,-8.9375 -1.04194,-2.51546 -0.98241,-5.87807 0.0313,-8.5 1.60673,-4.156 5.02343,-8.17478 8.9375,-9.90625 5.49936,-2.43274 12.80099,-2.30345 18.4375,0.0313 3.81204,1.579 7.32725,5.09421 8.90625,8.90625 1.0465,2.52647 1.16972,7.70745 0.84375,12.03125 -0.32597,4.3238 -0.96875,7.84375 -0.96875,7.84375 a 2.0012813,2.0012813 0 1 0 3.9375,0.71875 c 0,0 0.68752,-3.72184 1.03125,-8.28125 0.34373,-4.55941 0.47603,-9.90307 -1.15625,-13.84375 -2.02898,-4.89838 -6.19537,-9.03352 -11.09375,-11.0625 -3.34095,-1.38386 -7.05964,-2.13674 -10.78125,-2.15625 z"
         id="path3059"
         inkscape:connector-curvature="0" />
      <path
         style="color:#000000;font-style:normal;font-variant:normal;font-weight:normal;font-stretch:normal;font-size:medium;line-height:normal;font-family:Sans;-inkscape-font-specification:Sans;text-indent:0;text-align:start;text-decoration:none;text-decoration-line:none;letter-spacing:normal;word-spacing:normal;text-transform:none;direction:ltr;block-progression:tb;writing-mode:lr-tb;baseline-shift:baseline;text-anchor:start;display:inline;overflow:visible;visibility:visible;fill:#e6e6e6;fill-opacity:1;stroke:none;stroke-width:4;marker:none;enable-background:accumulate"
         d="m 228.875,459.33093 c -5.62363,-0.008 -10.91194,1.07914 -14.875,3.34375 a 2.0002,2.0002 0 0 0 -1,1.71875 l 0,31 a 2.0002,2.0002 0 1 0 4,0 l 0,-29.59375 c 6.34981,-3.03994 18.22112,-3.1428 27.25,0.46875 3.79989,1.51996 7.32288,5.08366 8.90625,8.90625 0.96807,2.33714 1.12355,7.50528 0.8125,11.875 -0.31105,4.36972 -0.9375,8 -0.9375,8 a 2.0002,2.0002 0 1 0 3.9375,0.6875 c 0,0 0.64199,-3.78452 0.96875,-8.375 0.32676,-4.59048 0.4894,-9.89669 -1.09375,-13.71875 -2.02461,-4.88783 -6.13988,-9.11219 -11.09375,-11.09375 -5.27748,-2.11099 -11.25137,-3.21046 -16.875,-3.21875 z"
         id="path3061"
         inkscape:connector-curvature="0" />
      <path
         style="color:#000000;font-style:normal;font-variant:normal;font-weight:normal;font-stretch:normal;font-size:medium;line-height:normal;font-family:Sans;-inkscape-font-specification:Sans;text-indent:0;text-align:start;text-decoration:none;text-decoration-line:none;letter-spacing:normal;word-spacing:normal;text-transform:none;direction:ltr;block-progression:tb;writing-mode:lr-tb;baseline-shift:baseline;text-anchor:start;display:inline;overflow:visible;visibility:visible;fill:#e6e6e6;fill-opacity:1;stroke:none;stroke-width:4;marker:none;enable-background:accumulate"
         d="M 268.96875,462.36218 A 2.0002,2.0002 0 0 0 267,464.39343 l 0,31 a 2.0002,2.0002 0 0 0 1,1.75 c 7.92613,4.52921 21.19505,4.34698 31.75,0.125 4.95387,-1.98156 9.06914,-6.20592 11.09375,-11.09375 1.58315,-3.82206 1.42051,-9.12827 1.09375,-13.71875 -0.32676,-4.59048 -0.96875,-8.40625 -0.96875,-8.40625 a 2.0002,2.0002 0 1 0 -3.9375,0.6875 c 0,0 0.62645,3.63028 0.9375,8 0.31105,4.36972 0.15557,9.56911 -0.8125,11.90625 -1.58337,3.82259 -5.10636,7.38629 -8.90625,8.90625 -9.02815,3.61126 -20.89978,3.50795 -27.25,0.46875 l 0,-29.625 a 2.0002,2.0002 0 0 0 -2.03125,-2.03125 z"
         id="path3063"
         inkscape:connector-curvature="0" />
    </g>
    <path
       inkscape:connector-curvature="0"
       id="path3914"
       d="m 161.99971,76.389913 c 0,0 19.58784,4.043095 28,0 4.8093,-2.311468 8.23377,-7.464859 10,-12.5 4.14065,-11.804076 0,-37.52773 0,-37.52773"
       style="fill:none;stroke:#000000;stroke-width:4;stroke-linecap:round;stroke-linejoin:round;stroke-miterlimit:4;stroke-opacity:1;stroke-dasharray:none"
       sodipodi:nodetypes="cssc" />
    <path
       style="fill:none;stroke:#000000;stroke-width:4;stroke-linecap:round;stroke-linejoin:round;stroke-miterlimit:4;stroke-opacity:1;stroke-dasharray:none"
       d="m 200,57.362183 c 0,0 -20.85486,4.045536 -30,0 -4.53174,-2.004707 -8.21312,-6.378031 -10,-11 -2.40398,-6.218146 0,-20 0,-20"
       id="path3916"
       inkscape:connector-curvature="0"
       sodipodi:nodetypes="cssc" />
    <path
       style="fill:none;stroke:#000000;stroke-width:4;stroke-linecap:round;stroke-linejoin:round;stroke-miterlimit:4;stroke-opacity:1;stroke-dasharray:none"
       d="m 225,26.362183 c 0,0 -2.93391,15.916924 0,23 1.80399,4.35521 5.64479,8.196013 10,10 4.6194,1.913417 15,0 15,0"
       id="path3944"
       inkscape:connector-curvature="0"
       sodipodi:nodetypes="cssc" />
    <path
       inkscape:connector-curvature="0"
       id="path3946"
       d="m 231,34.362183 -13,0"
       style="fill:none;stroke:#000000;stroke-width:4;stroke-linecap:round;stroke-linejoin:round;stroke-miterlimit:4;stroke-opacity:1;stroke-dasharray:none"
       sodipodi:nodetypes="cc" />
    <g
       id="g3969"
       transform="matrix(0.71976792,0,0,0.71976792,222.06173,236.74526)"
       inkscape:export-filename="/home/diau/g3969.png"
       inkscape:export-xdpi="1199.9384"
       inkscape:export-ydpi="1199.9384">
      <path
         inkscape:connector-curvature="0"
         id="path3860"
         d="m 175.05835,493.66186 a 0.7804305,0.7804305 0 0 0 -0.74378,0.65842 c 0,0 -0.69076,3.74303 -1.0364,8.32782 -0.34565,4.5848 -0.39782,9.99056 1.08517,13.57082 0.79166,1.91123 2.41729,3.52467 4.32852,4.31633 2.61511,1.08321 5.77369,1.08321 8.38879,0 1.91123,-0.79166 3.53686,-2.4051 4.32852,-4.31633 0.5855,-1.41352 0.5855,-3.0857 0,-4.49922 -0.77752,-1.87709 -2.33487,-3.84412 -4.32852,-4.66992 -1.47748,-0.61199 -3.46119,-0.55465 -5.15764,-0.42676 -1.69645,0.1279 -3.08483,0.37799 -3.08483,0.37799 a 0.7819705,0.7819705 0 0 0 0.29263,1.53632 c 0,0 1.30961,-0.24483 2.91413,-0.36579 1.60452,-0.12097 3.52476,-0.0664 4.45045,0.31701 1.40494,0.58195 2.84477,2.3071 3.475,3.82861 0.40993,0.98965 0.40993,2.31465 0,3.3043 -0.61608,1.48737 -1.98764,2.85892 -3.475,3.47501 -2.19124,0.90764 -5.02702,0.90764 -7.21826,0 -1.48737,-0.61609 -2.85892,-1.98764 -3.47501,-3.47501 -1.25443,-3.02846 -1.30196,-8.35856 -0.96325,-12.85143 0.33871,-4.49286 1.01202,-8.16931 1.01202,-8.16931 a 0.7804305,0.7804305 0 0 0 -0.79254,-0.93886 z"
         style="color:#000000;font-style:normal;font-variant:normal;font-weight:normal;font-stretch:normal;font-size:medium;line-height:normal;font-family:Sans;-inkscape-font-specification:Sans;text-indent:0;text-align:start;text-decoration:none;text-decoration-line:none;letter-spacing:normal;word-spacing:normal;text-transform:none;direction:ltr;block-progression:tb;writing-mode:lr-tb;baseline-shift:baseline;text-anchor:start;display:inline;overflow:visible;visibility:visible;fill:#e6e6e6;fill-opacity:1;stroke:none;stroke-width:4;marker:none;enable-background:accumulate" />
      <path
         style="color:#000000;font-style:normal;font-variant:normal;font-weight:normal;font-stretch:normal;font-size:medium;line-height:normal;font-family:Sans;-inkscape-font-specification:Sans;text-indent:0;text-align:start;text-decoration:none;text-decoration-line:none;letter-spacing:normal;word-spacing:normal;text-transform:none;direction:ltr;block-progression:tb;writing-mode:lr-tb;baseline-shift:baseline;text-anchor:start;display:inline;overflow:visible;visibility:visible;fill:#e6e6e6;fill-opacity:1;stroke:none;stroke-width:4;marker:none;enable-background:accumulate"
         d="m 295,507.47153 c -1.31543,0.0704 -2.56999,0.26458 -3.60913,0.695 -1.91123,0.79166 -3.53686,2.41729 -4.32852,4.32852 -0.61199,1.47749 -0.55465,3.46119 -0.42675,5.15764 0.12789,1.69646 0.37798,3.08483 0.37798,3.08483 a 0.7808524,0.7808524 0 1 0 1.53632,-0.28043 c 0,0 -0.24483,-1.30962 -0.36579,-2.91413 -0.12096,-1.60452 -0.0664,-3.52476 0.31702,-4.45045 0.61608,-1.48737 1.98764,-2.85892 3.475,-3.47501 1.52649,-0.63229 4.42271,-0.69528 6.85247,-0.5121 2.42976,0.18317 4.41387,0.56087 4.41387,0.56087 a 0.78197017,0.78197017 0 1 0 0.29263,-1.53631 c 0,0 -2.06287,-0.38297 -4.58457,-0.57308 -1.26084,-0.0951 -2.6351,-0.15579 -3.95053,-0.0854 z"
         id="path3864"
         inkscape:connector-curvature="0" />
      <path
         inkscape:connector-curvature="0"
         id="path3888"
         d="m 274.14649,506.50109 c -1.45209,-0.008 -2.90064,0.26361 -4.20659,0.84132 -2.00918,0.8888 -3.54884,2.7457 -4.31633,4.73089 -0.54247,1.40315 -0.57669,3.05313 0.0122,4.47483 0.79166,1.91123 2.41728,3.53686 4.32851,4.32852 1.47749,0.61199 3.46119,0.55465 5.15765,0.42676 1.69645,-0.1279 3.08483,-0.37799 3.08483,-0.37799 a 0.78197144,0.78197144 0 0 0 -0.29264,-1.53632 c 0,0 -1.30961,0.24483 -2.91412,0.36579 -1.60452,0.12097 -3.52476,0.0664 -4.45045,-0.31701 -1.48737,-0.61609 -2.85892,-1.99984 -3.47501,-3.4872 -0.40654,-0.98148 -0.38331,-2.29349 0.0122,-3.3165 0.62691,-1.62158 1.96003,-3.18961 3.4872,-3.86519 2.14572,-0.94919 4.99465,-0.89875 7.19388,0.0122 1.48737,0.61608 2.85892,1.98764 3.475,3.475 0.40832,0.98577 0.4564,3.00727 0.32922,4.69431 -0.12719,1.68705 -0.37799,3.06045 -0.37799,3.06045 a 0.78085302,0.78085302 0 0 0 1.53632,0.28044 c 0,0 0.26826,-1.45218 0.40237,-3.23115 0.13412,-1.77898 0.18574,-3.86394 -0.45114,-5.4015 -0.79166,-1.91124 -2.41729,-3.52467 -4.32852,-4.31633 -1.30356,-0.53995 -2.7545,-0.8337 -4.20659,-0.84132 z"
         style="color:#000000;font-style:normal;font-variant:normal;font-weight:normal;font-stretch:normal;font-size:medium;line-height:normal;font-family:Sans;-inkscape-font-specification:Sans;text-indent:0;text-align:start;text-decoration:none;text-decoration-line:none;letter-spacing:normal;word-spacing:normal;text-transform:none;direction:ltr;block-progression:tb;writing-mode:lr-tb;baseline-shift:baseline;text-anchor:start;display:inline;overflow:visible;visibility:visible;fill:#e6e6e6;fill-opacity:1;stroke:none;stroke-width:4;marker:none;enable-background:accumulate" />
      <path
         inkscape:connector-curvature="0"
         id="path3890"
         d="m 234.625,506.53054 c -2.1942,-0.003 -4.23495,0.42891 -5.78125,1.3125 a 0.7804305,0.7804305 0 0 0 -0.40625,0.65625 l 0,12.09375 a 0.78125,0.78125 0 0 0 1.5625,0 l 0,-11.53125 c 2.47755,-1.18611 7.10215,-1.25289 10.625,0.15625 1.48263,0.59305 2.85096,2.00851 3.46875,3.5 0.18886,0.45594 0.28986,1.17086 0.34375,2 l 0,2.625 0,3.25 a 0.78125,0.78125 0 0 0 1.5625,0 l 0,-11.53125 c 2.47755,-1.18611 7.10215,-1.25289 10.625,0.15625 1.48263,0.59305 2.85096,2.00851 3.46875,3.5 0.37772,0.91189 0.46511,2.92004 0.34375,4.625 -0.12136,1.70496 -0.375,3.125 -0.375,3.125 a 0.7804305,0.7804305 0 1 0 1.53125,0.25 c 0,0 0.24751,-1.45891 0.375,-3.25 0.1275,-1.7911 0.1802,-3.85248 -0.4375,-5.34375 -0.78996,-1.90712 -2.37962,-3.57059 -4.3125,-4.34375 -2.05915,-0.82366 -4.39954,-1.24676 -6.59375,-1.25 -2.1942,-0.003 -4.23495,0.42891 -5.78125,1.3125 a 0.7804305,0.7804305 0 0 0 -0.40625,0.65625 l 0,1.75 c -0.84126,-1.07861 -1.96124,-1.96574 -3.21875,-2.46875 -2.05915,-0.82366 -4.39954,-1.24676 -6.59375,-1.25 z"
         style="color:#000000;font-style:normal;font-variant:normal;font-weight:normal;font-stretch:normal;font-size:medium;line-height:normal;font-family:Sans;-inkscape-font-specification:Sans;text-indent:0;text-align:start;text-decoration:none;text-decoration-line:none;letter-spacing:normal;word-spacing:normal;text-transform:none;direction:ltr;block-progression:tb;writing-mode:lr-tb;baseline-shift:baseline;text-anchor:start;display:inline;overflow:visible;visibility:visible;fill:#e6e6e6;fill-opacity:1;stroke:none;stroke-width:4;marker:none;enable-background:accumulate" />
      <path
         inkscape:connector-curvature="0"
         id="path3920"
         d="m 197.41156,506.2809 a 0.81778898,0.81778898 0 0 0 -0.0894,0.0128 0.81778898,0.81778898 0 0 0 -0.68994,0.68995 c 0,0 -0.25719,1.43488 -0.38331,3.20694 -0.1261,1.77206 -0.17612,3.85836 0.42163,5.40454 0.80424,2.08021 2.41759,4.01323 4.52295,4.94456 2.17204,0.96085 5.28461,0.90073 7.93431,0.68995 1.88131,-0.14966 3.47559,-0.41166 4.26741,-0.5494 -0.0984,0.55329 -0.21717,1.07046 -0.37052,1.50765 -0.67054,1.91155 -2.00448,3.84556 -3.67968,4.6507 -1.40041,0.67308 -4.21462,0.73867 -6.59276,0.53663 -2.37815,-0.20205 -4.3313,-0.60051 -4.3313,-0.60051 a 0.81778898,0.81778898 0 1 0 -0.33219,1.59708 c 0,0 2.04974,0.42763 4.53572,0.63884 2.48597,0.21121 5.39709,0.27725 7.43603,-0.70272 2.25739,-1.08496 3.72366,-3.36491 4.49738,-5.57063 0.93606,-2.66847 0.90431,-6.53783 0.68994,-9.81248 -0.21441,-3.27465 -0.65165,-5.94115 -0.65165,-5.94115 a 0.81778898,0.81778898 0 0 0 -0.86881,-0.68995 0.81778898,0.81778898 0 0 0 -0.74105,0.95825 c 0,0 0.41721,2.59735 0.62606,5.78784 0.12632,1.92972 0.15922,4.07653 0,5.95392 -0.0376,0.007 -2.0872,0.39964 -4.61238,0.60051 -2.54834,0.20272 -5.57518,0.14379 -7.14216,-0.54939 -1.60028,-0.70792 -2.99722,-2.33824 -3.65413,-4.03744 -0.38511,-0.99612 -0.43903,-3.00815 -0.31941,-4.68904 0.11961,-1.68089 0.35774,-3.05362 0.35774,-3.05362 a 0.81778898,0.81778898 0 0 0 -0.83049,-0.9838 z"
         style="color:#000000;font-style:normal;font-variant:normal;font-weight:normal;font-stretch:normal;font-size:medium;line-height:normal;font-family:Sans;-inkscape-font-specification:Sans;text-indent:0;text-align:start;text-decoration:none;text-decoration-line:none;letter-spacing:normal;word-spacing:normal;text-transform:none;direction:ltr;block-progression:tb;writing-mode:lr-tb;baseline-shift:baseline;text-anchor:start;display:inline;overflow:visible;visibility:visible;fill:#e6e6e6;fill-opacity:1;stroke:none;stroke-width:4;marker:none;enable-background:accumulate" />
      <path
         inkscape:connector-curvature="0"
         id="path3963"
         d="m 316.11724,511.33785 -8.46266,-1.55178"
         style="fill:none;stroke:#d8d8d8;stroke-width:1.55940032;stroke-linecap:round;stroke-linejoin:round;stroke-miterlimit:4;stroke-dasharray:none;stroke-opacity:1"
         sodipodi:nodetypes="cc" />
      <path
         inkscape:connector-curvature="0"
         id="path3967"
         d="m 317.45952,521.34819 c -1.31543,-0.0704 -2.56999,-0.26458 -3.60913,-0.695 -1.91123,-0.79166 -3.53686,-2.41729 -4.32852,-4.32852 -0.61199,-1.47749 -0.55465,-3.46119 -0.42675,-5.15764 0.12789,-1.69646 0.37798,-3.08483 0.37798,-3.08483 a 0.7808524,0.7808524 0 1 1 1.53632,0.28043 c 0,0 -0.24483,1.30962 -0.36579,2.91413 -0.12096,1.60452 -0.0664,3.52476 0.31702,4.45045 0.61608,1.48737 1.98764,2.85892 3.475,3.47501 1.52649,0.63229 4.42271,0.69528 6.85247,0.5121 2.42976,-0.18317 4.41387,-0.56087 4.41387,-0.56087 a 0.78197017,0.78197017 0 1 1 0.29263,1.53631 c 0,0 -2.06287,0.38297 -4.58457,0.57308 -1.26084,0.0951 -2.6351,0.15579 -3.95053,0.0854 z"
         style="color:#000000;font-style:normal;font-variant:normal;font-weight:normal;font-stretch:normal;font-size:medium;line-height:normal;font-family:Sans;-inkscape-font-specification:Sans;text-indent:0;text-align:start;text-decoration:none;text-decoration-line:none;letter-spacing:normal;word-spacing:normal;text-transform:none;direction:ltr;block-progression:tb;writing-mode:lr-tb;baseline-shift:baseline;text-anchor:start;display:inline;overflow:visible;visibility:visible;fill:#e6e6e6;fill-opacity:1;stroke:none;stroke-width:4;marker:none;enable-background:accumulate" />
    </g>
    <rect
       y="377.36218"
       x="30"
       height="120"
       width="400"
       id="rect3403"
       style="opacity:1;fill:#000000;fill-opacity:1;stroke:none"
       inkscape:export-filename="/home/diau/bagnur2.png"
       inkscape:export-xdpi="112.5"
       inkscape:export-ydpi="112.5" />
    <path
       inkscape:connector-curvature="0"
       id="path3405"
       d="m 52.9375,391.84375 a 2.0002,2.0002 0 0 0 -1.90625,1.6875 c 0,0 -1.770386,9.59317 -2.65625,21.34375 -0.885864,11.75058 -1.019575,25.60525 2.78125,34.78125 2.028976,4.89838 6.19537,9.03352 11.09375,11.0625 6.702368,2.77621 14.797632,2.77621 21.5,0 4.89838,-2.02898 9.064774,-6.16412 11.09375,-11.0625 1.500599,-3.62277 1.500599,-7.90848 0,-11.53125 -1.992732,-4.81088 -5.984127,-9.85227 -11.09375,-11.96875 -3.786705,-1.5685 -8.870842,-1.42153 -13.21875,-1.09375 -4.347908,0.32778 -7.90625,0.96875 -7.90625,0.96875 a 2.0041461,2.0041461 0 1 0 0.75,3.9375 c 0,0 3.356457,-0.62748 7.46875,-0.9375 4.112293,-0.31002 9.033758,-0.17022 11.40625,0.8125 3.600797,1.4915 7.291008,5.91296 8.90625,9.8125 1.050623,2.53643 1.050623,5.93232 0,8.46875 -1.578998,3.81204 -5.09421,7.32725 -8.90625,8.90625 -5.616026,2.32623 -12.883974,2.32623 -18.5,0 -3.81204,-1.579 -7.327252,-5.09421 -8.90625,-8.90625 -3.215038,-7.76179 -3.336851,-21.42253 -2.46875,-32.9375 0.868101,-11.51497 2.59375,-20.9375 2.59375,-20.9375 a 2.0002,2.0002 0 0 0 -2.03125,-2.40625 z"
       style="color:#000000;font-style:normal;font-variant:normal;font-weight:normal;font-stretch:normal;font-size:medium;line-height:normal;font-family:Sans;-inkscape-font-specification:Sans;text-indent:0;text-align:start;text-decoration:none;text-decoration-line:none;letter-spacing:normal;word-spacing:normal;text-transform:none;direction:ltr;block-progression:tb;writing-mode:lr-tb;baseline-shift:baseline;text-anchor:start;display:inline;overflow:visible;visibility:visible;fill:#cccccc;fill-opacity:1;stroke:none;stroke-width:4;marker:none;enable-background:accumulate"
       inkscape:export-filename="/home/diau/bagnur.png"
       inkscape:export-xdpi="450"
       inkscape:export-ydpi="450" />
    <path
       inkscape:connector-curvature="0"
       id="path3407"
       d="m 183,424.78125 c -3.70709,0 -7.43006,0.70565 -10.78125,2.09375 -4.89838,2.02898 -9.03352,6.16412 -11.0625,11.0625 -1.5006,3.62277 -1.5006,7.90848 0,11.53125 1.98871,4.80115 5.92939,9.93629 11.0625,12.0625 3.78671,1.5685 8.90209,1.42153 13.25,1.09375 4.34791,-0.32778 7.90625,-0.96875 7.90625,-0.96875 a 2.0041461,2.0041461 0 1 0 -0.75,-3.9375 c 0,0 -3.35646,0.62748 -7.46875,0.9375 -4.11229,0.31002 -9.03376,0.17022 -11.40625,-0.8125 -3.57731,-1.48177 -7.28698,-5.99698 -8.90625,-9.90625 -1.05062,-2.53643 -1.05062,-5.93232 0,-8.46875 1.579,-3.81204 5.09421,-7.32725 8.90625,-8.90625 5.61603,-2.32623 12.85272,-2.32623 18.46875,0 3.81204,1.579 7.3585,5.09421 8.9375,8.90625 3.26244,7.87623 2.85906,17.82286 -0.0313,26.0625 -1.64004,4.67541 -4.90268,9.40573 -9,11.375 -3.42521,1.64624 -10.3084,1.80668 -16.125,1.3125 C 170.18335,477.72457 165.4062,476.75 165.4062,476.75 a 2.0002,2.0002 0 1 0 -0.8125,3.90625 c 0,0 5.01339,1.04591 11.09375,1.5625 6.08036,0.51659 13.20055,0.6781 18.1875,-1.71875 5.52128,-2.65367 9.10758,-8.23013 11,-13.625 3.17815,-9.06022 3.72217,-19.87593 -0.0313,-28.9375 -2.02898,-4.89838 -6.19537,-9.03352 -11.09375,-11.0625 -3.35119,-1.3881 -7.04291,-2.09375 -10.75,-2.09375 z"
       style="color:#000000;font-style:normal;font-variant:normal;font-weight:normal;font-stretch:normal;font-size:medium;line-height:normal;font-family:Sans;-inkscape-font-specification:Sans;text-indent:0;text-align:start;text-decoration:none;text-decoration-line:none;letter-spacing:normal;word-spacing:normal;text-transform:none;direction:ltr;block-progression:tb;writing-mode:lr-tb;baseline-shift:baseline;text-anchor:start;display:inline;overflow:visible;visibility:visible;fill:#cccccc;fill-opacity:1;stroke:none;stroke-width:4;marker:none;enable-background:accumulate"
       inkscape:export-filename="/home/diau/bagnur.png"
       inkscape:export-xdpi="450"
       inkscape:export-ydpi="450" />
    <path
       style="color:#000000;font-style:normal;font-variant:normal;font-weight:normal;font-stretch:normal;font-size:medium;line-height:normal;font-family:Sans;-inkscape-font-specification:Sans;text-indent:0;text-align:start;text-decoration:none;text-decoration-line:none;letter-spacing:normal;word-spacing:normal;text-transform:none;direction:ltr;block-progression:tb;writing-mode:lr-tb;baseline-shift:baseline;text-anchor:start;display:inline;overflow:visible;visibility:visible;fill:#cccccc;fill-opacity:1;stroke:none;stroke-width:4;marker:none;enable-background:accumulate"
       d="m 345.5,427.23718 c -3.37138,0.18053 -6.58675,0.6781 -9.25,1.78125 -4.89838,2.02898 -9.06477,6.19537 -11.09375,11.09375 -1.5685,3.78671 -1.42153,8.87084 -1.09375,13.21875 0.32778,4.34791 0.96875,7.90625 0.96875,7.90625 a 2.0012813,2.0012813 0 1 0 3.9375,-0.71875 c 0,0 -0.62748,-3.35646 -0.9375,-7.46875 -0.31002,-4.11229 -0.17022,-9.03376 0.8125,-11.40625 1.579,-3.81204 5.09421,-7.32725 8.90625,-8.90625 3.91229,-1.62052 11.33516,-1.78197 17.5625,-1.3125 6.22734,0.46947 11.3125,1.4375 11.3125,1.4375 a 2.0041461,2.0041461 0 1 0 0.75,-3.9375 c 0,0 -5.28704,-0.98151 -11.75,-1.46875 -3.23148,-0.24362 -6.75362,-0.39928 -10.125,-0.21875 z"
       id="path3409"
       inkscape:connector-curvature="0"
       inkscape:export-filename="/home/diau/bagnur.png"
       inkscape:export-xdpi="450"
       inkscape:export-ydpi="450" />
    <path
       style="fill:#cccccc;fill-opacity:1;stroke:none"
       d="m 382,421.48287 c -4.27466,-1.63622 -9.78437,-1.41784 -16,3.99994 13.15715,-0.96784 11.66901,17.13468 33.92022,19.90732 -19.48417,2.31653 -23.4958,-17.325 -35.62811,-16.78078 -1.24256,0.0557 -2.3729,0.002 -3.14482,0.40772 l -0.89771,2.18256 c 1.33435,-0.53005 2.60309,-0.79293 3.75042,-0.71682 -2.99402,19.13256 35.84436,26.64078 48.32928,15.75829 C 396.80978,441.31972 391.40429,425.08249 382,421.48287 Z"
       id="path3411"
       inkscape:connector-curvature="0"
       sodipodi:nodetypes="sccsccccs"
       inkscape:transform-center-x="-7.80518"
       inkscape:transform-center-y="-6.7537482"
       inkscape:export-filename="/home/diau/bagnur.png"
       inkscape:export-xdpi="450"
       inkscape:export-ydpi="450" />
    <g
       style="fill:#cccccc"
       id="g3413"
       transform="matrix(1.3636359,0,0,1.0000001,-22.454517,321.51689)"
       inkscape:export-filename="/home/diau/bagnur.png"
       inkscape:export-xdpi="450"
       inkscape:export-ydpi="450">
      <circle
         transform="matrix(2,0,0,2,-50,-173.36218)"
         id="path3415"
         style="fill:#cccccc;fill-opacity:1;stroke:none"
         cx="60"
         cy="152.36218"
         r="1" />
      <circle
         style="fill:#cccccc;fill-opacity:1;stroke:none"
         id="path3417"
         transform="matrix(2,0,0,2,-50,-191.36218)"
         cx="60"
         cy="152.36218"
         r="1" />
      <circle
         style="fill:#cccccc;fill-opacity:1;stroke:none"
         id="path3419"
         transform="matrix(0,2,-2,0,365.72437,2.3621852)"
         cx="60"
         cy="152.36218"
         r="1" />
      <circle
         transform="matrix(0,2,-2,0,383.72437,2.3621852)"
         id="path3421"
         style="fill:#cccccc;fill-opacity:1;stroke:none"
         cx="60"
         cy="152.36218"
         r="1" />
      <circle
         transform="matrix(-1.4142136,1.4142136,-1.4142136,-1.4142136,363.96152,246.61808)"
         id="path3423"
         style="fill:#cccccc;fill-opacity:1;stroke:none"
         cx="60"
         cy="152.36218"
         r="1" />
      <circle
         style="fill:#cccccc;fill-opacity:1;stroke:none"
         id="path3425"
         transform="matrix(-1.4142136,1.4142136,-1.4142136,-1.4142136,376.68944,259.346)"
         cx="60"
         cy="152.36218"
         r="1" />
      <circle
         style="fill:#cccccc;fill-opacity:1;stroke:none"
         id="path3427"
         transform="matrix(-1.4142136,-1.4142136,1.4142136,-1.4142136,-54.255902,416.32371)"
         cx="60"
         cy="152.36218"
         r="1" />
      <circle
         transform="matrix(-1.4142136,-1.4142136,1.4142136,-1.4142136,-66.983822,429.05163)"
         id="path3429"
         style="fill:#cccccc;fill-opacity:1;stroke:none"
         cx="60"
         cy="152.36218"
         r="1" />
      <circle
         inkscape:transform-center-y="-6.3639594"
         inkscape:transform-center-x="-5.3639528"
         transform="matrix(-1.4142136,-1.4142136,1.4142136,-1.4142136,-60.619855,422.68767)"
         id="path3431"
         style="fill:#cccccc;fill-opacity:1;stroke:none"
         cx="60"
         cy="152.36218"
         r="1" />
    </g>
    <path
       inkscape:connector-curvature="0"
       id="path3433"
       d="m 127.96875,424.75 c -3.72161,-0.0195 -7.43417,0.67561 -10.78125,2.15625 -5.14941,2.27795 -9.09547,7.03706 -11.0625,12.125 -1.39032,3.59621 -1.47803,7.82501 0.0313,11.46875 2.02898,4.89838 6.19537,9.06477 11.09375,11.09375 3.78671,1.5685 8.87084,1.42153 13.21875,1.09375 4.34791,-0.32778 7.90625,-0.96875 7.90625,-0.96875 a 2.0041461,2.0041461 0 1 0 -0.75,-3.9375 c 0,0 -3.35646,0.62748 -7.46875,0.9375 -4.11229,0.31002 -9.03376,0.17022 -11.40625,-0.8125 -3.81204,-1.579 -7.32725,-5.12546 -8.90625,-8.9375 -1.04194,-2.51546 -0.98241,-5.87807 0.0313,-8.5 1.60673,-4.156 5.02343,-8.17478 8.9375,-9.90625 5.49936,-2.43274 12.80099,-2.30345 18.4375,0.0313 3.81204,1.579 7.32725,5.09421 8.90625,8.90625 1.0465,2.52647 1.16972,7.70745 0.84375,12.03125 -0.32597,4.3238 -0.96875,7.84375 -0.96875,7.84375 a 2.0012813,2.0012813 0 1 0 3.9375,0.71875 c 0,0 0.68752,-3.72184 1.03125,-8.28125 0.34373,-4.55941 0.47603,-9.90307 -1.15625,-13.84375 -2.02898,-4.89838 -6.19537,-9.03352 -11.09375,-11.0625 -3.34095,-1.38386 -7.05964,-2.13674 -10.78125,-2.15625 z"
       style="color:#000000;font-style:normal;font-variant:normal;font-weight:normal;font-stretch:normal;font-size:medium;line-height:normal;font-family:Sans;-inkscape-font-specification:Sans;text-indent:0;text-align:start;text-decoration:none;text-decoration-line:none;letter-spacing:normal;word-spacing:normal;text-transform:none;direction:ltr;block-progression:tb;writing-mode:lr-tb;baseline-shift:baseline;text-anchor:start;display:inline;overflow:visible;visibility:visible;fill:#cccccc;fill-opacity:1;stroke:none;stroke-width:4;marker:none;enable-background:accumulate"
       inkscape:export-filename="/home/diau/bagnur.png"
       inkscape:export-xdpi="450"
       inkscape:export-ydpi="450" />
    <path
       inkscape:connector-curvature="0"
       id="path3435"
       d="m 231.875,424.8125 c -5.62363,-0.008 -10.91194,1.07914 -14.875,3.34375 a 2.0002,2.0002 0 0 0 -1,1.71875 l 0,31 a 2.0002,2.0002 0 1 0 4,0 l 0,-29.59375 c 6.34981,-3.03994 18.22112,-3.1428 27.25,0.46875 3.79989,1.51996 7.32288,5.08366 8.90625,8.90625 0.96807,2.33714 1.12355,7.50528 0.8125,11.875 -0.31105,4.36972 -0.9375,8 -0.9375,8 a 2.0002,2.0002 0 1 0 3.9375,0.6875 c 0,0 0.64199,-3.78452 0.96875,-8.375 0.32676,-4.59048 0.4894,-9.89669 -1.09375,-13.71875 -2.02461,-4.88783 -6.13988,-9.11219 -11.09375,-11.09375 -5.27748,-2.11099 -11.25137,-3.21046 -16.875,-3.21875 z"
       style="color:#000000;font-style:normal;font-variant:normal;font-weight:normal;font-stretch:normal;font-size:medium;line-height:normal;font-family:Sans;-inkscape-font-specification:Sans;text-indent:0;text-align:start;text-decoration:none;text-decoration-line:none;letter-spacing:normal;word-spacing:normal;text-transform:none;direction:ltr;block-progression:tb;writing-mode:lr-tb;baseline-shift:baseline;text-anchor:start;display:inline;overflow:visible;visibility:visible;fill:#cccccc;fill-opacity:1;stroke:none;stroke-width:4;marker:none;enable-background:accumulate"
       inkscape:export-filename="/home/diau/bagnur.png"
       inkscape:export-xdpi="450"
       inkscape:export-ydpi="450" />
    <path
       inkscape:connector-curvature="0"
       id="path3437"
       d="M 271.96875,427.84375 A 2.0002,2.0002 0 0 0 270,429.875 l 0,31 a 2.0002,2.0002 0 0 0 1,1.75 c 7.92613,4.52921 21.19505,4.34698 31.75,0.125 4.95387,-1.98156 9.06914,-6.20592 11.09375,-11.09375 1.58315,-3.82206 1.42051,-9.12827 1.09375,-13.71875 -0.32676,-4.59048 -0.96875,-8.40625 -0.96875,-8.40625 a 2.0002,2.0002 0 1 0 -3.9375,0.6875 c 0,0 0.62645,3.63028 0.9375,8 0.31105,4.36972 0.15557,9.56911 -0.8125,11.90625 -1.58337,3.82259 -5.10636,7.38629 -8.90625,8.90625 -9.02815,3.61126 -20.89978,3.50795 -27.25,0.46875 l 0,-29.625 a 2.0002,2.0002 0 0 0 -2.03125,-2.03125 z"
       style="color:#000000;font-style:normal;font-variant:normal;font-weight:normal;font-stretch:normal;font-size:medium;line-height:normal;font-family:Sans;-inkscape-font-specification:Sans;text-indent:0;text-align:start;text-decoration:none;text-decoration-line:none;letter-spacing:normal;word-spacing:normal;text-transform:none;direction:ltr;block-progression:tb;writing-mode:lr-tb;baseline-shift:baseline;text-anchor:start;display:inline;overflow:visible;visibility:visible;fill:#cccccc;fill-opacity:1;stroke:none;stroke-width:4;marker:none;enable-background:accumulate"
       inkscape:export-filename="/home/diau/bagnur.png"
       inkscape:export-xdpi="450"
       inkscape:export-ydpi="450" />
  </g>
</svg>
