<?xml version="1.0" encoding="UTF-8" standalone="no"?>
<!-- Created with Inkscape (http://www.inkscape.org/) -->

<svg
   xmlns:dc="http://purl.org/dc/elements/1.1/"
   xmlns:cc="http://creativecommons.org/ns#"
   xmlns:rdf="http://www.w3.org/1999/02/22-rdf-syntax-ns#"
   xmlns:svg="http://www.w3.org/2000/svg"
   xmlns="http://www.w3.org/2000/svg"
   xmlns:sodipodi="http://sodipodi.sourceforge.net/DTD/sodipodi-0.dtd"
   xmlns:inkscape="http://www.inkscape.org/namespaces/inkscape"
   width="110mm"
   height="30mm"
   viewBox="0 0 389.76377 106.29921"
   id="svg4421"
   version="1.1"
   inkscape:version="0.91 r13725"
   sodipodi:docname="smallogo.svg">
  <defs
     id="defs4423" />
  <sodipodi:namedview
     id="base"
     pagecolor="#ffffff"
     bordercolor="#666666"
     borderopacity="1.0"
     inkscape:pageopacity="0.0"
     inkscape:pageshadow="2"
     inkscape:zoom="1.4"
     inkscape:cx="33.819367"
     inkscape:cy="72.402392"
     inkscape:document-units="px"
     inkscape:current-layer="layer1"
     showgrid="false"
     inkscape:window-width="1920"
     inkscape:window-height="1026"
     inkscape:window-x="0"
     inkscape:window-y="0"
     inkscape:window-maximized="1" />
  <metadata
     id="metadata4426">
    <rdf:RDF>
      <cc:Work
         rdf:about="">
        <dc:format>image/svg+xml</dc:format>
        <dc:type
           rdf:resource="http://purl.org/dc/dcmitype/StillImage" />
        <dc:title></dc:title>
      </cc:Work>
    </rdf:RDF>
  </metadata>
  <g
     inkscape:label="Layer 1"
     inkscape:groupmode="layer"
     id="layer1"
     transform="translate(0,-946.06299)">
    <g
       id="g5007"
       transform="translate(-205,650)">
      <path
         sodipodi:nodetypes="cssssssc"
         inkscape:connector-curvature="0"
         id="path2987"
         d="m 225.76449,306.19007 c 0,0 -7.01587,38.0622 0,54.99999 1.80398,4.35521 5.64478,8.19601 9.99999,10 6.1592,2.55122 13.84081,2.55122 20,0 4.35521,-1.80399 8.19602,-5.64479 10,-10 1.27562,-3.0796 1.27562,-6.9204 0,-10 -1.80398,-4.35521 -5.64479,-9.07101 -10,-10.875 -6.15919,-2.55122 -20,0 -20,0"
         style="fill:none;stroke:#000000;stroke-width:4;stroke-linecap:round;stroke-linejoin:round;stroke-miterlimit:4;stroke-dasharray:none;stroke-opacity:1" />
      <path
         inkscape:connector-curvature="0"
         id="path3759"
         d="m 337.7642,391.01813 c 0,0 19.58784,4.04309 28,0 4.8093,-2.31147 8.23377,-7.46486 10,-12.5 3.03423,-8.64993 3.50793,-19.0311 0,-27.5 -1.80399,-4.35521 -5.64479,-8.19601 -10,-10 -6.1592,-2.55122 -13.8408,-2.55122 -20,0 -4.35521,1.80399 -8.19601,5.64479 -10,10 -1.27561,3.0796 -1.27561,6.9204 0,10 1.80399,4.35521 5.64479,9.16828 10,10.97227 6.1592,2.55122 20,0 20,0"
         style="fill:none;stroke:#000000;stroke-width:4;stroke-linecap:round;stroke-linejoin:round;stroke-miterlimit:4;stroke-dasharray:none;stroke-opacity:1"
         sodipodi:nodetypes="cssssssssc" />
      <path
         inkscape:connector-curvature="0"
         id="path3765"
         d="m 518.26449,339.54816 c -3.37138,0.18053 -6.58675,0.6781 -9.25,1.78125 -4.89838,2.02898 -9.06477,6.19537 -11.09375,11.09375 -1.5685,3.78671 -1.42153,8.87084 -1.09375,13.21875 0.32778,4.34791 0.96875,7.90625 0.96875,7.90625 a 2.0012813,2.0012813 0 1 0 3.9375,-0.71875 c 0,0 -0.62748,-3.35646 -0.9375,-7.46875 -0.31002,-4.11229 -0.17022,-9.03376 0.8125,-11.40625 1.579,-3.81204 5.09421,-7.32725 8.90625,-8.90625 3.91229,-1.62052 11.33516,-1.78197 17.5625,-1.3125 6.22734,0.46947 11.3125,1.4375 11.3125,1.4375 a 2.0041461,2.0041461 0 1 0 0.75,-3.9375 c 0,0 -5.28704,-0.98151 -11.75,-1.46875 -3.23148,-0.24362 -6.75362,-0.39928 -10.125,-0.21875 z"
         style="color:#000000;font-style:normal;font-variant:normal;font-weight:normal;font-stretch:normal;font-size:medium;line-height:normal;font-family:Sans;-inkscape-font-specification:Sans;text-indent:0;text-align:start;text-decoration:none;text-decoration-line:none;letter-spacing:normal;word-spacing:normal;text-transform:none;direction:ltr;block-progression:tb;writing-mode:lr-tb;baseline-shift:baseline;text-anchor:start;display:inline;overflow:visible;visibility:visible;fill:#000000;fill-opacity:1;stroke:none;stroke-width:4;marker:none;enable-background:accumulate" />
      <path
         inkscape:transform-center-y="-6.7537482"
         inkscape:transform-center-x="-7.80518"
         sodipodi:nodetypes="sccsccccs"
         inkscape:connector-curvature="0"
         id="path3769"
         d="m 554.76449,333.79385 c -4.27466,-1.63622 -9.78437,-1.41784 -16,3.99994 13.15715,-0.96784 11.66901,17.13468 33.92022,19.90732 -19.48417,2.31653 -23.4958,-17.325 -35.62811,-16.78078 -1.24256,0.0557 -2.3729,0.002 -3.14482,0.40772 l -0.89771,2.18256 c 1.33435,-0.53005 2.60309,-0.79293 3.75042,-0.71682 -2.99402,19.13256 35.84436,26.64078 48.32928,15.75829 -15.5195,-4.92138 -20.92499,-21.15861 -30.32928,-24.75823 z"
         style="fill:#000000;fill-opacity:1;stroke:none" />
      <g
         transform="matrix(1.3636359,0,0,1.0000001,150.30997,233.82787)"
         id="g3824">
        <circle
           style="fill:#000000;fill-opacity:1;stroke:none"
           id="path3806"
           transform="matrix(2,0,0,2,-50,-173.36218)"
           cx="60"
           cy="152.36218"
           r="1" />
        <circle
           transform="matrix(2,0,0,2,-50,-191.36218)"
           id="path3808"
           style="fill:#000000;fill-opacity:1;stroke:none"
           cx="60"
           cy="152.36218"
           r="1" />
        <circle
           transform="matrix(0,2,-2,0,365.72437,2.3621852)"
           id="path3810"
           style="fill:#000000;fill-opacity:1;stroke:none"
           cx="60"
           cy="152.36218"
           r="1" />
        <circle
           style="fill:#000000;fill-opacity:1;stroke:none"
           id="path3812"
           transform="matrix(0,2,-2,0,383.72437,2.3621852)"
           cx="60"
           cy="152.36218"
           r="1" />
        <circle
           style="fill:#000000;fill-opacity:1;stroke:none"
           id="path3814"
           transform="matrix(-1.4142136,1.4142136,-1.4142136,-1.4142136,363.96152,246.61808)"
           cx="60"
           cy="152.36218"
           r="1" />
        <circle
           transform="matrix(-1.4142136,1.4142136,-1.4142136,-1.4142136,376.68944,259.346)"
           id="path3816"
           style="fill:#000000;fill-opacity:1;stroke:none"
           cx="60"
           cy="152.36218"
           r="1" />
        <circle
           transform="matrix(-1.4142136,-1.4142136,1.4142136,-1.4142136,-54.255902,416.32371)"
           id="path3818"
           style="fill:#000000;fill-opacity:1;stroke:none"
           cx="60"
           cy="152.36218"
           r="1" />
        <circle
           style="fill:#000000;fill-opacity:1;stroke:none"
           id="path3820"
           transform="matrix(-1.4142136,-1.4142136,1.4142136,-1.4142136,-66.983822,429.05163)"
           cx="60"
           cy="152.36218"
           r="1" />
        <circle
           style="fill:#000000;fill-opacity:1;stroke:none"
           id="path3822"
           transform="matrix(-1.4142136,-1.4142136,1.4142136,-1.4142136,-60.619855,422.68767)"
           inkscape:transform-center-x="-5.3639528"
           inkscape:transform-center-y="-6.3639594"
           cx="60"
           cy="152.36218"
           r="1" />
      </g>
      <path
         inkscape:connector-curvature="0"
         id="path3838"
         d="m 320.76449,372.05618 c 0,0 2.67878,-14.53284 0,-20.99999 -1.804,-4.35521 -5.6448,-8.19601 -10.00001,-10 -6.1592,-2.55121 -13.90324,-2.69701 -20,0 -4.53174,2.00471 -8.21312,6.37803 -10,11 -1.20199,3.10907 -1.27561,6.9204 0,10 1.80399,4.35521 5.64479,8.19601 10,10 6.1592,2.55122 20,0 20,0"
         style="fill:none;stroke:#000000;stroke-width:4;stroke-linecap:round;stroke-linejoin:round;stroke-miterlimit:4;stroke-dasharray:none;stroke-opacity:1"
         sodipodi:nodetypes="cssssssc" />
      <path
         inkscape:connector-curvature="0"
         id="path3840"
         d="m 430.76449,373.19006 c 0,0 2.55122,-14.8408 0,-21 -1.80399,-4.35521 -5.62312,-8.24924 -10,-10 -10,-4 -23,-4 -30,0 l 0,31"
         style="fill:none;stroke:#000000;stroke-width:4;stroke-linecap:round;stroke-linejoin:round;stroke-miterlimit:4;stroke-dasharray:none;stroke-opacity:1"
         sodipodi:nodetypes="csscc" />
      <path
         sodipodi:nodetypes="csscc"
         style="fill:none;stroke:#000000;stroke-width:4;stroke-linecap:round;stroke-linejoin:round;stroke-miterlimit:4;stroke-dasharray:none;stroke-opacity:1"
         d="m 484.76449,342.19006 c 0,0 2.55122,14.8408 0,21 -1.80399,4.35521 -5.62312,8.24924 -10,10 -10,4 -23,4 -30,0 l 0,-31"
         id="path3852"
         inkscape:connector-curvature="0" />
    </g>
  </g>
</svg>
