G04 MADE WITH FRITZING*
G04 WWW.FRITZING.ORG*
G04 DOUBLE SIDED*
G04 HOLES PLATED*
G04 CONTOUR ON CENTER OF CONTOUR VECTOR*
%ASAXBY*%
%FSLAX23Y23*%
%MOIN*%
%OFA0B0*%
%SFA1.0B1.0*%
%ADD10C,0.088000*%
%ADD11C,0.088740*%
%ADD12C,0.096614*%
%ADD13C,0.085433*%
%ADD14C,0.092000*%
%ADD15C,0.085000*%
%ADD16R,0.092000X0.092000*%
%ADD17R,0.088000X0.088000*%
%ADD18R,0.001000X0.001000*%
%LNMASK0*%
G90*
G70*
G54D10*
X1573Y171D03*
X1473Y171D03*
X1373Y171D03*
X1273Y171D03*
X1573Y171D03*
X1473Y171D03*
X1373Y171D03*
X1273Y171D03*
X1573Y771D03*
X1473Y771D03*
X1373Y771D03*
X1273Y771D03*
X1173Y771D03*
X1073Y771D03*
X973Y771D03*
X873Y771D03*
X773Y771D03*
X1573Y771D03*
X1473Y771D03*
X1373Y771D03*
X1273Y771D03*
X1173Y771D03*
X1073Y771D03*
X973Y771D03*
X873Y771D03*
X773Y771D03*
X1473Y1371D03*
X1373Y1371D03*
X1473Y1371D03*
X1373Y1371D03*
X1073Y1371D03*
X973Y1371D03*
X873Y1371D03*
X773Y1371D03*
X1073Y1371D03*
X973Y1371D03*
X873Y1371D03*
X773Y1371D03*
X1273Y1571D03*
X1173Y1571D03*
X1073Y1571D03*
X973Y1571D03*
X1273Y1571D03*
X1173Y1571D03*
X1073Y1571D03*
X973Y1571D03*
X273Y471D03*
X173Y471D03*
X273Y471D03*
X173Y471D03*
X273Y171D03*
X173Y171D03*
X273Y171D03*
X173Y171D03*
G54D11*
X1925Y2274D03*
X2173Y2274D03*
X2044Y2471D03*
G54D12*
X2273Y71D03*
X73Y71D03*
X2273Y2571D03*
X73Y2571D03*
G54D13*
X873Y571D03*
X773Y571D03*
G54D14*
X473Y971D03*
X473Y1071D03*
X473Y1171D03*
G54D15*
X1273Y671D03*
X1273Y271D03*
X1373Y671D03*
X1373Y271D03*
X1573Y671D03*
X1573Y271D03*
G54D10*
X2173Y1971D03*
X2173Y1771D03*
X2173Y1571D03*
G54D16*
X473Y971D03*
G54D17*
X2173Y1971D03*
G54D18*
X1996Y2515D02*
X2089Y2515D01*
X1992Y2514D02*
X2093Y2514D01*
X1989Y2513D02*
X2096Y2513D01*
X1986Y2512D02*
X2099Y2512D01*
X1984Y2511D02*
X2101Y2511D01*
X1982Y2510D02*
X2103Y2510D01*
X1980Y2509D02*
X2105Y2509D01*
X1979Y2508D02*
X2106Y2508D01*
X1977Y2507D02*
X2108Y2507D01*
X1976Y2506D02*
X2109Y2506D01*
X1975Y2505D02*
X2110Y2505D01*
X1974Y2504D02*
X2111Y2504D01*
X1973Y2503D02*
X2113Y2503D01*
X1972Y2502D02*
X2113Y2502D01*
X1971Y2501D02*
X2114Y2501D01*
X1970Y2500D02*
X2115Y2500D01*
X1969Y2499D02*
X2116Y2499D01*
X1968Y2498D02*
X2117Y2498D01*
X1968Y2497D02*
X2118Y2497D01*
X1967Y2496D02*
X2118Y2496D01*
X1966Y2495D02*
X2119Y2495D01*
X1966Y2494D02*
X2119Y2494D01*
X1965Y2493D02*
X2120Y2493D01*
X1965Y2492D02*
X2121Y2492D01*
X1964Y2491D02*
X2121Y2491D01*
X1964Y2490D02*
X2122Y2490D01*
X1963Y2489D02*
X2122Y2489D01*
X1963Y2488D02*
X2122Y2488D01*
X1962Y2487D02*
X2123Y2487D01*
X1962Y2486D02*
X2041Y2486D01*
X2044Y2486D02*
X2123Y2486D01*
X1962Y2485D02*
X2036Y2485D01*
X2049Y2485D02*
X2124Y2485D01*
X1961Y2484D02*
X2034Y2484D01*
X2051Y2484D02*
X2124Y2484D01*
X1961Y2483D02*
X2033Y2483D01*
X2052Y2483D02*
X2124Y2483D01*
X1961Y2482D02*
X2032Y2482D01*
X2053Y2482D02*
X2124Y2482D01*
X1960Y2481D02*
X2031Y2481D01*
X2054Y2481D02*
X2125Y2481D01*
X1960Y2480D02*
X2030Y2480D01*
X2055Y2480D02*
X2125Y2480D01*
X1960Y2479D02*
X2029Y2479D01*
X2056Y2479D02*
X2125Y2479D01*
X1960Y2478D02*
X2029Y2478D01*
X2056Y2478D02*
X2125Y2478D01*
X1960Y2477D02*
X2028Y2477D01*
X2057Y2477D02*
X2125Y2477D01*
X1960Y2476D02*
X2028Y2476D01*
X2057Y2476D02*
X2126Y2476D01*
X1960Y2475D02*
X2028Y2475D01*
X2057Y2475D02*
X2126Y2475D01*
X1959Y2474D02*
X2028Y2474D01*
X2058Y2474D02*
X2126Y2474D01*
X1959Y2473D02*
X2028Y2473D01*
X2058Y2473D02*
X2126Y2473D01*
X1959Y2472D02*
X2027Y2472D01*
X2058Y2472D02*
X2126Y2472D01*
X1959Y2471D02*
X2027Y2471D01*
X2058Y2471D02*
X2126Y2471D01*
X1959Y2470D02*
X2028Y2470D01*
X2058Y2470D02*
X2126Y2470D01*
X1959Y2469D02*
X2028Y2469D01*
X2058Y2469D02*
X2126Y2469D01*
X1960Y2468D02*
X2028Y2468D01*
X2057Y2468D02*
X2126Y2468D01*
X1960Y2467D02*
X2028Y2467D01*
X2057Y2467D02*
X2126Y2467D01*
X1960Y2466D02*
X2028Y2466D01*
X2057Y2466D02*
X2125Y2466D01*
X1960Y2465D02*
X2029Y2465D01*
X2056Y2465D02*
X2125Y2465D01*
X1960Y2464D02*
X2029Y2464D01*
X2056Y2464D02*
X2125Y2464D01*
X1960Y2463D02*
X2030Y2463D01*
X2055Y2463D02*
X2125Y2463D01*
X1960Y2462D02*
X2031Y2462D01*
X2054Y2462D02*
X2125Y2462D01*
X1961Y2461D02*
X2032Y2461D01*
X2053Y2461D02*
X2124Y2461D01*
X1961Y2460D02*
X2033Y2460D01*
X2052Y2460D02*
X2124Y2460D01*
X1961Y2459D02*
X2034Y2459D01*
X2051Y2459D02*
X2124Y2459D01*
X1962Y2458D02*
X2036Y2458D01*
X2049Y2458D02*
X2124Y2458D01*
X1962Y2457D02*
X2039Y2457D01*
X2046Y2457D02*
X2123Y2457D01*
X1962Y2456D02*
X2123Y2456D01*
X1963Y2455D02*
X2123Y2455D01*
X1963Y2454D02*
X2122Y2454D01*
X1963Y2453D02*
X2122Y2453D01*
X1964Y2452D02*
X2121Y2452D01*
X1964Y2451D02*
X2121Y2451D01*
X1965Y2450D02*
X2120Y2450D01*
X1966Y2449D02*
X2120Y2449D01*
X1966Y2448D02*
X2119Y2448D01*
X1967Y2447D02*
X2118Y2447D01*
X1967Y2446D02*
X2118Y2446D01*
X1968Y2445D02*
X2117Y2445D01*
X1969Y2444D02*
X2116Y2444D01*
X1970Y2443D02*
X2115Y2443D01*
X1971Y2442D02*
X2115Y2442D01*
X1971Y2441D02*
X2114Y2441D01*
X1972Y2440D02*
X2113Y2440D01*
X1973Y2439D02*
X2112Y2439D01*
X1975Y2438D02*
X2111Y2438D01*
X1976Y2437D02*
X2109Y2437D01*
X1977Y2436D02*
X2108Y2436D01*
X1978Y2435D02*
X2107Y2435D01*
X1980Y2434D02*
X2105Y2434D01*
X1982Y2433D02*
X2103Y2433D01*
X1984Y2432D02*
X2102Y2432D01*
X1986Y2431D02*
X2099Y2431D01*
X1988Y2430D02*
X2097Y2430D01*
X1991Y2429D02*
X2094Y2429D01*
X1995Y2428D02*
X2090Y2428D01*
X1920Y2358D02*
X1929Y2358D01*
X2168Y2358D02*
X2177Y2358D01*
X1915Y2357D02*
X1934Y2357D01*
X2163Y2357D02*
X2182Y2357D01*
X1911Y2356D02*
X1938Y2356D01*
X2159Y2356D02*
X2186Y2356D01*
X1908Y2355D02*
X1941Y2355D01*
X2156Y2355D02*
X2189Y2355D01*
X1906Y2354D02*
X1943Y2354D01*
X2154Y2354D02*
X2191Y2354D01*
X1904Y2353D02*
X1945Y2353D01*
X2152Y2353D02*
X2193Y2353D01*
X1902Y2352D02*
X1947Y2352D01*
X2150Y2352D02*
X2195Y2352D01*
X1901Y2351D02*
X1948Y2351D01*
X2149Y2351D02*
X2196Y2351D01*
X1899Y2350D02*
X1950Y2350D01*
X2147Y2350D02*
X2198Y2350D01*
X1898Y2349D02*
X1951Y2349D01*
X2146Y2349D02*
X2199Y2349D01*
X1897Y2348D02*
X1952Y2348D01*
X2145Y2348D02*
X2200Y2348D01*
X1895Y2347D02*
X1954Y2347D01*
X2143Y2347D02*
X2201Y2347D01*
X1894Y2346D02*
X1955Y2346D01*
X2142Y2346D02*
X2203Y2346D01*
X1893Y2345D02*
X1956Y2345D01*
X2141Y2345D02*
X2204Y2345D01*
X1892Y2344D02*
X1957Y2344D01*
X2140Y2344D02*
X2205Y2344D01*
X1891Y2343D02*
X1957Y2343D01*
X2139Y2343D02*
X2205Y2343D01*
X1891Y2342D02*
X1958Y2342D01*
X2139Y2342D02*
X2206Y2342D01*
X1890Y2341D02*
X1959Y2341D01*
X2138Y2341D02*
X2207Y2341D01*
X1889Y2340D02*
X1960Y2340D01*
X2137Y2340D02*
X2208Y2340D01*
X1888Y2339D02*
X1961Y2339D01*
X2136Y2339D02*
X2209Y2339D01*
X1888Y2338D02*
X1961Y2338D01*
X2136Y2338D02*
X2209Y2338D01*
X1887Y2337D02*
X1962Y2337D01*
X2135Y2337D02*
X2210Y2337D01*
X1887Y2336D02*
X1962Y2336D01*
X2135Y2336D02*
X2210Y2336D01*
X1886Y2335D02*
X1963Y2335D01*
X2134Y2335D02*
X2211Y2335D01*
X1886Y2334D02*
X1963Y2334D01*
X2134Y2334D02*
X2211Y2334D01*
X1885Y2333D02*
X1964Y2333D01*
X2133Y2333D02*
X2212Y2333D01*
X1885Y2332D02*
X1964Y2332D01*
X2133Y2332D02*
X2212Y2332D01*
X1884Y2331D02*
X1965Y2331D01*
X2132Y2331D02*
X2213Y2331D01*
X1884Y2330D02*
X1965Y2330D01*
X2132Y2330D02*
X2213Y2330D01*
X1883Y2329D02*
X1966Y2329D01*
X2131Y2329D02*
X2214Y2329D01*
X1883Y2328D02*
X1966Y2328D01*
X2131Y2328D02*
X2214Y2328D01*
X1883Y2327D02*
X1966Y2327D01*
X2131Y2327D02*
X2214Y2327D01*
X1882Y2326D02*
X1967Y2326D01*
X2130Y2326D02*
X2215Y2326D01*
X1882Y2325D02*
X1967Y2325D01*
X2130Y2325D02*
X2215Y2325D01*
X1882Y2324D02*
X1967Y2324D01*
X2130Y2324D02*
X2215Y2324D01*
X1882Y2323D02*
X1967Y2323D01*
X2130Y2323D02*
X2215Y2323D01*
X1881Y2322D02*
X1968Y2322D01*
X2129Y2322D02*
X2216Y2322D01*
X1881Y2321D02*
X1968Y2321D01*
X2129Y2321D02*
X2216Y2321D01*
X1881Y2320D02*
X1968Y2320D01*
X2129Y2320D02*
X2216Y2320D01*
X1881Y2319D02*
X1968Y2319D01*
X2129Y2319D02*
X2216Y2319D01*
X1881Y2318D02*
X1968Y2318D01*
X2129Y2318D02*
X2216Y2318D01*
X1881Y2317D02*
X1968Y2317D01*
X2129Y2317D02*
X2216Y2317D01*
X1881Y2316D02*
X1968Y2316D01*
X2129Y2316D02*
X2216Y2316D01*
X1881Y2315D02*
X1968Y2315D01*
X2129Y2315D02*
X2216Y2315D01*
X1881Y2314D02*
X1968Y2314D01*
X2129Y2314D02*
X2216Y2314D01*
X1881Y2313D02*
X1968Y2313D01*
X2129Y2313D02*
X2216Y2313D01*
X1881Y2312D02*
X1968Y2312D01*
X2129Y2312D02*
X2216Y2312D01*
X1881Y2311D02*
X1968Y2311D01*
X2129Y2311D02*
X2216Y2311D01*
X1881Y2310D02*
X1968Y2310D01*
X2129Y2310D02*
X2216Y2310D01*
X1881Y2309D02*
X1968Y2309D01*
X2129Y2309D02*
X2216Y2309D01*
X1881Y2308D02*
X1968Y2308D01*
X2129Y2308D02*
X2216Y2308D01*
X1881Y2307D02*
X1968Y2307D01*
X2129Y2307D02*
X2216Y2307D01*
X1881Y2306D02*
X1968Y2306D01*
X2129Y2306D02*
X2216Y2306D01*
X1881Y2305D02*
X1968Y2305D01*
X2129Y2305D02*
X2216Y2305D01*
X1881Y2304D02*
X1968Y2304D01*
X2129Y2304D02*
X2216Y2304D01*
X1881Y2303D02*
X1968Y2303D01*
X2129Y2303D02*
X2216Y2303D01*
X1881Y2302D02*
X1968Y2302D01*
X2129Y2302D02*
X2216Y2302D01*
X1881Y2301D02*
X1968Y2301D01*
X2129Y2301D02*
X2216Y2301D01*
X1881Y2300D02*
X1968Y2300D01*
X2129Y2300D02*
X2216Y2300D01*
X1881Y2299D02*
X1968Y2299D01*
X2129Y2299D02*
X2216Y2299D01*
X1881Y2298D02*
X1968Y2298D01*
X2129Y2298D02*
X2216Y2298D01*
X1881Y2297D02*
X1968Y2297D01*
X2129Y2297D02*
X2216Y2297D01*
X1881Y2296D02*
X1968Y2296D01*
X2129Y2296D02*
X2216Y2296D01*
X1881Y2295D02*
X1968Y2295D01*
X2129Y2295D02*
X2216Y2295D01*
X1881Y2294D02*
X1968Y2294D01*
X2129Y2294D02*
X2216Y2294D01*
X1881Y2293D02*
X1968Y2293D01*
X2129Y2293D02*
X2216Y2293D01*
X1881Y2292D02*
X1968Y2292D01*
X2129Y2292D02*
X2216Y2292D01*
X1881Y2291D02*
X1968Y2291D01*
X2129Y2291D02*
X2216Y2291D01*
X1881Y2290D02*
X1968Y2290D01*
X2129Y2290D02*
X2216Y2290D01*
X1881Y2289D02*
X1921Y2289D01*
X1928Y2289D02*
X1968Y2289D01*
X2129Y2289D02*
X2169Y2289D01*
X2176Y2289D02*
X2216Y2289D01*
X1881Y2288D02*
X1918Y2288D01*
X1931Y2288D02*
X1968Y2288D01*
X2129Y2288D02*
X2166Y2288D01*
X2179Y2288D02*
X2216Y2288D01*
X1881Y2287D02*
X1916Y2287D01*
X1933Y2287D02*
X1968Y2287D01*
X2129Y2287D02*
X2164Y2287D01*
X2181Y2287D02*
X2216Y2287D01*
X1881Y2286D02*
X1915Y2286D01*
X1934Y2286D02*
X1968Y2286D01*
X2129Y2286D02*
X2163Y2286D01*
X2182Y2286D02*
X2216Y2286D01*
X1881Y2285D02*
X1914Y2285D01*
X1935Y2285D02*
X1968Y2285D01*
X2129Y2285D02*
X2162Y2285D01*
X2183Y2285D02*
X2216Y2285D01*
X1881Y2284D02*
X1913Y2284D01*
X1936Y2284D02*
X1968Y2284D01*
X2129Y2284D02*
X2161Y2284D01*
X2184Y2284D02*
X2216Y2284D01*
X1881Y2283D02*
X1912Y2283D01*
X1937Y2283D02*
X1968Y2283D01*
X2129Y2283D02*
X2160Y2283D01*
X2185Y2283D02*
X2216Y2283D01*
X1881Y2282D02*
X1911Y2282D01*
X1938Y2282D02*
X1968Y2282D01*
X2129Y2282D02*
X2159Y2282D01*
X2186Y2282D02*
X2216Y2282D01*
X1881Y2281D02*
X1911Y2281D01*
X1938Y2281D02*
X1968Y2281D01*
X2129Y2281D02*
X2159Y2281D01*
X2186Y2281D02*
X2216Y2281D01*
X1881Y2280D02*
X1910Y2280D01*
X1939Y2280D02*
X1968Y2280D01*
X2129Y2280D02*
X2158Y2280D01*
X2187Y2280D02*
X2216Y2280D01*
X1881Y2279D02*
X1910Y2279D01*
X1939Y2279D02*
X1968Y2279D01*
X2129Y2279D02*
X2158Y2279D01*
X2187Y2279D02*
X2216Y2279D01*
X1881Y2278D02*
X1910Y2278D01*
X1939Y2278D02*
X1968Y2278D01*
X2129Y2278D02*
X2158Y2278D01*
X2187Y2278D02*
X2216Y2278D01*
X1881Y2277D02*
X1910Y2277D01*
X1939Y2277D02*
X1968Y2277D01*
X2129Y2277D02*
X2157Y2277D01*
X2187Y2277D02*
X2216Y2277D01*
X1881Y2276D02*
X1909Y2276D01*
X1940Y2276D02*
X1968Y2276D01*
X2129Y2276D02*
X2157Y2276D01*
X2188Y2276D02*
X2216Y2276D01*
X1881Y2275D02*
X1909Y2275D01*
X1940Y2275D02*
X1968Y2275D01*
X2129Y2275D02*
X2157Y2275D01*
X2188Y2275D02*
X2216Y2275D01*
X1881Y2274D02*
X1909Y2274D01*
X1940Y2274D02*
X1968Y2274D01*
X2129Y2274D02*
X2157Y2274D01*
X2188Y2274D02*
X2216Y2274D01*
X1881Y2273D02*
X1909Y2273D01*
X1940Y2273D02*
X1968Y2273D01*
X2129Y2273D02*
X2157Y2273D01*
X2187Y2273D02*
X2216Y2273D01*
X1881Y2272D02*
X1910Y2272D01*
X1939Y2272D02*
X1968Y2272D01*
X2129Y2272D02*
X2158Y2272D01*
X2187Y2272D02*
X2216Y2272D01*
X1881Y2271D02*
X1910Y2271D01*
X1939Y2271D02*
X1968Y2271D01*
X2129Y2271D02*
X2158Y2271D01*
X2187Y2271D02*
X2216Y2271D01*
X1881Y2270D02*
X1910Y2270D01*
X1939Y2270D02*
X1968Y2270D01*
X2129Y2270D02*
X2158Y2270D01*
X2187Y2270D02*
X2216Y2270D01*
X1881Y2269D02*
X1910Y2269D01*
X1939Y2269D02*
X1968Y2269D01*
X2129Y2269D02*
X2158Y2269D01*
X2187Y2269D02*
X2216Y2269D01*
X1881Y2268D02*
X1911Y2268D01*
X1938Y2268D02*
X1968Y2268D01*
X2129Y2268D02*
X2159Y2268D01*
X2186Y2268D02*
X2216Y2268D01*
X1881Y2267D02*
X1911Y2267D01*
X1938Y2267D02*
X1968Y2267D01*
X2129Y2267D02*
X2159Y2267D01*
X2186Y2267D02*
X2216Y2267D01*
X1881Y2266D02*
X1912Y2266D01*
X1937Y2266D02*
X1968Y2266D01*
X2129Y2266D02*
X2160Y2266D01*
X2185Y2266D02*
X2216Y2266D01*
X1881Y2265D02*
X1913Y2265D01*
X1936Y2265D02*
X1968Y2265D01*
X2129Y2265D02*
X2161Y2265D01*
X2184Y2265D02*
X2216Y2265D01*
X1881Y2264D02*
X1914Y2264D01*
X1935Y2264D02*
X1968Y2264D01*
X2129Y2264D02*
X2162Y2264D01*
X2183Y2264D02*
X2216Y2264D01*
X1881Y2263D02*
X1915Y2263D01*
X1934Y2263D02*
X1968Y2263D01*
X2129Y2263D02*
X2163Y2263D01*
X2182Y2263D02*
X2216Y2263D01*
X1881Y2262D02*
X1916Y2262D01*
X1932Y2262D02*
X1968Y2262D01*
X2129Y2262D02*
X2164Y2262D01*
X2180Y2262D02*
X2216Y2262D01*
X1881Y2261D02*
X1918Y2261D01*
X1931Y2261D02*
X1968Y2261D01*
X2129Y2261D02*
X2166Y2261D01*
X2179Y2261D02*
X2216Y2261D01*
X1881Y2260D02*
X1923Y2260D01*
X1926Y2260D02*
X1968Y2260D01*
X2129Y2260D02*
X2171Y2260D01*
X2174Y2260D02*
X2216Y2260D01*
X1881Y2259D02*
X1968Y2259D01*
X2129Y2259D02*
X2216Y2259D01*
X1881Y2258D02*
X1968Y2258D01*
X2129Y2258D02*
X2216Y2258D01*
X1881Y2257D02*
X1968Y2257D01*
X2129Y2257D02*
X2216Y2257D01*
X1881Y2256D02*
X1968Y2256D01*
X2129Y2256D02*
X2216Y2256D01*
X1881Y2255D02*
X1968Y2255D01*
X2129Y2255D02*
X2216Y2255D01*
X1881Y2254D02*
X1968Y2254D01*
X2129Y2254D02*
X2216Y2254D01*
X1881Y2253D02*
X1968Y2253D01*
X2129Y2253D02*
X2216Y2253D01*
X1881Y2252D02*
X1968Y2252D01*
X2129Y2252D02*
X2216Y2252D01*
X1881Y2251D02*
X1968Y2251D01*
X2129Y2251D02*
X2216Y2251D01*
X1881Y2250D02*
X1968Y2250D01*
X2129Y2250D02*
X2216Y2250D01*
X1881Y2249D02*
X1968Y2249D01*
X2129Y2249D02*
X2216Y2249D01*
X1881Y2248D02*
X1968Y2248D01*
X2129Y2248D02*
X2216Y2248D01*
X1881Y2247D02*
X1968Y2247D01*
X2129Y2247D02*
X2216Y2247D01*
X1881Y2246D02*
X1968Y2246D01*
X2129Y2246D02*
X2216Y2246D01*
X1881Y2245D02*
X1968Y2245D01*
X2129Y2245D02*
X2216Y2245D01*
X1881Y2244D02*
X1968Y2244D01*
X2129Y2244D02*
X2216Y2244D01*
X1881Y2243D02*
X1968Y2243D01*
X2129Y2243D02*
X2216Y2243D01*
X1881Y2242D02*
X1968Y2242D01*
X2129Y2242D02*
X2216Y2242D01*
X1881Y2241D02*
X1968Y2241D01*
X2129Y2241D02*
X2216Y2241D01*
X1881Y2240D02*
X1968Y2240D01*
X2129Y2240D02*
X2216Y2240D01*
X1881Y2239D02*
X1968Y2239D01*
X2129Y2239D02*
X2216Y2239D01*
X1881Y2238D02*
X1968Y2238D01*
X2129Y2238D02*
X2216Y2238D01*
X1881Y2237D02*
X1968Y2237D01*
X2129Y2237D02*
X2216Y2237D01*
X1881Y2236D02*
X1968Y2236D01*
X2129Y2236D02*
X2216Y2236D01*
X1881Y2235D02*
X1968Y2235D01*
X2129Y2235D02*
X2216Y2235D01*
X1881Y2234D02*
X1968Y2234D01*
X2129Y2234D02*
X2216Y2234D01*
X1881Y2233D02*
X1968Y2233D01*
X2129Y2233D02*
X2216Y2233D01*
X1881Y2232D02*
X1968Y2232D01*
X2129Y2232D02*
X2216Y2232D01*
X1881Y2231D02*
X1968Y2231D01*
X2129Y2231D02*
X2216Y2231D01*
X1881Y2230D02*
X1968Y2230D01*
X2129Y2230D02*
X2216Y2230D01*
X1881Y2229D02*
X1968Y2229D01*
X2129Y2229D02*
X2216Y2229D01*
X1881Y2228D02*
X1968Y2228D01*
X2129Y2228D02*
X2216Y2228D01*
X1881Y2227D02*
X1968Y2227D01*
X2129Y2227D02*
X2215Y2227D01*
X1882Y2226D02*
X1967Y2226D01*
X2130Y2226D02*
X2215Y2226D01*
X1882Y2225D02*
X1967Y2225D01*
X2130Y2225D02*
X2215Y2225D01*
X1882Y2224D02*
X1967Y2224D01*
X2130Y2224D02*
X2215Y2224D01*
X1882Y2223D02*
X1967Y2223D01*
X2130Y2223D02*
X2214Y2223D01*
X1883Y2222D02*
X1966Y2222D01*
X2131Y2222D02*
X2214Y2222D01*
X1883Y2221D02*
X1966Y2221D01*
X2131Y2221D02*
X2214Y2221D01*
X1883Y2220D02*
X1965Y2220D01*
X2131Y2220D02*
X2213Y2220D01*
X1884Y2219D02*
X1965Y2219D01*
X2132Y2219D02*
X2213Y2219D01*
X1884Y2218D02*
X1965Y2218D01*
X2132Y2218D02*
X2213Y2218D01*
X1885Y2217D02*
X1964Y2217D01*
X2133Y2217D02*
X2212Y2217D01*
X1885Y2216D02*
X1964Y2216D01*
X2133Y2216D02*
X2212Y2216D01*
X1886Y2215D02*
X1963Y2215D01*
X2134Y2215D02*
X2211Y2215D01*
X1886Y2214D02*
X1963Y2214D01*
X2134Y2214D02*
X2211Y2214D01*
X1887Y2213D02*
X1962Y2213D01*
X2135Y2213D02*
X2210Y2213D01*
X1887Y2212D02*
X1962Y2212D01*
X2135Y2212D02*
X2210Y2212D01*
X1888Y2211D02*
X1961Y2211D01*
X2136Y2211D02*
X2209Y2211D01*
X1889Y2210D02*
X1960Y2210D01*
X2137Y2210D02*
X2208Y2210D01*
X1889Y2209D02*
X1960Y2209D01*
X2137Y2209D02*
X2208Y2209D01*
X1890Y2208D02*
X1959Y2208D01*
X2138Y2208D02*
X2207Y2208D01*
X1891Y2207D02*
X1958Y2207D01*
X2139Y2207D02*
X2206Y2207D01*
X1892Y2206D02*
X1957Y2206D01*
X2140Y2206D02*
X2205Y2206D01*
X1893Y2205D02*
X1956Y2205D01*
X2141Y2205D02*
X2204Y2205D01*
X1894Y2204D02*
X1955Y2204D01*
X2142Y2204D02*
X2203Y2204D01*
X1895Y2203D02*
X1954Y2203D01*
X2143Y2203D02*
X2202Y2203D01*
X1896Y2202D02*
X1953Y2202D01*
X2144Y2202D02*
X2201Y2202D01*
X1897Y2201D02*
X1952Y2201D01*
X2145Y2201D02*
X2200Y2201D01*
X1898Y2200D02*
X1951Y2200D01*
X2146Y2200D02*
X2199Y2200D01*
X1900Y2199D02*
X1949Y2199D01*
X2148Y2199D02*
X2197Y2199D01*
X1901Y2198D02*
X1948Y2198D01*
X2149Y2198D02*
X2196Y2198D01*
X1903Y2197D02*
X1946Y2197D01*
X2151Y2197D02*
X2194Y2197D01*
X1905Y2196D02*
X1944Y2196D01*
X2153Y2196D02*
X2192Y2196D01*
X1907Y2195D02*
X1942Y2195D01*
X2155Y2195D02*
X2190Y2195D01*
X1909Y2194D02*
X1940Y2194D01*
X2157Y2194D02*
X2188Y2194D01*
X1912Y2193D02*
X1937Y2193D01*
X2160Y2193D02*
X2185Y2193D01*
X1916Y2192D02*
X1933Y2192D01*
X2164Y2192D02*
X2181Y2192D01*
X1923Y2191D02*
X1926Y2191D01*
X2171Y2191D02*
X2174Y2191D01*
D02*
G04 End of Mask0*
M02*