; NON-PLATED HOLES START AT T1
; THROUGH (PLATED) HOLES START AT T100
M48
INCH
T1C0.019569
T2C0.086614
T100C0.035433
T101C0.042000
T102C0.039370
T103C0.038000
T104C0.035000
%
T1
X014070Y023644
X014693Y024100
X014381Y023549
X014070Y024100
X013941Y023872
X014381Y024195
X014822Y023872
X014693Y023644
X014381Y023872
T2
X000727Y025706
X022727Y025706
X000727Y000706
X022727Y000706
T100
X008727Y005706
X007727Y005706
T101
X004727Y009706
X004727Y010706
X004727Y011706
T102
X019254Y021738
X021734Y021738
X020435Y023706
T103
X013727Y013706
X010727Y013706
X014727Y013706
X021727Y015706
X001727Y001706
X002727Y001706
X001727Y004706
X013727Y001706
X002727Y004706
X012727Y001706
X014727Y001706
X015727Y001706
X008727Y007706
X009727Y015706
X007727Y007706
X009727Y007706
X021727Y019706
X008727Y013706
X011727Y015706
X007727Y013706
X009727Y013706
X011727Y007706
X013727Y007706
X010727Y015706
X012727Y015706
X021727Y017706
X010727Y007706
X012727Y007706
X014727Y007706
X015727Y007706
T104
X013727Y006706
X012727Y006706
X015727Y002706
X013727Y002706
X012727Y002706
X015727Y006706
T00
M30
