; NON-PLATED HOLES START AT T1
; THROUGH (PLATED) HOLES START AT T100
M48
INCH
T1C0.019569
T2C0.086614
T100C0.042000
T101C0.039370
T102C0.038000
T103C0.035000
T104C0.035433
%
T1
X012723Y023744
X013164Y024067
X012723Y024390
X012723Y024067
X012412Y024295
X012412Y023839
X013035Y024295
X013035Y023839
X012283Y024067
T2
X000727Y000706
X022727Y000706
X000727Y025706
X022727Y025706
T100
X004727Y009706
X004727Y010706
X004727Y011706
T101
X021734Y022738
X020435Y024706
X019254Y022738
T102
X008727Y007706
X009727Y015706
X007727Y007706
X009727Y007706
X021727Y019706
X010727Y015706
X008727Y013706
X010727Y007706
X011727Y015706
X007727Y013706
X009727Y013706
X011727Y007706
X013727Y007706
X015727Y007706
X012727Y015706
X021727Y017706
X012727Y007706
X014727Y007706
X010727Y013706
X013727Y013706
X014727Y013706
X021727Y015706
X001727Y001706
X002727Y001706
X001727Y004706
X013727Y001706
X015727Y001706
X002727Y004706
X012727Y001706
X014727Y001706
T103
X015727Y006706
X013727Y006706
X012727Y006706
X015727Y002706
X013727Y002706
X012727Y002706
T104
X008727Y005706
X007727Y005706
T00
M30
