G04 MADE WITH FRITZING*
G04 WWW.FRITZING.ORG*
G04 DOUBLE SIDED*
G04 HOLES PLATED*
G04 CONTOUR ON CENTER OF CONTOUR VECTOR*
%ASAXBY*%
%FSLAX23Y23*%
%MOIN*%
%OFA0B0*%
%SFA1.0B1.0*%
%ADD10C,0.078000*%
%ADD11C,0.019569*%
%ADD12C,0.078740*%
%ADD13C,0.075433*%
%ADD14C,0.082000*%
%ADD15C,0.075000*%
%ADD16R,0.082000X0.082000*%
%ADD17R,0.078000X0.078000*%
%ADD18C,0.024000*%
%ADD19R,0.001000X0.001000*%
%LNCOPPER0*%
G90*
G70*
G54D10*
X1573Y171D03*
X1473Y171D03*
X1373Y171D03*
X1273Y171D03*
X1573Y171D03*
X1473Y171D03*
X1373Y171D03*
X1273Y171D03*
X1273Y1571D03*
X1173Y1571D03*
X1073Y1571D03*
X973Y1571D03*
X1273Y1571D03*
X1173Y1571D03*
X1073Y1571D03*
X973Y1571D03*
X1473Y1371D03*
X1373Y1371D03*
X1473Y1371D03*
X1373Y1371D03*
X1573Y771D03*
X1473Y771D03*
X1373Y771D03*
X1273Y771D03*
X1173Y771D03*
X1073Y771D03*
X973Y771D03*
X873Y771D03*
X773Y771D03*
X1573Y771D03*
X1473Y771D03*
X1373Y771D03*
X1273Y771D03*
X1173Y771D03*
X1073Y771D03*
X973Y771D03*
X873Y771D03*
X773Y771D03*
X1073Y1371D03*
X973Y1371D03*
X873Y1371D03*
X773Y1371D03*
X1073Y1371D03*
X973Y1371D03*
X873Y1371D03*
X773Y1371D03*
X273Y471D03*
X173Y471D03*
X273Y471D03*
X173Y471D03*
X273Y171D03*
X173Y171D03*
X273Y171D03*
X173Y171D03*
G54D11*
X1438Y2355D03*
X1438Y2420D03*
X1482Y2387D03*
X1394Y2387D03*
X1469Y2410D03*
X1407Y2364D03*
X1407Y2410D03*
X1469Y2364D03*
X1438Y2387D03*
G54D12*
X1925Y2174D03*
X2173Y2174D03*
X2044Y2371D03*
G54D13*
X873Y571D03*
X773Y571D03*
G54D14*
X473Y971D03*
X473Y1071D03*
X473Y1171D03*
G54D15*
X1273Y671D03*
X1273Y271D03*
X1373Y671D03*
X1373Y271D03*
X1573Y671D03*
X1573Y271D03*
G54D10*
X2173Y1971D03*
X2173Y1771D03*
X2173Y1571D03*
G54D16*
X473Y971D03*
G54D17*
X2173Y1971D03*
G54D18*
X174Y1171D02*
X389Y1379D01*
D02*
X473Y872D02*
X473Y939D01*
D02*
X671Y670D02*
X473Y872D01*
D02*
X1172Y674D02*
X671Y670D01*
D02*
X173Y441D02*
X173Y201D01*
D02*
X272Y569D02*
X272Y501D01*
D02*
X1972Y1971D02*
X2152Y2152D01*
D02*
X2274Y2072D02*
X2195Y2152D01*
D02*
X1471Y670D02*
X1374Y670D01*
D02*
X1374Y670D02*
X1399Y659D01*
D02*
X2274Y1171D02*
X1673Y569D01*
D02*
X2274Y2072D02*
X2274Y1571D01*
D02*
X1673Y569D02*
X1471Y569D01*
D02*
X2274Y1571D02*
X2274Y1171D01*
D02*
X1471Y569D02*
X902Y571D01*
D02*
X1673Y1369D02*
X2173Y1771D01*
D02*
X441Y1070D02*
X372Y1070D01*
D02*
X772Y1171D02*
X505Y1171D01*
D02*
X873Y1272D02*
X772Y1171D01*
D02*
X744Y571D02*
X271Y569D01*
D02*
X272Y969D02*
X272Y569D01*
D02*
X372Y1070D02*
X272Y969D01*
D02*
X1895Y2174D02*
X972Y2171D01*
D02*
X972Y2171D02*
X772Y1935D01*
D02*
X2203Y1571D02*
X2274Y1571D01*
D02*
X173Y501D02*
X174Y1171D01*
D02*
X1473Y201D02*
X1471Y569D01*
D02*
X1573Y199D02*
X1573Y241D01*
D02*
X1373Y199D02*
X1373Y241D01*
D02*
X1273Y199D02*
X1273Y241D01*
D02*
X772Y872D02*
X1172Y1272D01*
D02*
X1172Y1272D02*
X1173Y1541D01*
D02*
X273Y201D02*
X273Y441D01*
D02*
X1972Y1769D02*
X1172Y1769D01*
D02*
X973Y1571D02*
X974Y1870D01*
D02*
X1172Y1769D02*
X1071Y1672D01*
D02*
X1073Y1970D02*
X1972Y1971D01*
D02*
X2173Y1971D02*
X1972Y1769D01*
D02*
X974Y1870D02*
X1073Y1970D01*
D02*
X1071Y1672D02*
X1072Y1601D01*
D02*
X1359Y1398D02*
X1286Y1544D01*
D02*
X1073Y1401D02*
X1073Y1541D01*
D02*
X959Y1544D02*
X886Y1398D01*
D02*
X873Y1272D02*
X873Y1341D01*
D02*
X389Y1379D02*
X743Y1371D01*
D02*
X772Y1935D02*
X773Y1401D01*
D02*
X1573Y741D02*
X1573Y699D01*
D02*
X1471Y670D02*
X1472Y741D01*
D02*
X1273Y741D02*
X1273Y699D01*
D02*
X1172Y674D02*
X1173Y741D01*
D02*
X772Y872D02*
X773Y801D01*
D02*
X1673Y1369D02*
X1503Y1370D01*
G54D19*
X1507Y2574D02*
X1511Y2574D01*
X1505Y2573D02*
X1513Y2573D01*
X1504Y2572D02*
X1514Y2572D01*
X1503Y2571D02*
X1515Y2571D01*
X1503Y2570D02*
X1515Y2570D01*
X1503Y2569D02*
X1516Y2569D01*
X1502Y2568D02*
X1516Y2568D01*
X1502Y2567D02*
X1516Y2567D01*
X1503Y2566D02*
X1516Y2566D01*
X1503Y2565D02*
X1516Y2565D01*
X1503Y2564D02*
X1516Y2564D01*
X1503Y2563D02*
X1517Y2563D01*
X1503Y2562D02*
X1517Y2562D01*
X1503Y2561D02*
X1517Y2561D01*
X1504Y2560D02*
X1517Y2560D01*
X1504Y2559D02*
X1517Y2559D01*
X1504Y2558D02*
X1517Y2558D01*
X1504Y2557D02*
X1518Y2557D01*
X1504Y2556D02*
X1518Y2556D01*
X1504Y2555D02*
X1518Y2555D01*
X1504Y2554D02*
X1518Y2554D01*
X1505Y2553D02*
X1518Y2553D01*
X1505Y2552D02*
X1518Y2552D01*
X1505Y2551D02*
X1518Y2551D01*
X1505Y2550D02*
X1519Y2550D01*
X1505Y2549D02*
X1519Y2549D01*
X1505Y2548D02*
X1519Y2548D01*
X1506Y2547D02*
X1519Y2547D01*
X1506Y2546D02*
X1519Y2546D01*
X1506Y2545D02*
X1519Y2545D01*
X1506Y2544D02*
X1520Y2544D01*
X1506Y2543D02*
X1520Y2543D01*
X1506Y2542D02*
X1520Y2542D01*
X1506Y2541D02*
X1520Y2541D01*
X1507Y2540D02*
X1520Y2540D01*
X1507Y2539D02*
X1520Y2539D01*
X1507Y2538D02*
X1520Y2538D01*
X1507Y2537D02*
X1520Y2537D01*
X1507Y2536D02*
X1521Y2536D01*
X1507Y2535D02*
X1521Y2535D01*
X1507Y2534D02*
X1521Y2534D01*
X1507Y2533D02*
X1521Y2533D01*
X1508Y2532D02*
X1521Y2532D01*
X1508Y2531D02*
X1521Y2531D01*
X1508Y2530D02*
X1521Y2530D01*
X1508Y2529D02*
X1521Y2529D01*
X1508Y2528D02*
X1522Y2528D01*
X1508Y2527D02*
X1522Y2527D01*
X1508Y2526D02*
X1522Y2526D01*
X1509Y2525D02*
X1522Y2525D01*
X1509Y2524D02*
X1522Y2524D01*
X1509Y2523D02*
X1522Y2523D01*
X1509Y2522D02*
X1522Y2522D01*
X1509Y2521D02*
X1522Y2521D01*
X1509Y2520D02*
X1523Y2520D01*
X1509Y2519D02*
X1523Y2519D01*
X1509Y2518D02*
X1523Y2518D01*
X1509Y2517D02*
X1523Y2517D01*
X1510Y2516D02*
X1523Y2516D01*
X1510Y2515D02*
X1523Y2515D01*
X1510Y2514D02*
X1523Y2514D01*
X1510Y2513D02*
X1523Y2513D01*
X1510Y2512D02*
X1523Y2512D01*
X1510Y2511D02*
X1523Y2511D01*
X1510Y2510D02*
X1524Y2510D01*
X1510Y2509D02*
X1524Y2509D01*
X1510Y2508D02*
X1524Y2508D01*
X1511Y2507D02*
X1524Y2507D01*
X1511Y2506D02*
X1524Y2506D01*
X1511Y2505D02*
X1524Y2505D01*
X1511Y2504D02*
X1524Y2504D01*
X1511Y2503D02*
X1524Y2503D01*
X1511Y2502D02*
X1524Y2502D01*
X1511Y2501D02*
X1524Y2501D01*
X1511Y2500D02*
X1524Y2500D01*
X1511Y2499D02*
X1525Y2499D01*
X1511Y2498D02*
X1525Y2498D01*
X1511Y2497D02*
X1525Y2497D01*
X1511Y2496D02*
X1525Y2496D01*
X1512Y2495D02*
X1525Y2495D01*
X1512Y2494D02*
X1525Y2494D01*
X1512Y2493D02*
X1525Y2493D01*
X1512Y2492D02*
X1525Y2492D01*
X1512Y2491D02*
X1525Y2491D01*
X1512Y2490D02*
X1525Y2490D01*
X1512Y2489D02*
X1525Y2489D01*
X1512Y2488D02*
X1525Y2488D01*
X1512Y2487D02*
X1525Y2487D01*
X1512Y2486D02*
X1526Y2486D01*
X1512Y2485D02*
X1526Y2485D01*
X1512Y2484D02*
X1526Y2484D01*
X1512Y2483D02*
X1526Y2483D01*
X1513Y2482D02*
X1526Y2482D01*
X1513Y2481D02*
X1526Y2481D01*
X1513Y2480D02*
X1526Y2480D01*
X1513Y2479D02*
X1526Y2479D01*
X1513Y2478D02*
X1526Y2478D01*
X1513Y2477D02*
X1526Y2477D01*
X1513Y2476D02*
X1526Y2476D01*
X1513Y2475D02*
X1526Y2475D01*
X1513Y2474D02*
X1526Y2474D01*
X1513Y2473D02*
X1526Y2473D01*
X1513Y2472D02*
X1526Y2472D01*
X340Y2471D02*
X352Y2471D01*
X1513Y2471D02*
X1526Y2471D01*
X335Y2470D02*
X357Y2470D01*
X1513Y2470D02*
X1526Y2470D01*
X332Y2469D02*
X361Y2469D01*
X1513Y2469D02*
X1526Y2469D01*
X329Y2468D02*
X364Y2468D01*
X1513Y2468D02*
X1526Y2468D01*
X326Y2467D02*
X366Y2467D01*
X1513Y2467D02*
X1526Y2467D01*
X325Y2466D02*
X368Y2466D01*
X1513Y2466D02*
X1527Y2466D01*
X323Y2465D02*
X370Y2465D01*
X1513Y2465D02*
X1527Y2465D01*
X321Y2464D02*
X372Y2464D01*
X1513Y2464D02*
X1527Y2464D01*
X320Y2463D02*
X374Y2463D01*
X1513Y2463D02*
X1527Y2463D01*
X318Y2462D02*
X375Y2462D01*
X1513Y2462D02*
X1527Y2462D01*
X317Y2461D02*
X377Y2461D01*
X1513Y2461D02*
X1527Y2461D01*
X316Y2460D02*
X378Y2460D01*
X1514Y2460D02*
X1527Y2460D01*
X314Y2459D02*
X380Y2459D01*
X1514Y2459D02*
X1527Y2459D01*
X313Y2458D02*
X381Y2458D01*
X1514Y2458D02*
X1527Y2458D01*
X312Y2457D02*
X382Y2457D01*
X1514Y2457D02*
X1527Y2457D01*
X311Y2456D02*
X384Y2456D01*
X1035Y2456D02*
X1051Y2456D01*
X1232Y2456D02*
X1249Y2456D01*
X1425Y2456D02*
X1435Y2456D01*
X1514Y2456D02*
X1527Y2456D01*
X310Y2455D02*
X385Y2455D01*
X850Y2455D02*
X884Y2455D01*
X1026Y2455D02*
X1059Y2455D01*
X1224Y2455D02*
X1257Y2455D01*
X1413Y2455D02*
X1451Y2455D01*
X1514Y2455D02*
X1527Y2455D01*
X309Y2454D02*
X380Y2454D01*
X842Y2454D02*
X891Y2454D01*
X1021Y2454D02*
X1065Y2454D01*
X1219Y2454D02*
X1262Y2454D01*
X1407Y2454D02*
X1460Y2454D01*
X1514Y2454D02*
X1527Y2454D01*
X308Y2453D02*
X373Y2453D01*
X836Y2453D02*
X897Y2453D01*
X1017Y2453D02*
X1069Y2453D01*
X1214Y2453D02*
X1266Y2453D01*
X1403Y2453D02*
X1468Y2453D01*
X1514Y2453D02*
X1527Y2453D01*
X307Y2452D02*
X370Y2452D01*
X831Y2452D02*
X901Y2452D01*
X1013Y2452D02*
X1073Y2452D01*
X1211Y2452D02*
X1270Y2452D01*
X1400Y2452D02*
X1474Y2452D01*
X1514Y2452D02*
X1527Y2452D01*
X306Y2451D02*
X367Y2451D01*
X827Y2451D02*
X905Y2451D01*
X1010Y2451D02*
X1076Y2451D01*
X1208Y2451D02*
X1273Y2451D01*
X1398Y2451D02*
X1477Y2451D01*
X1514Y2451D02*
X1527Y2451D01*
X305Y2450D02*
X365Y2450D01*
X823Y2450D02*
X908Y2450D01*
X1007Y2450D02*
X1078Y2450D01*
X1205Y2450D02*
X1276Y2450D01*
X1396Y2450D02*
X1478Y2450D01*
X1514Y2450D02*
X1527Y2450D01*
X304Y2449D02*
X363Y2449D01*
X819Y2449D02*
X910Y2449D01*
X1005Y2449D02*
X1081Y2449D01*
X1202Y2449D02*
X1278Y2449D01*
X1394Y2449D02*
X1479Y2449D01*
X1514Y2449D02*
X1527Y2449D01*
X303Y2448D02*
X361Y2448D01*
X816Y2448D02*
X913Y2448D01*
X1002Y2448D02*
X1083Y2448D01*
X1200Y2448D02*
X1280Y2448D01*
X1392Y2448D02*
X1479Y2448D01*
X1514Y2448D02*
X1527Y2448D01*
X302Y2447D02*
X360Y2447D01*
X425Y2447D02*
X468Y2447D01*
X813Y2447D02*
X915Y2447D01*
X1000Y2447D02*
X1085Y2447D01*
X1198Y2447D02*
X1282Y2447D01*
X1391Y2447D02*
X1480Y2447D01*
X1514Y2447D02*
X1527Y2447D01*
X301Y2446D02*
X359Y2446D01*
X414Y2446D02*
X475Y2446D01*
X811Y2446D02*
X917Y2446D01*
X998Y2446D02*
X1087Y2446D01*
X1196Y2446D02*
X1284Y2446D01*
X1389Y2446D02*
X1480Y2446D01*
X1514Y2446D02*
X1527Y2446D01*
X300Y2445D02*
X357Y2445D01*
X405Y2445D02*
X480Y2445D01*
X578Y2445D02*
X582Y2445D01*
X722Y2445D02*
X725Y2445D01*
X808Y2445D02*
X919Y2445D01*
X997Y2445D02*
X1089Y2445D01*
X1194Y2445D02*
X1286Y2445D01*
X1388Y2445D02*
X1480Y2445D01*
X1514Y2445D02*
X1527Y2445D01*
X299Y2444D02*
X356Y2444D01*
X397Y2444D02*
X485Y2444D01*
X576Y2444D02*
X584Y2444D01*
X720Y2444D02*
X727Y2444D01*
X806Y2444D02*
X921Y2444D01*
X995Y2444D02*
X1091Y2444D01*
X1193Y2444D02*
X1287Y2444D01*
X1386Y2444D02*
X1480Y2444D01*
X1514Y2444D02*
X1527Y2444D01*
X298Y2443D02*
X355Y2443D01*
X390Y2443D02*
X488Y2443D01*
X575Y2443D02*
X585Y2443D01*
X719Y2443D02*
X728Y2443D01*
X804Y2443D02*
X922Y2443D01*
X994Y2443D02*
X1092Y2443D01*
X1191Y2443D02*
X1289Y2443D01*
X1385Y2443D02*
X1480Y2443D01*
X1514Y2443D02*
X1527Y2443D01*
X297Y2442D02*
X354Y2442D01*
X384Y2442D02*
X491Y2442D01*
X575Y2442D02*
X586Y2442D01*
X718Y2442D02*
X729Y2442D01*
X801Y2442D02*
X923Y2442D01*
X992Y2442D02*
X1036Y2442D01*
X1050Y2442D02*
X1094Y2442D01*
X1189Y2442D02*
X1233Y2442D01*
X1248Y2442D02*
X1290Y2442D01*
X1384Y2442D02*
X1479Y2442D01*
X1514Y2442D02*
X1527Y2442D01*
X297Y2441D02*
X353Y2441D01*
X380Y2441D02*
X493Y2441D01*
X574Y2441D02*
X586Y2441D01*
X718Y2441D02*
X730Y2441D01*
X800Y2441D02*
X850Y2441D01*
X884Y2441D02*
X923Y2441D01*
X991Y2441D02*
X1028Y2441D01*
X1058Y2441D02*
X1095Y2441D01*
X1188Y2441D02*
X1225Y2441D01*
X1256Y2441D02*
X1291Y2441D01*
X1383Y2441D02*
X1415Y2441D01*
X1449Y2441D02*
X1479Y2441D01*
X1514Y2441D02*
X1527Y2441D01*
X296Y2440D02*
X352Y2440D01*
X377Y2440D02*
X495Y2440D01*
X574Y2440D02*
X587Y2440D01*
X717Y2440D02*
X730Y2440D01*
X798Y2440D02*
X843Y2440D01*
X891Y2440D02*
X924Y2440D01*
X989Y2440D02*
X1023Y2440D01*
X1063Y2440D02*
X1096Y2440D01*
X1187Y2440D02*
X1220Y2440D01*
X1261Y2440D02*
X1293Y2440D01*
X1382Y2440D02*
X1409Y2440D01*
X1458Y2440D02*
X1478Y2440D01*
X1514Y2440D02*
X1527Y2440D01*
X295Y2439D02*
X351Y2439D01*
X375Y2439D02*
X497Y2439D01*
X573Y2439D02*
X587Y2439D01*
X717Y2439D02*
X730Y2439D01*
X796Y2439D02*
X837Y2439D01*
X896Y2439D02*
X924Y2439D01*
X988Y2439D02*
X1019Y2439D01*
X1067Y2439D02*
X1098Y2439D01*
X1185Y2439D02*
X1216Y2439D01*
X1264Y2439D02*
X1294Y2439D01*
X1381Y2439D02*
X1406Y2439D01*
X1466Y2439D02*
X1477Y2439D01*
X1514Y2439D02*
X1527Y2439D01*
X294Y2438D02*
X350Y2438D01*
X373Y2438D02*
X499Y2438D01*
X573Y2438D02*
X587Y2438D01*
X717Y2438D02*
X730Y2438D01*
X795Y2438D02*
X833Y2438D01*
X900Y2438D02*
X924Y2438D01*
X987Y2438D02*
X1015Y2438D01*
X1070Y2438D02*
X1099Y2438D01*
X1184Y2438D02*
X1213Y2438D01*
X1268Y2438D02*
X1295Y2438D01*
X1380Y2438D02*
X1403Y2438D01*
X1472Y2438D02*
X1474Y2438D01*
X1513Y2438D02*
X1527Y2438D01*
X293Y2437D02*
X349Y2437D01*
X371Y2437D02*
X501Y2437D01*
X573Y2437D02*
X587Y2437D01*
X717Y2437D02*
X730Y2437D01*
X794Y2437D02*
X829Y2437D01*
X903Y2437D02*
X924Y2437D01*
X986Y2437D02*
X1013Y2437D01*
X1073Y2437D02*
X1100Y2437D01*
X1183Y2437D02*
X1210Y2437D01*
X1270Y2437D02*
X1296Y2437D01*
X1379Y2437D02*
X1401Y2437D01*
X1513Y2437D02*
X1527Y2437D01*
X292Y2436D02*
X348Y2436D01*
X369Y2436D02*
X503Y2436D01*
X573Y2436D02*
X587Y2436D01*
X717Y2436D02*
X730Y2436D01*
X792Y2436D02*
X825Y2436D01*
X906Y2436D02*
X924Y2436D01*
X984Y2436D02*
X1010Y2436D01*
X1076Y2436D02*
X1101Y2436D01*
X1182Y2436D02*
X1207Y2436D01*
X1273Y2436D02*
X1297Y2436D01*
X1378Y2436D02*
X1399Y2436D01*
X1513Y2436D02*
X1527Y2436D01*
X291Y2435D02*
X347Y2435D01*
X368Y2435D02*
X504Y2435D01*
X573Y2435D02*
X586Y2435D01*
X717Y2435D02*
X730Y2435D01*
X791Y2435D02*
X822Y2435D01*
X908Y2435D02*
X924Y2435D01*
X983Y2435D02*
X1007Y2435D01*
X1078Y2435D02*
X1102Y2435D01*
X1181Y2435D02*
X1205Y2435D01*
X1275Y2435D02*
X1298Y2435D01*
X1377Y2435D02*
X1397Y2435D01*
X1513Y2435D02*
X1527Y2435D01*
X290Y2434D02*
X346Y2434D01*
X366Y2434D02*
X506Y2434D01*
X573Y2434D02*
X586Y2434D01*
X717Y2434D02*
X730Y2434D01*
X790Y2434D02*
X818Y2434D01*
X910Y2434D02*
X924Y2434D01*
X982Y2434D02*
X1005Y2434D01*
X1080Y2434D02*
X1103Y2434D01*
X1180Y2434D02*
X1203Y2434D01*
X1277Y2434D02*
X1299Y2434D01*
X1376Y2434D02*
X1396Y2434D01*
X1513Y2434D02*
X1527Y2434D01*
X290Y2433D02*
X346Y2433D01*
X365Y2433D02*
X429Y2433D01*
X462Y2433D02*
X507Y2433D01*
X573Y2433D02*
X586Y2433D01*
X717Y2433D02*
X730Y2433D01*
X788Y2433D02*
X816Y2433D01*
X911Y2433D02*
X924Y2433D01*
X981Y2433D02*
X1003Y2433D01*
X1082Y2433D02*
X1104Y2433D01*
X1179Y2433D02*
X1201Y2433D01*
X1279Y2433D02*
X1300Y2433D01*
X1375Y2433D02*
X1395Y2433D01*
X1513Y2433D02*
X1527Y2433D01*
X289Y2432D02*
X345Y2432D01*
X363Y2432D02*
X417Y2432D01*
X471Y2432D02*
X509Y2432D01*
X572Y2432D02*
X586Y2432D01*
X717Y2432D02*
X730Y2432D01*
X787Y2432D02*
X813Y2432D01*
X911Y2432D02*
X924Y2432D01*
X980Y2432D02*
X1002Y2432D01*
X1084Y2432D02*
X1105Y2432D01*
X1178Y2432D02*
X1199Y2432D01*
X1280Y2432D02*
X1301Y2432D01*
X1374Y2432D02*
X1393Y2432D01*
X1513Y2432D02*
X1526Y2432D01*
X288Y2431D02*
X344Y2431D01*
X362Y2431D02*
X407Y2431D01*
X478Y2431D02*
X510Y2431D01*
X572Y2431D02*
X586Y2431D01*
X717Y2431D02*
X730Y2431D01*
X786Y2431D02*
X811Y2431D01*
X911Y2431D02*
X924Y2431D01*
X979Y2431D02*
X1000Y2431D01*
X1086Y2431D02*
X1106Y2431D01*
X1177Y2431D02*
X1198Y2431D01*
X1282Y2431D02*
X1302Y2431D01*
X1373Y2431D02*
X1392Y2431D01*
X1513Y2431D02*
X1526Y2431D01*
X287Y2430D02*
X343Y2430D01*
X361Y2430D02*
X400Y2430D01*
X482Y2430D02*
X511Y2430D01*
X572Y2430D02*
X586Y2430D01*
X717Y2430D02*
X730Y2430D01*
X785Y2430D02*
X808Y2430D01*
X911Y2430D02*
X924Y2430D01*
X978Y2430D02*
X999Y2430D01*
X1087Y2430D02*
X1107Y2430D01*
X1176Y2430D02*
X1196Y2430D01*
X1283Y2430D02*
X1303Y2430D01*
X1372Y2430D02*
X1391Y2430D01*
X1513Y2430D02*
X1526Y2430D01*
X286Y2429D02*
X342Y2429D01*
X359Y2429D02*
X394Y2429D01*
X485Y2429D02*
X512Y2429D01*
X572Y2429D02*
X585Y2429D01*
X717Y2429D02*
X730Y2429D01*
X784Y2429D02*
X806Y2429D01*
X911Y2429D02*
X924Y2429D01*
X978Y2429D02*
X997Y2429D01*
X1088Y2429D02*
X1108Y2429D01*
X1175Y2429D02*
X1195Y2429D01*
X1285Y2429D02*
X1304Y2429D01*
X1372Y2429D02*
X1390Y2429D01*
X1513Y2429D02*
X1526Y2429D01*
X285Y2428D02*
X341Y2428D01*
X358Y2428D02*
X394Y2428D01*
X488Y2428D02*
X513Y2428D01*
X572Y2428D02*
X585Y2428D01*
X717Y2428D02*
X730Y2428D01*
X783Y2428D02*
X805Y2428D01*
X911Y2428D02*
X924Y2428D01*
X977Y2428D02*
X996Y2428D01*
X1090Y2428D02*
X1109Y2428D01*
X1174Y2428D02*
X1193Y2428D01*
X1286Y2428D02*
X1305Y2428D01*
X1371Y2428D02*
X1389Y2428D01*
X1513Y2428D02*
X1526Y2428D01*
X284Y2427D02*
X340Y2427D01*
X357Y2427D02*
X394Y2427D01*
X490Y2427D02*
X515Y2427D01*
X572Y2427D02*
X585Y2427D01*
X717Y2427D02*
X730Y2427D01*
X782Y2427D02*
X803Y2427D01*
X911Y2427D02*
X924Y2427D01*
X976Y2427D02*
X995Y2427D01*
X1091Y2427D02*
X1110Y2427D01*
X1173Y2427D02*
X1192Y2427D01*
X1287Y2427D02*
X1305Y2427D01*
X1370Y2427D02*
X1388Y2427D01*
X1513Y2427D02*
X1526Y2427D01*
X284Y2426D02*
X340Y2426D01*
X356Y2426D02*
X394Y2426D01*
X492Y2426D02*
X516Y2426D01*
X572Y2426D02*
X585Y2426D01*
X717Y2426D02*
X730Y2426D01*
X781Y2426D02*
X801Y2426D01*
X911Y2426D02*
X924Y2426D01*
X975Y2426D02*
X993Y2426D01*
X1092Y2426D02*
X1111Y2426D01*
X1172Y2426D02*
X1191Y2426D01*
X1288Y2426D02*
X1306Y2426D01*
X1369Y2426D02*
X1387Y2426D01*
X1513Y2426D02*
X1526Y2426D01*
X283Y2425D02*
X339Y2425D01*
X355Y2425D02*
X394Y2425D01*
X494Y2425D02*
X517Y2425D01*
X572Y2425D02*
X585Y2425D01*
X717Y2425D02*
X730Y2425D01*
X780Y2425D02*
X800Y2425D01*
X911Y2425D02*
X924Y2425D01*
X974Y2425D02*
X992Y2425D01*
X1093Y2425D02*
X1111Y2425D01*
X1172Y2425D02*
X1190Y2425D01*
X1289Y2425D02*
X1307Y2425D01*
X1369Y2425D02*
X1386Y2425D01*
X1513Y2425D02*
X1526Y2425D01*
X282Y2424D02*
X338Y2424D01*
X354Y2424D02*
X393Y2424D01*
X496Y2424D02*
X518Y2424D01*
X571Y2424D02*
X585Y2424D01*
X717Y2424D02*
X730Y2424D01*
X779Y2424D02*
X799Y2424D01*
X911Y2424D02*
X924Y2424D01*
X974Y2424D02*
X991Y2424D01*
X1094Y2424D02*
X1112Y2424D01*
X1171Y2424D02*
X1189Y2424D01*
X1290Y2424D02*
X1308Y2424D01*
X1368Y2424D02*
X1385Y2424D01*
X1513Y2424D02*
X1526Y2424D01*
X281Y2423D02*
X337Y2423D01*
X353Y2423D02*
X393Y2423D01*
X497Y2423D02*
X518Y2423D01*
X571Y2423D02*
X585Y2423D01*
X717Y2423D02*
X730Y2423D01*
X779Y2423D02*
X797Y2423D01*
X911Y2423D02*
X924Y2423D01*
X973Y2423D02*
X990Y2423D01*
X1096Y2423D02*
X1113Y2423D01*
X1170Y2423D02*
X1188Y2423D01*
X1291Y2423D02*
X1308Y2423D01*
X1367Y2423D02*
X1384Y2423D01*
X1513Y2423D02*
X1526Y2423D01*
X280Y2422D02*
X336Y2422D01*
X352Y2422D02*
X393Y2422D01*
X499Y2422D02*
X519Y2422D01*
X571Y2422D02*
X585Y2422D01*
X717Y2422D02*
X730Y2422D01*
X778Y2422D02*
X796Y2422D01*
X911Y2422D02*
X924Y2422D01*
X972Y2422D02*
X989Y2422D01*
X1096Y2422D02*
X1114Y2422D01*
X1169Y2422D02*
X1187Y2422D01*
X1292Y2422D02*
X1309Y2422D01*
X1367Y2422D02*
X1383Y2422D01*
X1513Y2422D02*
X1526Y2422D01*
X279Y2421D02*
X335Y2421D01*
X350Y2421D02*
X393Y2421D01*
X500Y2421D02*
X520Y2421D01*
X571Y2421D02*
X585Y2421D01*
X717Y2421D02*
X730Y2421D01*
X777Y2421D02*
X795Y2421D01*
X911Y2421D02*
X924Y2421D01*
X971Y2421D02*
X988Y2421D01*
X1097Y2421D02*
X1114Y2421D01*
X1169Y2421D02*
X1186Y2421D01*
X1293Y2421D02*
X1310Y2421D01*
X1366Y2421D02*
X1382Y2421D01*
X1513Y2421D02*
X1526Y2421D01*
X278Y2420D02*
X334Y2420D01*
X349Y2420D02*
X393Y2420D01*
X502Y2420D02*
X521Y2420D01*
X571Y2420D02*
X584Y2420D01*
X717Y2420D02*
X730Y2420D01*
X776Y2420D02*
X794Y2420D01*
X911Y2420D02*
X924Y2420D01*
X971Y2420D02*
X987Y2420D01*
X1098Y2420D02*
X1115Y2420D01*
X1168Y2420D02*
X1185Y2420D01*
X1294Y2420D02*
X1310Y2420D01*
X1365Y2420D02*
X1381Y2420D01*
X1513Y2420D02*
X1526Y2420D01*
X277Y2419D02*
X334Y2419D01*
X348Y2419D02*
X393Y2419D01*
X503Y2419D02*
X522Y2419D01*
X571Y2419D02*
X584Y2419D01*
X717Y2419D02*
X730Y2419D01*
X776Y2419D02*
X793Y2419D01*
X911Y2419D02*
X924Y2419D01*
X970Y2419D02*
X986Y2419D01*
X1099Y2419D02*
X1116Y2419D01*
X1167Y2419D02*
X1184Y2419D01*
X1295Y2419D02*
X1311Y2419D01*
X1365Y2419D02*
X1381Y2419D01*
X1513Y2419D02*
X1526Y2419D01*
X276Y2418D02*
X333Y2418D01*
X347Y2418D02*
X392Y2418D01*
X504Y2418D02*
X523Y2418D01*
X571Y2418D02*
X584Y2418D01*
X717Y2418D02*
X730Y2418D01*
X775Y2418D02*
X792Y2418D01*
X911Y2418D02*
X924Y2418D01*
X969Y2418D02*
X986Y2418D01*
X1100Y2418D02*
X1116Y2418D01*
X1167Y2418D02*
X1183Y2418D01*
X1296Y2418D02*
X1312Y2418D01*
X1364Y2418D02*
X1380Y2418D01*
X1512Y2418D02*
X1526Y2418D01*
X276Y2417D02*
X332Y2417D01*
X346Y2417D02*
X392Y2417D01*
X505Y2417D02*
X523Y2417D01*
X571Y2417D02*
X584Y2417D01*
X717Y2417D02*
X730Y2417D01*
X774Y2417D02*
X791Y2417D01*
X911Y2417D02*
X924Y2417D01*
X969Y2417D02*
X985Y2417D01*
X1101Y2417D02*
X1117Y2417D01*
X1166Y2417D02*
X1182Y2417D01*
X1296Y2417D02*
X1312Y2417D01*
X1364Y2417D02*
X1379Y2417D01*
X1512Y2417D02*
X1526Y2417D01*
X275Y2416D02*
X331Y2416D01*
X345Y2416D02*
X392Y2416D01*
X506Y2416D02*
X524Y2416D01*
X571Y2416D02*
X584Y2416D01*
X717Y2416D02*
X730Y2416D01*
X774Y2416D02*
X790Y2416D01*
X911Y2416D02*
X924Y2416D01*
X968Y2416D02*
X984Y2416D01*
X1101Y2416D02*
X1117Y2416D01*
X1166Y2416D02*
X1182Y2416D01*
X1297Y2416D02*
X1313Y2416D01*
X1363Y2416D02*
X1379Y2416D01*
X1512Y2416D02*
X1526Y2416D01*
X274Y2415D02*
X330Y2415D01*
X344Y2415D02*
X391Y2415D01*
X507Y2415D02*
X525Y2415D01*
X571Y2415D02*
X584Y2415D01*
X717Y2415D02*
X730Y2415D01*
X773Y2415D02*
X789Y2415D01*
X911Y2415D02*
X924Y2415D01*
X968Y2415D02*
X983Y2415D01*
X1102Y2415D02*
X1118Y2415D01*
X1165Y2415D02*
X1181Y2415D01*
X1298Y2415D02*
X1313Y2415D01*
X1362Y2415D02*
X1378Y2415D01*
X1512Y2415D02*
X1525Y2415D01*
X273Y2414D02*
X329Y2414D01*
X343Y2414D02*
X391Y2414D01*
X508Y2414D02*
X526Y2414D01*
X570Y2414D02*
X584Y2414D01*
X717Y2414D02*
X730Y2414D01*
X772Y2414D02*
X788Y2414D01*
X911Y2414D02*
X924Y2414D01*
X967Y2414D02*
X983Y2414D01*
X1103Y2414D02*
X1118Y2414D01*
X1165Y2414D02*
X1180Y2414D01*
X1298Y2414D02*
X1314Y2414D01*
X1362Y2414D02*
X1377Y2414D01*
X1512Y2414D02*
X1525Y2414D01*
X272Y2413D02*
X328Y2413D01*
X342Y2413D02*
X391Y2413D01*
X509Y2413D02*
X526Y2413D01*
X570Y2413D02*
X584Y2413D01*
X717Y2413D02*
X730Y2413D01*
X772Y2413D02*
X788Y2413D01*
X911Y2413D02*
X924Y2413D01*
X967Y2413D02*
X982Y2413D01*
X1104Y2413D02*
X1119Y2413D01*
X1164Y2413D02*
X1179Y2413D01*
X1299Y2413D02*
X1315Y2413D01*
X1362Y2413D02*
X1377Y2413D01*
X1512Y2413D02*
X1525Y2413D01*
X271Y2412D02*
X327Y2412D01*
X341Y2412D02*
X390Y2412D01*
X510Y2412D02*
X527Y2412D01*
X570Y2412D02*
X584Y2412D01*
X717Y2412D02*
X730Y2412D01*
X771Y2412D02*
X787Y2412D01*
X911Y2412D02*
X924Y2412D01*
X966Y2412D02*
X981Y2412D01*
X1104Y2412D02*
X1119Y2412D01*
X1164Y2412D02*
X1179Y2412D01*
X1300Y2412D02*
X1315Y2412D01*
X1361Y2412D02*
X1376Y2412D01*
X1512Y2412D02*
X1525Y2412D01*
X270Y2411D02*
X326Y2411D01*
X340Y2411D02*
X390Y2411D01*
X511Y2411D02*
X528Y2411D01*
X570Y2411D02*
X584Y2411D01*
X717Y2411D02*
X730Y2411D01*
X771Y2411D02*
X786Y2411D01*
X911Y2411D02*
X924Y2411D01*
X966Y2411D02*
X981Y2411D01*
X1105Y2411D02*
X1120Y2411D01*
X1163Y2411D02*
X1178Y2411D01*
X1300Y2411D02*
X1316Y2411D01*
X1361Y2411D02*
X1376Y2411D01*
X1512Y2411D02*
X1525Y2411D01*
X269Y2410D02*
X325Y2410D01*
X339Y2410D02*
X389Y2410D01*
X512Y2410D02*
X528Y2410D01*
X570Y2410D02*
X583Y2410D01*
X717Y2410D02*
X730Y2410D01*
X770Y2410D02*
X786Y2410D01*
X911Y2410D02*
X924Y2410D01*
X965Y2410D02*
X980Y2410D01*
X1105Y2410D02*
X1120Y2410D01*
X1163Y2410D02*
X1178Y2410D01*
X1301Y2410D02*
X1316Y2410D01*
X1360Y2410D02*
X1375Y2410D01*
X1512Y2410D02*
X1525Y2410D01*
X1996Y2410D02*
X2089Y2410D01*
X268Y2409D02*
X324Y2409D01*
X338Y2409D02*
X389Y2409D01*
X512Y2409D02*
X529Y2409D01*
X570Y2409D02*
X583Y2409D01*
X717Y2409D02*
X730Y2409D01*
X770Y2409D02*
X785Y2409D01*
X911Y2409D02*
X924Y2409D01*
X965Y2409D02*
X980Y2409D01*
X1106Y2409D02*
X1121Y2409D01*
X1162Y2409D02*
X1177Y2409D01*
X1301Y2409D02*
X1316Y2409D01*
X1360Y2409D02*
X1374Y2409D01*
X1512Y2409D02*
X1525Y2409D01*
X1992Y2409D02*
X2093Y2409D01*
X267Y2408D02*
X323Y2408D01*
X336Y2408D02*
X389Y2408D01*
X513Y2408D02*
X529Y2408D01*
X570Y2408D02*
X583Y2408D01*
X717Y2408D02*
X730Y2408D01*
X769Y2408D02*
X784Y2408D01*
X911Y2408D02*
X924Y2408D01*
X964Y2408D02*
X979Y2408D01*
X1106Y2408D02*
X1121Y2408D01*
X1162Y2408D02*
X1177Y2408D01*
X1302Y2408D02*
X1317Y2408D01*
X1359Y2408D02*
X1374Y2408D01*
X1511Y2408D02*
X1525Y2408D01*
X1989Y2408D02*
X2096Y2408D01*
X266Y2407D02*
X321Y2407D01*
X335Y2407D02*
X388Y2407D01*
X514Y2407D02*
X530Y2407D01*
X570Y2407D02*
X583Y2407D01*
X717Y2407D02*
X730Y2407D01*
X769Y2407D02*
X784Y2407D01*
X911Y2407D02*
X924Y2407D01*
X964Y2407D02*
X979Y2407D01*
X1107Y2407D02*
X1121Y2407D01*
X1161Y2407D02*
X1176Y2407D01*
X1303Y2407D02*
X1317Y2407D01*
X1359Y2407D02*
X1374Y2407D01*
X1511Y2407D02*
X1525Y2407D01*
X1987Y2407D02*
X2098Y2407D01*
X265Y2406D02*
X320Y2406D01*
X334Y2406D02*
X387Y2406D01*
X515Y2406D02*
X530Y2406D01*
X570Y2406D02*
X583Y2406D01*
X717Y2406D02*
X730Y2406D01*
X768Y2406D02*
X783Y2406D01*
X911Y2406D02*
X924Y2406D01*
X964Y2406D02*
X978Y2406D01*
X1107Y2406D02*
X1122Y2406D01*
X1161Y2406D02*
X1176Y2406D01*
X1303Y2406D02*
X1318Y2406D01*
X1359Y2406D02*
X1373Y2406D01*
X1511Y2406D02*
X1525Y2406D01*
X1985Y2406D02*
X2100Y2406D01*
X263Y2405D02*
X319Y2405D01*
X333Y2405D02*
X387Y2405D01*
X515Y2405D02*
X531Y2405D01*
X570Y2405D02*
X583Y2405D01*
X717Y2405D02*
X730Y2405D01*
X768Y2405D02*
X783Y2405D01*
X911Y2405D02*
X924Y2405D01*
X963Y2405D02*
X978Y2405D01*
X1108Y2405D02*
X1122Y2405D01*
X1161Y2405D02*
X1175Y2405D01*
X1304Y2405D02*
X1318Y2405D01*
X1358Y2405D02*
X1373Y2405D01*
X1511Y2405D02*
X1524Y2405D01*
X1983Y2405D02*
X2102Y2405D01*
X262Y2404D02*
X318Y2404D01*
X332Y2404D02*
X386Y2404D01*
X516Y2404D02*
X531Y2404D01*
X570Y2404D02*
X583Y2404D01*
X717Y2404D02*
X730Y2404D01*
X767Y2404D02*
X782Y2404D01*
X911Y2404D02*
X924Y2404D01*
X963Y2404D02*
X977Y2404D01*
X1108Y2404D02*
X1122Y2404D01*
X1160Y2404D02*
X1175Y2404D01*
X1304Y2404D02*
X1318Y2404D01*
X1358Y2404D02*
X1372Y2404D01*
X1511Y2404D02*
X1524Y2404D01*
X1982Y2404D02*
X2104Y2404D01*
X261Y2403D02*
X317Y2403D01*
X331Y2403D02*
X386Y2403D01*
X517Y2403D02*
X532Y2403D01*
X570Y2403D02*
X583Y2403D01*
X717Y2403D02*
X730Y2403D01*
X767Y2403D02*
X782Y2403D01*
X911Y2403D02*
X924Y2403D01*
X963Y2403D02*
X977Y2403D01*
X1109Y2403D02*
X1123Y2403D01*
X1160Y2403D02*
X1174Y2403D01*
X1304Y2403D02*
X1319Y2403D01*
X1358Y2403D02*
X1372Y2403D01*
X1511Y2403D02*
X1524Y2403D01*
X1980Y2403D02*
X2105Y2403D01*
X260Y2402D02*
X315Y2402D01*
X329Y2402D02*
X385Y2402D01*
X517Y2402D02*
X532Y2402D01*
X570Y2402D02*
X583Y2402D01*
X717Y2402D02*
X730Y2402D01*
X767Y2402D02*
X781Y2402D01*
X911Y2402D02*
X924Y2402D01*
X962Y2402D02*
X977Y2402D01*
X1109Y2402D02*
X1123Y2402D01*
X1160Y2402D02*
X1174Y2402D01*
X1305Y2402D02*
X1319Y2402D01*
X1357Y2402D02*
X1371Y2402D01*
X1511Y2402D02*
X1524Y2402D01*
X1979Y2402D02*
X2106Y2402D01*
X259Y2401D02*
X314Y2401D01*
X328Y2401D02*
X384Y2401D01*
X518Y2401D02*
X533Y2401D01*
X570Y2401D02*
X583Y2401D01*
X717Y2401D02*
X730Y2401D01*
X766Y2401D02*
X781Y2401D01*
X911Y2401D02*
X924Y2401D01*
X962Y2401D02*
X976Y2401D01*
X1109Y2401D02*
X1123Y2401D01*
X1160Y2401D02*
X1174Y2401D01*
X1305Y2401D02*
X1319Y2401D01*
X1357Y2401D02*
X1371Y2401D01*
X1510Y2401D02*
X1524Y2401D01*
X1978Y2401D02*
X2107Y2401D01*
X258Y2400D02*
X312Y2400D01*
X327Y2400D02*
X383Y2400D01*
X518Y2400D02*
X533Y2400D01*
X570Y2400D02*
X583Y2400D01*
X717Y2400D02*
X730Y2400D01*
X766Y2400D02*
X780Y2400D01*
X911Y2400D02*
X924Y2400D01*
X962Y2400D02*
X976Y2400D01*
X1110Y2400D02*
X1123Y2400D01*
X1160Y2400D02*
X1173Y2400D01*
X1306Y2400D02*
X1320Y2400D01*
X1357Y2400D02*
X1371Y2400D01*
X1510Y2400D02*
X1524Y2400D01*
X1977Y2400D02*
X2108Y2400D01*
X256Y2399D02*
X311Y2399D01*
X326Y2399D02*
X383Y2399D01*
X519Y2399D02*
X533Y2399D01*
X570Y2399D02*
X583Y2399D01*
X717Y2399D02*
X730Y2399D01*
X766Y2399D02*
X780Y2399D01*
X911Y2399D02*
X924Y2399D01*
X961Y2399D02*
X975Y2399D01*
X1110Y2399D02*
X1124Y2399D01*
X1159Y2399D02*
X1173Y2399D01*
X1306Y2399D02*
X1320Y2399D01*
X1357Y2399D02*
X1370Y2399D01*
X1510Y2399D02*
X1524Y2399D01*
X1976Y2399D02*
X2110Y2399D01*
X255Y2398D02*
X310Y2398D01*
X324Y2398D02*
X382Y2398D01*
X519Y2398D02*
X534Y2398D01*
X570Y2398D02*
X583Y2398D01*
X717Y2398D02*
X730Y2398D01*
X766Y2398D02*
X779Y2398D01*
X911Y2398D02*
X924Y2398D01*
X961Y2398D02*
X975Y2398D01*
X1110Y2398D02*
X1124Y2398D01*
X1159Y2398D02*
X1173Y2398D01*
X1306Y2398D02*
X1320Y2398D01*
X1357Y2398D02*
X1370Y2398D01*
X1510Y2398D02*
X1523Y2398D01*
X1975Y2398D02*
X2110Y2398D01*
X254Y2397D02*
X308Y2397D01*
X323Y2397D02*
X381Y2397D01*
X520Y2397D02*
X534Y2397D01*
X570Y2397D02*
X583Y2397D01*
X717Y2397D02*
X730Y2397D01*
X765Y2397D02*
X779Y2397D01*
X911Y2397D02*
X924Y2397D01*
X961Y2397D02*
X975Y2397D01*
X1111Y2397D02*
X1124Y2397D01*
X1159Y2397D02*
X1173Y2397D01*
X1307Y2397D02*
X1320Y2397D01*
X1356Y2397D02*
X1370Y2397D01*
X1510Y2397D02*
X1523Y2397D01*
X1974Y2397D02*
X2111Y2397D01*
X252Y2396D02*
X306Y2396D01*
X321Y2396D02*
X380Y2396D01*
X520Y2396D02*
X534Y2396D01*
X570Y2396D02*
X583Y2396D01*
X717Y2396D02*
X730Y2396D01*
X765Y2396D02*
X779Y2396D01*
X911Y2396D02*
X924Y2396D01*
X960Y2396D02*
X974Y2396D01*
X1111Y2396D02*
X1124Y2396D01*
X1159Y2396D02*
X1172Y2396D01*
X1307Y2396D02*
X1321Y2396D01*
X1356Y2396D02*
X1370Y2396D01*
X1510Y2396D02*
X1523Y2396D01*
X1973Y2396D02*
X2112Y2396D01*
X251Y2395D02*
X305Y2395D01*
X320Y2395D02*
X379Y2395D01*
X521Y2395D02*
X535Y2395D01*
X569Y2395D02*
X583Y2395D01*
X717Y2395D02*
X730Y2395D01*
X765Y2395D02*
X778Y2395D01*
X911Y2395D02*
X924Y2395D01*
X960Y2395D02*
X974Y2395D01*
X1111Y2395D02*
X1124Y2395D01*
X1159Y2395D02*
X1172Y2395D01*
X1307Y2395D02*
X1321Y2395D01*
X1356Y2395D02*
X1369Y2395D01*
X1509Y2395D02*
X1523Y2395D01*
X1972Y2395D02*
X2113Y2395D01*
X250Y2394D02*
X303Y2394D01*
X318Y2394D02*
X378Y2394D01*
X521Y2394D02*
X535Y2394D01*
X569Y2394D02*
X583Y2394D01*
X717Y2394D02*
X730Y2394D01*
X765Y2394D02*
X778Y2394D01*
X911Y2394D02*
X924Y2394D01*
X960Y2394D02*
X974Y2394D01*
X1111Y2394D02*
X1124Y2394D01*
X1159Y2394D02*
X1172Y2394D01*
X1308Y2394D02*
X1321Y2394D01*
X1356Y2394D02*
X1369Y2394D01*
X1509Y2394D02*
X1523Y2394D01*
X1971Y2394D02*
X2114Y2394D01*
X248Y2393D02*
X301Y2393D01*
X317Y2393D02*
X377Y2393D01*
X521Y2393D02*
X535Y2393D01*
X569Y2393D02*
X583Y2393D01*
X717Y2393D02*
X730Y2393D01*
X765Y2393D02*
X778Y2393D01*
X911Y2393D02*
X924Y2393D01*
X960Y2393D02*
X973Y2393D01*
X1111Y2393D02*
X1124Y2393D01*
X1158Y2393D02*
X1172Y2393D01*
X1308Y2393D02*
X1321Y2393D01*
X1356Y2393D02*
X1369Y2393D01*
X1509Y2393D02*
X1523Y2393D01*
X1971Y2393D02*
X2114Y2393D01*
X247Y2392D02*
X299Y2392D01*
X315Y2392D02*
X376Y2392D01*
X521Y2392D02*
X535Y2392D01*
X569Y2392D02*
X583Y2392D01*
X717Y2392D02*
X730Y2392D01*
X764Y2392D02*
X778Y2392D01*
X911Y2392D02*
X924Y2392D01*
X959Y2392D02*
X973Y2392D01*
X1111Y2392D02*
X1124Y2392D01*
X1158Y2392D02*
X1172Y2392D01*
X1308Y2392D02*
X1321Y2392D01*
X1356Y2392D02*
X1369Y2392D01*
X1509Y2392D02*
X1522Y2392D01*
X1970Y2392D02*
X2115Y2392D01*
X245Y2391D02*
X296Y2391D01*
X313Y2391D02*
X375Y2391D01*
X522Y2391D02*
X535Y2391D01*
X569Y2391D02*
X583Y2391D01*
X717Y2391D02*
X730Y2391D01*
X764Y2391D02*
X778Y2391D01*
X911Y2391D02*
X924Y2391D01*
X959Y2391D02*
X973Y2391D01*
X1111Y2391D02*
X1124Y2391D01*
X1158Y2391D02*
X1172Y2391D01*
X1308Y2391D02*
X1321Y2391D01*
X1356Y2391D02*
X1369Y2391D01*
X1509Y2391D02*
X1522Y2391D01*
X1970Y2391D02*
X2041Y2391D01*
X2044Y2391D02*
X2116Y2391D01*
X243Y2390D02*
X294Y2390D01*
X311Y2390D02*
X374Y2390D01*
X522Y2390D02*
X536Y2390D01*
X569Y2390D02*
X583Y2390D01*
X717Y2390D02*
X730Y2390D01*
X764Y2390D02*
X777Y2390D01*
X911Y2390D02*
X924Y2390D01*
X959Y2390D02*
X973Y2390D01*
X1111Y2390D02*
X1124Y2390D01*
X1158Y2390D02*
X1171Y2390D01*
X1308Y2390D02*
X1321Y2390D01*
X1356Y2390D02*
X1369Y2390D01*
X1508Y2390D02*
X1522Y2390D01*
X1969Y2390D02*
X2036Y2390D01*
X2049Y2390D02*
X2116Y2390D01*
X242Y2389D02*
X291Y2389D01*
X309Y2389D02*
X372Y2389D01*
X522Y2389D02*
X536Y2389D01*
X570Y2389D02*
X583Y2389D01*
X717Y2389D02*
X730Y2389D01*
X764Y2389D02*
X777Y2389D01*
X911Y2389D02*
X924Y2389D01*
X959Y2389D02*
X972Y2389D01*
X1111Y2389D02*
X1125Y2389D01*
X1158Y2389D02*
X1171Y2389D01*
X1308Y2389D02*
X1322Y2389D01*
X1356Y2389D02*
X1369Y2389D01*
X1508Y2389D02*
X1522Y2389D01*
X1969Y2389D02*
X2033Y2389D01*
X2052Y2389D02*
X2117Y2389D01*
X240Y2388D02*
X288Y2388D01*
X307Y2388D02*
X371Y2388D01*
X522Y2388D02*
X536Y2388D01*
X570Y2388D02*
X583Y2388D01*
X717Y2388D02*
X730Y2388D01*
X764Y2388D02*
X777Y2388D01*
X911Y2388D02*
X924Y2388D01*
X959Y2388D02*
X972Y2388D01*
X1111Y2388D02*
X1125Y2388D01*
X1158Y2388D02*
X1171Y2388D01*
X1308Y2388D02*
X1322Y2388D01*
X1356Y2388D02*
X1369Y2388D01*
X1508Y2388D02*
X1521Y2388D01*
X1968Y2388D02*
X2032Y2388D01*
X2054Y2388D02*
X2117Y2388D01*
X238Y2387D02*
X285Y2387D01*
X304Y2387D02*
X370Y2387D01*
X522Y2387D02*
X536Y2387D01*
X570Y2387D02*
X583Y2387D01*
X717Y2387D02*
X730Y2387D01*
X764Y2387D02*
X777Y2387D01*
X911Y2387D02*
X924Y2387D01*
X958Y2387D02*
X972Y2387D01*
X1111Y2387D02*
X1124Y2387D01*
X1158Y2387D02*
X1171Y2387D01*
X1309Y2387D02*
X1322Y2387D01*
X1356Y2387D02*
X1369Y2387D01*
X1508Y2387D02*
X1521Y2387D01*
X1968Y2387D02*
X2030Y2387D01*
X2055Y2387D02*
X2118Y2387D01*
X236Y2386D02*
X282Y2386D01*
X302Y2386D02*
X368Y2386D01*
X523Y2386D02*
X536Y2386D01*
X570Y2386D02*
X583Y2386D01*
X717Y2386D02*
X730Y2386D01*
X764Y2386D02*
X777Y2386D01*
X911Y2386D02*
X924Y2386D01*
X958Y2386D02*
X972Y2386D01*
X1111Y2386D02*
X1124Y2386D01*
X1158Y2386D02*
X1171Y2386D01*
X1309Y2386D02*
X1322Y2386D01*
X1356Y2386D02*
X1369Y2386D01*
X1507Y2386D02*
X1521Y2386D01*
X1967Y2386D02*
X2029Y2386D01*
X2056Y2386D02*
X2118Y2386D01*
X234Y2385D02*
X278Y2385D01*
X298Y2385D02*
X367Y2385D01*
X523Y2385D02*
X536Y2385D01*
X570Y2385D02*
X583Y2385D01*
X717Y2385D02*
X730Y2385D01*
X764Y2385D02*
X777Y2385D01*
X911Y2385D02*
X924Y2385D01*
X958Y2385D02*
X971Y2385D01*
X1111Y2385D02*
X1124Y2385D01*
X1158Y2385D02*
X1171Y2385D01*
X1309Y2385D02*
X1322Y2385D01*
X1356Y2385D02*
X1369Y2385D01*
X1507Y2385D02*
X1521Y2385D01*
X1967Y2385D02*
X2028Y2385D01*
X2057Y2385D02*
X2118Y2385D01*
X232Y2384D02*
X273Y2384D01*
X295Y2384D02*
X366Y2384D01*
X523Y2384D02*
X537Y2384D01*
X570Y2384D02*
X583Y2384D01*
X717Y2384D02*
X730Y2384D01*
X764Y2384D02*
X777Y2384D01*
X911Y2384D02*
X924Y2384D01*
X958Y2384D02*
X971Y2384D01*
X1111Y2384D02*
X1124Y2384D01*
X1158Y2384D02*
X1171Y2384D01*
X1309Y2384D02*
X1322Y2384D01*
X1356Y2384D02*
X1369Y2384D01*
X1507Y2384D02*
X1521Y2384D01*
X1966Y2384D02*
X2027Y2384D01*
X2058Y2384D02*
X2119Y2384D01*
X230Y2383D02*
X267Y2383D01*
X290Y2383D02*
X364Y2383D01*
X523Y2383D02*
X537Y2383D01*
X570Y2383D02*
X583Y2383D01*
X717Y2383D02*
X730Y2383D01*
X763Y2383D02*
X777Y2383D01*
X911Y2383D02*
X924Y2383D01*
X958Y2383D02*
X971Y2383D01*
X1111Y2383D02*
X1124Y2383D01*
X1158Y2383D02*
X1171Y2383D01*
X1309Y2383D02*
X1322Y2383D01*
X1356Y2383D02*
X1369Y2383D01*
X1506Y2383D02*
X1520Y2383D01*
X1966Y2383D02*
X2026Y2383D01*
X2059Y2383D02*
X2119Y2383D01*
X228Y2382D02*
X273Y2382D01*
X279Y2382D02*
X362Y2382D01*
X523Y2382D02*
X537Y2382D01*
X570Y2382D02*
X583Y2382D01*
X717Y2382D02*
X730Y2382D01*
X763Y2382D02*
X777Y2382D01*
X911Y2382D02*
X924Y2382D01*
X957Y2382D02*
X971Y2382D01*
X1111Y2382D02*
X1124Y2382D01*
X1158Y2382D02*
X1171Y2382D01*
X1308Y2382D02*
X1322Y2382D01*
X1356Y2382D02*
X1369Y2382D01*
X1506Y2382D02*
X1520Y2382D01*
X1966Y2382D02*
X2026Y2382D01*
X2060Y2382D02*
X2119Y2382D01*
X225Y2381D02*
X361Y2381D01*
X523Y2381D02*
X537Y2381D01*
X570Y2381D02*
X583Y2381D01*
X717Y2381D02*
X730Y2381D01*
X763Y2381D02*
X777Y2381D01*
X911Y2381D02*
X924Y2381D01*
X957Y2381D02*
X971Y2381D01*
X1111Y2381D02*
X1124Y2381D01*
X1158Y2381D02*
X1171Y2381D01*
X1308Y2381D02*
X1322Y2381D01*
X1356Y2381D02*
X1369Y2381D01*
X1506Y2381D02*
X1520Y2381D01*
X1966Y2381D02*
X2025Y2381D01*
X2060Y2381D02*
X2120Y2381D01*
X222Y2380D02*
X359Y2380D01*
X523Y2380D02*
X537Y2380D01*
X570Y2380D02*
X583Y2380D01*
X717Y2380D02*
X730Y2380D01*
X763Y2380D02*
X776Y2380D01*
X911Y2380D02*
X924Y2380D01*
X957Y2380D02*
X971Y2380D01*
X1110Y2380D02*
X1124Y2380D01*
X1158Y2380D02*
X1171Y2380D01*
X1308Y2380D02*
X1322Y2380D01*
X1356Y2380D02*
X1370Y2380D01*
X1506Y2380D02*
X1520Y2380D01*
X1965Y2380D02*
X2024Y2380D01*
X2061Y2380D02*
X2120Y2380D01*
X221Y2379D02*
X357Y2379D01*
X523Y2379D02*
X537Y2379D01*
X570Y2379D02*
X583Y2379D01*
X717Y2379D02*
X730Y2379D01*
X763Y2379D02*
X776Y2379D01*
X911Y2379D02*
X924Y2379D01*
X957Y2379D02*
X970Y2379D01*
X1110Y2379D02*
X1124Y2379D01*
X1158Y2379D02*
X1171Y2379D01*
X1308Y2379D02*
X1321Y2379D01*
X1356Y2379D02*
X1370Y2379D01*
X1505Y2379D02*
X1519Y2379D01*
X1965Y2379D02*
X2024Y2379D01*
X2061Y2379D02*
X2120Y2379D01*
X223Y2378D02*
X355Y2378D01*
X523Y2378D02*
X537Y2378D01*
X570Y2378D02*
X583Y2378D01*
X717Y2378D02*
X730Y2378D01*
X763Y2378D02*
X776Y2378D01*
X911Y2378D02*
X924Y2378D01*
X957Y2378D02*
X970Y2378D01*
X1110Y2378D02*
X1124Y2378D01*
X1158Y2378D02*
X1171Y2378D01*
X1308Y2378D02*
X1321Y2378D01*
X1357Y2378D02*
X1370Y2378D01*
X1505Y2378D02*
X1519Y2378D01*
X1965Y2378D02*
X2024Y2378D01*
X2062Y2378D02*
X2120Y2378D01*
X224Y2377D02*
X353Y2377D01*
X523Y2377D02*
X537Y2377D01*
X570Y2377D02*
X584Y2377D01*
X717Y2377D02*
X730Y2377D01*
X763Y2377D02*
X776Y2377D01*
X911Y2377D02*
X924Y2377D01*
X957Y2377D02*
X970Y2377D01*
X1110Y2377D02*
X1123Y2377D01*
X1158Y2377D02*
X1171Y2377D01*
X1308Y2377D02*
X1321Y2377D01*
X1357Y2377D02*
X1370Y2377D01*
X1505Y2377D02*
X1519Y2377D01*
X1965Y2377D02*
X2023Y2377D01*
X2062Y2377D02*
X2120Y2377D01*
X225Y2376D02*
X351Y2376D01*
X523Y2376D02*
X537Y2376D01*
X570Y2376D02*
X584Y2376D01*
X717Y2376D02*
X730Y2376D01*
X763Y2376D02*
X776Y2376D01*
X911Y2376D02*
X924Y2376D01*
X957Y2376D02*
X970Y2376D01*
X1109Y2376D02*
X1123Y2376D01*
X1158Y2376D02*
X1171Y2376D01*
X1308Y2376D02*
X1321Y2376D01*
X1357Y2376D02*
X1371Y2376D01*
X1504Y2376D02*
X1518Y2376D01*
X1965Y2376D02*
X2023Y2376D01*
X2062Y2376D02*
X2121Y2376D01*
X227Y2375D02*
X349Y2375D01*
X524Y2375D02*
X537Y2375D01*
X570Y2375D02*
X584Y2375D01*
X717Y2375D02*
X730Y2375D01*
X763Y2375D02*
X776Y2375D01*
X911Y2375D02*
X924Y2375D01*
X957Y2375D02*
X970Y2375D01*
X1109Y2375D02*
X1123Y2375D01*
X1158Y2375D02*
X1171Y2375D01*
X1307Y2375D02*
X1321Y2375D01*
X1357Y2375D02*
X1371Y2375D01*
X1504Y2375D02*
X1518Y2375D01*
X1965Y2375D02*
X2023Y2375D01*
X2062Y2375D02*
X2121Y2375D01*
X229Y2374D02*
X347Y2374D01*
X524Y2374D02*
X537Y2374D01*
X571Y2374D02*
X584Y2374D01*
X717Y2374D02*
X730Y2374D01*
X763Y2374D02*
X776Y2374D01*
X911Y2374D02*
X924Y2374D01*
X956Y2374D02*
X970Y2374D01*
X1109Y2374D02*
X1123Y2374D01*
X1158Y2374D02*
X1171Y2374D01*
X1307Y2374D02*
X1321Y2374D01*
X1357Y2374D02*
X1371Y2374D01*
X1503Y2374D02*
X1518Y2374D01*
X1964Y2374D02*
X2023Y2374D01*
X2062Y2374D02*
X2121Y2374D01*
X230Y2373D02*
X344Y2373D01*
X524Y2373D02*
X537Y2373D01*
X571Y2373D02*
X584Y2373D01*
X717Y2373D02*
X730Y2373D01*
X763Y2373D02*
X776Y2373D01*
X911Y2373D02*
X924Y2373D01*
X956Y2373D02*
X970Y2373D01*
X1108Y2373D02*
X1122Y2373D01*
X1158Y2373D02*
X1171Y2373D01*
X1307Y2373D02*
X1321Y2373D01*
X1358Y2373D02*
X1372Y2373D01*
X1503Y2373D02*
X1517Y2373D01*
X1964Y2373D02*
X2023Y2373D01*
X2063Y2373D02*
X2121Y2373D01*
X232Y2372D02*
X342Y2372D01*
X524Y2372D02*
X537Y2372D01*
X571Y2372D02*
X584Y2372D01*
X717Y2372D02*
X730Y2372D01*
X763Y2372D02*
X776Y2372D01*
X911Y2372D02*
X924Y2372D01*
X956Y2372D02*
X969Y2372D01*
X1108Y2372D02*
X1122Y2372D01*
X1158Y2372D02*
X1171Y2372D01*
X1307Y2372D02*
X1320Y2372D01*
X1358Y2372D02*
X1372Y2372D01*
X1503Y2372D02*
X1517Y2372D01*
X1964Y2372D02*
X2022Y2372D01*
X2063Y2372D02*
X2121Y2372D01*
X234Y2371D02*
X339Y2371D01*
X524Y2371D02*
X537Y2371D01*
X571Y2371D02*
X585Y2371D01*
X717Y2371D02*
X730Y2371D01*
X763Y2371D02*
X776Y2371D01*
X911Y2371D02*
X924Y2371D01*
X956Y2371D02*
X969Y2371D01*
X1107Y2371D02*
X1122Y2371D01*
X1158Y2371D02*
X1171Y2371D01*
X1306Y2371D02*
X1320Y2371D01*
X1358Y2371D02*
X1373Y2371D01*
X1502Y2371D02*
X1517Y2371D01*
X1964Y2371D02*
X2022Y2371D01*
X2063Y2371D02*
X2121Y2371D01*
X236Y2370D02*
X336Y2370D01*
X524Y2370D02*
X537Y2370D01*
X571Y2370D02*
X585Y2370D01*
X717Y2370D02*
X730Y2370D01*
X763Y2370D02*
X776Y2370D01*
X911Y2370D02*
X924Y2370D01*
X956Y2370D02*
X969Y2370D01*
X1107Y2370D02*
X1121Y2370D01*
X1158Y2370D02*
X1171Y2370D01*
X1306Y2370D02*
X1320Y2370D01*
X1359Y2370D02*
X1373Y2370D01*
X1502Y2370D02*
X1516Y2370D01*
X1964Y2370D02*
X2023Y2370D01*
X2063Y2370D02*
X2121Y2370D01*
X239Y2369D02*
X333Y2369D01*
X524Y2369D02*
X537Y2369D01*
X571Y2369D02*
X585Y2369D01*
X717Y2369D02*
X730Y2369D01*
X763Y2369D02*
X776Y2369D01*
X911Y2369D02*
X924Y2369D01*
X956Y2369D02*
X969Y2369D01*
X1106Y2369D02*
X1121Y2369D01*
X1158Y2369D02*
X1171Y2369D01*
X1305Y2369D02*
X1320Y2369D01*
X1359Y2369D02*
X1374Y2369D01*
X1501Y2369D02*
X1516Y2369D01*
X1964Y2369D02*
X2023Y2369D01*
X2062Y2369D02*
X2121Y2369D01*
X241Y2368D02*
X329Y2368D01*
X524Y2368D02*
X537Y2368D01*
X572Y2368D02*
X585Y2368D01*
X717Y2368D02*
X730Y2368D01*
X763Y2368D02*
X776Y2368D01*
X911Y2368D02*
X924Y2368D01*
X956Y2368D02*
X969Y2368D01*
X1106Y2368D02*
X1121Y2368D01*
X1158Y2368D02*
X1171Y2368D01*
X1305Y2368D02*
X1319Y2368D01*
X1359Y2368D02*
X1374Y2368D01*
X1501Y2368D02*
X1515Y2368D01*
X1965Y2368D02*
X2023Y2368D01*
X2062Y2368D02*
X2121Y2368D01*
X245Y2367D02*
X325Y2367D01*
X524Y2367D02*
X537Y2367D01*
X572Y2367D02*
X586Y2367D01*
X717Y2367D02*
X730Y2367D01*
X763Y2367D02*
X776Y2367D01*
X911Y2367D02*
X924Y2367D01*
X956Y2367D02*
X969Y2367D01*
X1105Y2367D02*
X1120Y2367D01*
X1158Y2367D02*
X1171Y2367D01*
X1304Y2367D02*
X1319Y2367D01*
X1360Y2367D02*
X1375Y2367D01*
X1500Y2367D02*
X1515Y2367D01*
X1965Y2367D02*
X2023Y2367D01*
X2062Y2367D02*
X2121Y2367D01*
X248Y2366D02*
X321Y2366D01*
X524Y2366D02*
X537Y2366D01*
X572Y2366D02*
X586Y2366D01*
X717Y2366D02*
X730Y2366D01*
X763Y2366D02*
X777Y2366D01*
X911Y2366D02*
X924Y2366D01*
X956Y2366D02*
X969Y2366D01*
X1105Y2366D02*
X1120Y2366D01*
X1158Y2366D02*
X1171Y2366D01*
X1304Y2366D02*
X1319Y2366D01*
X1360Y2366D02*
X1375Y2366D01*
X1500Y2366D02*
X1515Y2366D01*
X1965Y2366D02*
X2023Y2366D01*
X2062Y2366D02*
X2120Y2366D01*
X252Y2365D02*
X317Y2365D01*
X524Y2365D02*
X537Y2365D01*
X572Y2365D02*
X587Y2365D01*
X717Y2365D02*
X730Y2365D01*
X763Y2365D02*
X777Y2365D01*
X911Y2365D02*
X924Y2365D01*
X956Y2365D02*
X969Y2365D01*
X1104Y2365D02*
X1119Y2365D01*
X1158Y2365D02*
X1171Y2365D01*
X1303Y2365D02*
X1318Y2365D01*
X1361Y2365D02*
X1376Y2365D01*
X1499Y2365D02*
X1514Y2365D01*
X1965Y2365D02*
X2024Y2365D01*
X2062Y2365D02*
X2120Y2365D01*
X256Y2364D02*
X311Y2364D01*
X524Y2364D02*
X537Y2364D01*
X573Y2364D02*
X587Y2364D01*
X717Y2364D02*
X730Y2364D01*
X763Y2364D02*
X777Y2364D01*
X911Y2364D02*
X924Y2364D01*
X956Y2364D02*
X969Y2364D01*
X1104Y2364D02*
X1119Y2364D01*
X1158Y2364D02*
X1171Y2364D01*
X1303Y2364D02*
X1318Y2364D01*
X1361Y2364D02*
X1376Y2364D01*
X1498Y2364D02*
X1514Y2364D01*
X1965Y2364D02*
X2024Y2364D01*
X2061Y2364D02*
X2120Y2364D01*
X262Y2363D02*
X305Y2363D01*
X523Y2363D02*
X537Y2363D01*
X573Y2363D02*
X588Y2363D01*
X717Y2363D02*
X730Y2363D01*
X763Y2363D02*
X777Y2363D01*
X911Y2363D02*
X924Y2363D01*
X956Y2363D02*
X969Y2363D01*
X1103Y2363D02*
X1118Y2363D01*
X1158Y2363D02*
X1171Y2363D01*
X1302Y2363D02*
X1317Y2363D01*
X1362Y2363D02*
X1377Y2363D01*
X1498Y2363D02*
X1513Y2363D01*
X1965Y2363D02*
X2024Y2363D01*
X2061Y2363D02*
X2120Y2363D01*
X272Y2362D02*
X294Y2362D01*
X523Y2362D02*
X537Y2362D01*
X573Y2362D02*
X588Y2362D01*
X717Y2362D02*
X730Y2362D01*
X763Y2362D02*
X777Y2362D01*
X911Y2362D02*
X924Y2362D01*
X956Y2362D02*
X969Y2362D01*
X1102Y2362D02*
X1118Y2362D01*
X1158Y2362D02*
X1171Y2362D01*
X1302Y2362D02*
X1317Y2362D01*
X1362Y2362D02*
X1378Y2362D01*
X1497Y2362D02*
X1513Y2362D01*
X1966Y2362D02*
X2025Y2362D01*
X2060Y2362D02*
X2120Y2362D01*
X523Y2361D02*
X537Y2361D01*
X574Y2361D02*
X588Y2361D01*
X717Y2361D02*
X730Y2361D01*
X764Y2361D02*
X777Y2361D01*
X911Y2361D02*
X924Y2361D01*
X956Y2361D02*
X969Y2361D01*
X1102Y2361D02*
X1117Y2361D01*
X1158Y2361D02*
X1171Y2361D01*
X1301Y2361D02*
X1316Y2361D01*
X1363Y2361D02*
X1378Y2361D01*
X1496Y2361D02*
X1512Y2361D01*
X1966Y2361D02*
X2025Y2361D01*
X2060Y2361D02*
X2119Y2361D01*
X523Y2360D02*
X537Y2360D01*
X574Y2360D02*
X589Y2360D01*
X717Y2360D02*
X730Y2360D01*
X764Y2360D02*
X777Y2360D01*
X911Y2360D02*
X924Y2360D01*
X956Y2360D02*
X969Y2360D01*
X1101Y2360D02*
X1117Y2360D01*
X1158Y2360D02*
X1171Y2360D01*
X1301Y2360D02*
X1316Y2360D01*
X1363Y2360D02*
X1379Y2360D01*
X1496Y2360D02*
X1512Y2360D01*
X1966Y2360D02*
X2026Y2360D01*
X2059Y2360D02*
X2119Y2360D01*
X523Y2359D02*
X537Y2359D01*
X575Y2359D02*
X590Y2359D01*
X717Y2359D02*
X730Y2359D01*
X764Y2359D02*
X777Y2359D01*
X911Y2359D02*
X924Y2359D01*
X956Y2359D02*
X969Y2359D01*
X1100Y2359D02*
X1116Y2359D01*
X1158Y2359D02*
X1172Y2359D01*
X1300Y2359D02*
X1315Y2359D01*
X1364Y2359D02*
X1380Y2359D01*
X1495Y2359D02*
X1511Y2359D01*
X1966Y2359D02*
X2027Y2359D01*
X2058Y2359D02*
X2119Y2359D01*
X523Y2358D02*
X537Y2358D01*
X575Y2358D02*
X590Y2358D01*
X717Y2358D02*
X730Y2358D01*
X764Y2358D02*
X777Y2358D01*
X911Y2358D02*
X924Y2358D01*
X956Y2358D02*
X969Y2358D01*
X1100Y2358D02*
X1116Y2358D01*
X1158Y2358D02*
X1172Y2358D01*
X1299Y2358D02*
X1315Y2358D01*
X1364Y2358D02*
X1381Y2358D01*
X1494Y2358D02*
X1510Y2358D01*
X1967Y2358D02*
X2028Y2358D01*
X2057Y2358D02*
X2118Y2358D01*
X523Y2357D02*
X537Y2357D01*
X576Y2357D02*
X591Y2357D01*
X717Y2357D02*
X730Y2357D01*
X764Y2357D02*
X777Y2357D01*
X911Y2357D02*
X924Y2357D01*
X956Y2357D02*
X969Y2357D01*
X1099Y2357D02*
X1115Y2357D01*
X1158Y2357D02*
X1172Y2357D01*
X1298Y2357D02*
X1314Y2357D01*
X1365Y2357D02*
X1382Y2357D01*
X1493Y2357D02*
X1510Y2357D01*
X1967Y2357D02*
X2029Y2357D01*
X2056Y2357D02*
X2118Y2357D01*
X523Y2356D02*
X536Y2356D01*
X576Y2356D02*
X591Y2356D01*
X717Y2356D02*
X730Y2356D01*
X764Y2356D02*
X777Y2356D01*
X911Y2356D02*
X924Y2356D01*
X956Y2356D02*
X969Y2356D01*
X1098Y2356D02*
X1114Y2356D01*
X1158Y2356D02*
X1172Y2356D01*
X1298Y2356D02*
X1314Y2356D01*
X1366Y2356D02*
X1383Y2356D01*
X1492Y2356D02*
X1509Y2356D01*
X1968Y2356D02*
X2030Y2356D01*
X2055Y2356D02*
X2118Y2356D01*
X523Y2355D02*
X536Y2355D01*
X576Y2355D02*
X592Y2355D01*
X717Y2355D02*
X730Y2355D01*
X764Y2355D02*
X777Y2355D01*
X911Y2355D02*
X924Y2355D01*
X956Y2355D02*
X969Y2355D01*
X1097Y2355D02*
X1114Y2355D01*
X1159Y2355D02*
X1172Y2355D01*
X1297Y2355D02*
X1313Y2355D01*
X1366Y2355D02*
X1383Y2355D01*
X1491Y2355D02*
X1508Y2355D01*
X1968Y2355D02*
X2031Y2355D01*
X2054Y2355D02*
X2117Y2355D01*
X523Y2354D02*
X536Y2354D01*
X577Y2354D02*
X593Y2354D01*
X717Y2354D02*
X730Y2354D01*
X764Y2354D02*
X777Y2354D01*
X911Y2354D02*
X924Y2354D01*
X956Y2354D02*
X969Y2354D01*
X1097Y2354D02*
X1113Y2354D01*
X1159Y2354D02*
X1172Y2354D01*
X1296Y2354D02*
X1312Y2354D01*
X1367Y2354D02*
X1384Y2354D01*
X1490Y2354D02*
X1508Y2354D01*
X1968Y2354D02*
X2033Y2354D01*
X2052Y2354D02*
X2117Y2354D01*
X523Y2353D02*
X536Y2353D01*
X578Y2353D02*
X594Y2353D01*
X717Y2353D02*
X730Y2353D01*
X764Y2353D02*
X777Y2353D01*
X911Y2353D02*
X924Y2353D01*
X956Y2353D02*
X969Y2353D01*
X1096Y2353D02*
X1112Y2353D01*
X1159Y2353D02*
X1172Y2353D01*
X1295Y2353D02*
X1312Y2353D01*
X1368Y2353D02*
X1385Y2353D01*
X1489Y2353D02*
X1507Y2353D01*
X1969Y2353D02*
X2035Y2353D01*
X2050Y2353D02*
X2116Y2353D01*
X523Y2352D02*
X536Y2352D01*
X578Y2352D02*
X594Y2352D01*
X717Y2352D02*
X730Y2352D01*
X764Y2352D02*
X777Y2352D01*
X911Y2352D02*
X924Y2352D01*
X956Y2352D02*
X969Y2352D01*
X1095Y2352D02*
X1112Y2352D01*
X1159Y2352D02*
X1172Y2352D01*
X1294Y2352D02*
X1311Y2352D01*
X1369Y2352D02*
X1386Y2352D01*
X1488Y2352D02*
X1506Y2352D01*
X1969Y2352D02*
X2040Y2352D01*
X2045Y2352D02*
X2116Y2352D01*
X523Y2351D02*
X536Y2351D01*
X579Y2351D02*
X595Y2351D01*
X717Y2351D02*
X730Y2351D01*
X764Y2351D02*
X778Y2351D01*
X911Y2351D02*
X924Y2351D01*
X956Y2351D02*
X969Y2351D01*
X1094Y2351D02*
X1111Y2351D01*
X1159Y2351D02*
X1172Y2351D01*
X1293Y2351D02*
X1311Y2351D01*
X1369Y2351D02*
X1388Y2351D01*
X1487Y2351D02*
X1505Y2351D01*
X1970Y2351D02*
X2115Y2351D01*
X523Y2350D02*
X536Y2350D01*
X579Y2350D02*
X596Y2350D01*
X717Y2350D02*
X730Y2350D01*
X764Y2350D02*
X778Y2350D01*
X911Y2350D02*
X924Y2350D01*
X956Y2350D02*
X969Y2350D01*
X1093Y2350D02*
X1110Y2350D01*
X1159Y2350D02*
X1172Y2350D01*
X1292Y2350D02*
X1310Y2350D01*
X1370Y2350D02*
X1389Y2350D01*
X1486Y2350D02*
X1505Y2350D01*
X1971Y2350D02*
X2114Y2350D01*
X523Y2349D02*
X536Y2349D01*
X580Y2349D02*
X597Y2349D01*
X717Y2349D02*
X730Y2349D01*
X764Y2349D02*
X778Y2349D01*
X911Y2349D02*
X924Y2349D01*
X956Y2349D02*
X969Y2349D01*
X1092Y2349D02*
X1110Y2349D01*
X1159Y2349D02*
X1172Y2349D01*
X1291Y2349D02*
X1309Y2349D01*
X1371Y2349D02*
X1390Y2349D01*
X1485Y2349D02*
X1504Y2349D01*
X1971Y2349D02*
X2114Y2349D01*
X522Y2348D02*
X536Y2348D01*
X581Y2348D02*
X598Y2348D01*
X717Y2348D02*
X730Y2348D01*
X764Y2348D02*
X778Y2348D01*
X911Y2348D02*
X924Y2348D01*
X956Y2348D02*
X969Y2348D01*
X1091Y2348D02*
X1109Y2348D01*
X1159Y2348D02*
X1173Y2348D01*
X1290Y2348D02*
X1308Y2348D01*
X1372Y2348D02*
X1391Y2348D01*
X1483Y2348D02*
X1503Y2348D01*
X1972Y2348D02*
X2113Y2348D01*
X522Y2347D02*
X536Y2347D01*
X581Y2347D02*
X599Y2347D01*
X717Y2347D02*
X730Y2347D01*
X765Y2347D02*
X778Y2347D01*
X911Y2347D02*
X924Y2347D01*
X956Y2347D02*
X969Y2347D01*
X1090Y2347D02*
X1108Y2347D01*
X1159Y2347D02*
X1173Y2347D01*
X1289Y2347D02*
X1307Y2347D01*
X1373Y2347D02*
X1393Y2347D01*
X1482Y2347D02*
X1502Y2347D01*
X1973Y2347D02*
X2112Y2347D01*
X522Y2346D02*
X536Y2346D01*
X582Y2346D02*
X600Y2346D01*
X717Y2346D02*
X730Y2346D01*
X765Y2346D02*
X778Y2346D01*
X911Y2346D02*
X924Y2346D01*
X956Y2346D02*
X969Y2346D01*
X1089Y2346D02*
X1107Y2346D01*
X1159Y2346D02*
X1173Y2346D01*
X1288Y2346D02*
X1307Y2346D01*
X1374Y2346D02*
X1394Y2346D01*
X1481Y2346D02*
X1501Y2346D01*
X1974Y2346D02*
X2111Y2346D01*
X522Y2345D02*
X536Y2345D01*
X583Y2345D02*
X601Y2345D01*
X717Y2345D02*
X730Y2345D01*
X765Y2345D02*
X778Y2345D01*
X911Y2345D02*
X924Y2345D01*
X956Y2345D02*
X970Y2345D01*
X1088Y2345D02*
X1106Y2345D01*
X1160Y2345D02*
X1173Y2345D01*
X1286Y2345D02*
X1306Y2345D01*
X1375Y2345D02*
X1396Y2345D01*
X1479Y2345D02*
X1500Y2345D01*
X1975Y2345D02*
X2111Y2345D01*
X522Y2344D02*
X535Y2344D01*
X584Y2344D02*
X602Y2344D01*
X717Y2344D02*
X730Y2344D01*
X765Y2344D02*
X778Y2344D01*
X911Y2344D02*
X924Y2344D01*
X956Y2344D02*
X970Y2344D01*
X1087Y2344D02*
X1106Y2344D01*
X1160Y2344D02*
X1173Y2344D01*
X1285Y2344D02*
X1305Y2344D01*
X1375Y2344D02*
X1397Y2344D01*
X1477Y2344D02*
X1499Y2344D01*
X1976Y2344D02*
X2110Y2344D01*
X522Y2343D02*
X535Y2343D01*
X584Y2343D02*
X603Y2343D01*
X717Y2343D02*
X730Y2343D01*
X765Y2343D02*
X778Y2343D01*
X911Y2343D02*
X924Y2343D01*
X957Y2343D02*
X970Y2343D01*
X1085Y2343D02*
X1105Y2343D01*
X1160Y2343D02*
X1173Y2343D01*
X1284Y2343D02*
X1304Y2343D01*
X1376Y2343D02*
X1399Y2343D01*
X1476Y2343D02*
X1498Y2343D01*
X1977Y2343D02*
X2109Y2343D01*
X522Y2342D02*
X535Y2342D01*
X585Y2342D02*
X604Y2342D01*
X717Y2342D02*
X730Y2342D01*
X765Y2342D02*
X778Y2342D01*
X911Y2342D02*
X924Y2342D01*
X957Y2342D02*
X970Y2342D01*
X1084Y2342D02*
X1104Y2342D01*
X1160Y2342D02*
X1173Y2342D01*
X1282Y2342D02*
X1303Y2342D01*
X1378Y2342D02*
X1401Y2342D01*
X1473Y2342D02*
X1497Y2342D01*
X1978Y2342D02*
X2107Y2342D01*
X522Y2341D02*
X535Y2341D01*
X586Y2341D02*
X605Y2341D01*
X717Y2341D02*
X730Y2341D01*
X765Y2341D02*
X779Y2341D01*
X911Y2341D02*
X924Y2341D01*
X957Y2341D02*
X970Y2341D01*
X1082Y2341D02*
X1103Y2341D01*
X1160Y2341D02*
X1174Y2341D01*
X1280Y2341D02*
X1302Y2341D01*
X1379Y2341D02*
X1403Y2341D01*
X1471Y2341D02*
X1496Y2341D01*
X1979Y2341D02*
X2106Y2341D01*
X522Y2340D02*
X535Y2340D01*
X587Y2340D02*
X607Y2340D01*
X717Y2340D02*
X730Y2340D01*
X765Y2340D02*
X779Y2340D01*
X911Y2340D02*
X924Y2340D01*
X957Y2340D02*
X970Y2340D01*
X1080Y2340D02*
X1102Y2340D01*
X1160Y2340D02*
X1174Y2340D01*
X1278Y2340D02*
X1301Y2340D01*
X1380Y2340D02*
X1406Y2340D01*
X1469Y2340D02*
X1495Y2340D01*
X1980Y2340D02*
X2105Y2340D01*
X521Y2339D02*
X535Y2339D01*
X588Y2339D02*
X608Y2339D01*
X717Y2339D02*
X730Y2339D01*
X765Y2339D02*
X779Y2339D01*
X911Y2339D02*
X924Y2339D01*
X957Y2339D02*
X970Y2339D01*
X1078Y2339D02*
X1101Y2339D01*
X1160Y2339D02*
X1174Y2339D01*
X1276Y2339D02*
X1300Y2339D01*
X1381Y2339D02*
X1409Y2339D01*
X1466Y2339D02*
X1494Y2339D01*
X1981Y2339D02*
X2104Y2339D01*
X521Y2338D02*
X535Y2338D01*
X589Y2338D02*
X610Y2338D01*
X717Y2338D02*
X730Y2338D01*
X766Y2338D02*
X779Y2338D01*
X911Y2338D02*
X924Y2338D01*
X957Y2338D02*
X970Y2338D01*
X1005Y2338D02*
X1010Y2338D01*
X1076Y2338D02*
X1100Y2338D01*
X1161Y2338D02*
X1174Y2338D01*
X1203Y2338D02*
X1206Y2338D01*
X1274Y2338D02*
X1299Y2338D01*
X1382Y2338D02*
X1412Y2338D01*
X1463Y2338D02*
X1493Y2338D01*
X1983Y2338D02*
X2102Y2338D01*
X521Y2337D02*
X535Y2337D01*
X590Y2337D02*
X611Y2337D01*
X717Y2337D02*
X730Y2337D01*
X766Y2337D02*
X779Y2337D01*
X911Y2337D02*
X924Y2337D01*
X957Y2337D02*
X971Y2337D01*
X1003Y2337D02*
X1017Y2337D01*
X1074Y2337D02*
X1099Y2337D01*
X1161Y2337D02*
X1174Y2337D01*
X1201Y2337D02*
X1212Y2337D01*
X1272Y2337D02*
X1298Y2337D01*
X1383Y2337D02*
X1416Y2337D01*
X1459Y2337D02*
X1491Y2337D01*
X1985Y2337D02*
X2100Y2337D01*
X521Y2336D02*
X534Y2336D01*
X591Y2336D02*
X613Y2336D01*
X717Y2336D02*
X730Y2336D01*
X766Y2336D02*
X779Y2336D01*
X911Y2336D02*
X924Y2336D01*
X957Y2336D02*
X971Y2336D01*
X1002Y2336D02*
X1025Y2336D01*
X1070Y2336D02*
X1098Y2336D01*
X1161Y2336D02*
X1174Y2336D01*
X1200Y2336D02*
X1220Y2336D01*
X1268Y2336D02*
X1297Y2336D01*
X1385Y2336D02*
X1420Y2336D01*
X1455Y2336D02*
X1490Y2336D01*
X1987Y2336D02*
X2098Y2336D01*
X521Y2335D02*
X534Y2335D01*
X592Y2335D02*
X615Y2335D01*
X717Y2335D02*
X730Y2335D01*
X766Y2335D02*
X779Y2335D01*
X911Y2335D02*
X924Y2335D01*
X958Y2335D02*
X971Y2335D01*
X1001Y2335D02*
X1035Y2335D01*
X1063Y2335D02*
X1097Y2335D01*
X1161Y2335D02*
X1175Y2335D01*
X1199Y2335D02*
X1230Y2335D01*
X1262Y2335D02*
X1295Y2335D01*
X1386Y2335D02*
X1427Y2335D01*
X1448Y2335D02*
X1489Y2335D01*
X1989Y2335D02*
X2096Y2335D01*
X521Y2334D02*
X534Y2334D01*
X593Y2334D02*
X618Y2334D01*
X717Y2334D02*
X730Y2334D01*
X766Y2334D02*
X780Y2334D01*
X911Y2334D02*
X924Y2334D01*
X958Y2334D02*
X971Y2334D01*
X1001Y2334D02*
X1096Y2334D01*
X1161Y2334D02*
X1175Y2334D01*
X1198Y2334D02*
X1294Y2334D01*
X1388Y2334D02*
X1487Y2334D01*
X1992Y2334D02*
X2094Y2334D01*
X521Y2333D02*
X534Y2333D01*
X594Y2333D02*
X620Y2333D01*
X717Y2333D02*
X730Y2333D01*
X766Y2333D02*
X780Y2333D01*
X911Y2333D02*
X924Y2333D01*
X958Y2333D02*
X971Y2333D01*
X1001Y2333D02*
X1094Y2333D01*
X1161Y2333D02*
X1175Y2333D01*
X1198Y2333D02*
X1293Y2333D01*
X1389Y2333D02*
X1486Y2333D01*
X1995Y2333D02*
X2090Y2333D01*
X520Y2332D02*
X534Y2332D01*
X595Y2332D02*
X623Y2332D01*
X717Y2332D02*
X730Y2332D01*
X766Y2332D02*
X780Y2332D01*
X911Y2332D02*
X924Y2332D01*
X958Y2332D02*
X972Y2332D01*
X1000Y2332D02*
X1093Y2332D01*
X1161Y2332D02*
X1175Y2332D01*
X1198Y2332D02*
X1292Y2332D01*
X1391Y2332D02*
X1484Y2332D01*
X520Y2331D02*
X534Y2331D01*
X596Y2331D02*
X626Y2331D01*
X716Y2331D02*
X730Y2331D01*
X766Y2331D02*
X780Y2331D01*
X911Y2331D02*
X924Y2331D01*
X958Y2331D02*
X972Y2331D01*
X1000Y2331D02*
X1092Y2331D01*
X1162Y2331D02*
X1175Y2331D01*
X1198Y2331D02*
X1290Y2331D01*
X1392Y2331D02*
X1482Y2331D01*
X520Y2330D02*
X534Y2330D01*
X598Y2330D02*
X629Y2330D01*
X714Y2330D02*
X730Y2330D01*
X767Y2330D02*
X780Y2330D01*
X911Y2330D02*
X924Y2330D01*
X958Y2330D02*
X972Y2330D01*
X1000Y2330D02*
X1090Y2330D01*
X1162Y2330D02*
X1175Y2330D01*
X1198Y2330D02*
X1289Y2330D01*
X1394Y2330D02*
X1480Y2330D01*
X520Y2329D02*
X533Y2329D01*
X599Y2329D02*
X632Y2329D01*
X711Y2329D02*
X730Y2329D01*
X767Y2329D02*
X780Y2329D01*
X911Y2329D02*
X924Y2329D01*
X959Y2329D02*
X972Y2329D01*
X1001Y2329D02*
X1089Y2329D01*
X1162Y2329D02*
X1175Y2329D01*
X1198Y2329D02*
X1287Y2329D01*
X1396Y2329D02*
X1478Y2329D01*
X520Y2328D02*
X533Y2328D01*
X600Y2328D02*
X636Y2328D01*
X708Y2328D02*
X730Y2328D01*
X767Y2328D02*
X780Y2328D01*
X911Y2328D02*
X924Y2328D01*
X959Y2328D02*
X972Y2328D01*
X1001Y2328D02*
X1087Y2328D01*
X1162Y2328D02*
X1174Y2328D01*
X1198Y2328D02*
X1285Y2328D01*
X1398Y2328D02*
X1476Y2328D01*
X520Y2327D02*
X533Y2327D01*
X602Y2327D02*
X640Y2327D01*
X705Y2327D02*
X730Y2327D01*
X767Y2327D02*
X780Y2327D01*
X911Y2327D02*
X924Y2327D01*
X959Y2327D02*
X973Y2327D01*
X1002Y2327D02*
X1086Y2327D01*
X1163Y2327D02*
X1174Y2327D01*
X1199Y2327D02*
X1283Y2327D01*
X1401Y2327D02*
X1474Y2327D01*
X520Y2326D02*
X533Y2326D01*
X603Y2326D02*
X645Y2326D01*
X701Y2326D02*
X730Y2326D01*
X767Y2326D02*
X780Y2326D01*
X911Y2326D02*
X924Y2326D01*
X959Y2326D02*
X973Y2326D01*
X1003Y2326D02*
X1084Y2326D01*
X1164Y2326D02*
X1173Y2326D01*
X1200Y2326D02*
X1281Y2326D01*
X1403Y2326D02*
X1471Y2326D01*
X520Y2325D02*
X533Y2325D01*
X605Y2325D02*
X651Y2325D01*
X696Y2325D02*
X730Y2325D01*
X767Y2325D02*
X780Y2325D01*
X911Y2325D02*
X924Y2325D01*
X959Y2325D02*
X973Y2325D01*
X1004Y2325D02*
X1082Y2325D01*
X1165Y2325D02*
X1172Y2325D01*
X1201Y2325D02*
X1279Y2325D01*
X1407Y2325D02*
X1468Y2325D01*
X520Y2324D02*
X532Y2324D01*
X606Y2324D02*
X659Y2324D01*
X688Y2324D02*
X730Y2324D01*
X768Y2324D02*
X780Y2324D01*
X911Y2324D02*
X923Y2324D01*
X960Y2324D02*
X973Y2324D01*
X1008Y2324D02*
X1079Y2324D01*
X1168Y2324D02*
X1168Y2324D01*
X1204Y2324D02*
X1277Y2324D01*
X1410Y2324D02*
X1465Y2324D01*
X521Y2323D02*
X532Y2323D01*
X608Y2323D02*
X729Y2323D01*
X768Y2323D02*
X779Y2323D01*
X912Y2323D02*
X923Y2323D01*
X960Y2323D02*
X974Y2323D01*
X1014Y2323D02*
X1076Y2323D01*
X1210Y2323D02*
X1274Y2323D01*
X1414Y2323D02*
X1461Y2323D01*
X522Y2322D02*
X531Y2322D01*
X610Y2322D02*
X728Y2322D01*
X769Y2322D02*
X778Y2322D01*
X913Y2322D02*
X922Y2322D01*
X960Y2322D02*
X974Y2322D01*
X1022Y2322D02*
X1071Y2322D01*
X1218Y2322D02*
X1270Y2322D01*
X1419Y2322D02*
X1456Y2322D01*
X523Y2321D02*
X530Y2321D01*
X613Y2321D02*
X727Y2321D01*
X771Y2321D02*
X777Y2321D01*
X914Y2321D02*
X921Y2321D01*
X960Y2321D02*
X974Y2321D01*
X1033Y2321D02*
X1065Y2321D01*
X1227Y2321D02*
X1264Y2321D01*
X1426Y2321D02*
X1449Y2321D01*
X526Y2320D02*
X527Y2320D01*
X615Y2320D02*
X725Y2320D01*
X773Y2320D02*
X774Y2320D01*
X917Y2320D02*
X918Y2320D01*
X961Y2320D02*
X974Y2320D01*
X1244Y2320D02*
X1251Y2320D01*
X618Y2319D02*
X723Y2319D01*
X961Y2319D02*
X975Y2319D01*
X620Y2318D02*
X721Y2318D01*
X961Y2318D02*
X975Y2318D01*
X623Y2317D02*
X719Y2317D01*
X961Y2317D02*
X975Y2317D01*
X627Y2316D02*
X716Y2316D01*
X962Y2316D02*
X976Y2316D01*
X630Y2315D02*
X713Y2315D01*
X962Y2315D02*
X976Y2315D01*
X634Y2314D02*
X710Y2314D01*
X962Y2314D02*
X976Y2314D01*
X639Y2313D02*
X706Y2313D01*
X962Y2313D02*
X977Y2313D01*
X644Y2312D02*
X702Y2312D01*
X963Y2312D02*
X977Y2312D01*
X650Y2311D02*
X696Y2311D01*
X963Y2311D02*
X977Y2311D01*
X659Y2310D02*
X688Y2310D01*
X963Y2310D02*
X977Y2310D01*
X964Y2309D02*
X978Y2309D01*
X964Y2308D02*
X978Y2308D01*
X964Y2307D02*
X979Y2307D01*
X965Y2306D02*
X979Y2306D01*
X965Y2305D02*
X979Y2305D01*
X965Y2304D02*
X980Y2304D01*
X966Y2303D02*
X980Y2303D01*
X966Y2302D02*
X981Y2302D01*
X967Y2301D02*
X981Y2301D01*
X967Y2300D02*
X982Y2300D01*
X967Y2299D02*
X982Y2299D01*
X968Y2298D02*
X983Y2298D01*
X968Y2297D02*
X983Y2297D01*
X969Y2296D02*
X984Y2296D01*
X969Y2295D02*
X984Y2295D01*
X970Y2294D02*
X985Y2294D01*
X970Y2293D02*
X985Y2293D01*
X971Y2292D02*
X986Y2292D01*
X971Y2291D02*
X987Y2291D01*
X972Y2290D02*
X987Y2290D01*
X972Y2289D02*
X988Y2289D01*
X973Y2288D02*
X989Y2288D01*
X974Y2287D02*
X989Y2287D01*
X974Y2286D02*
X990Y2286D01*
X975Y2285D02*
X991Y2285D01*
X975Y2284D02*
X992Y2284D01*
X976Y2283D02*
X993Y2283D01*
X977Y2282D02*
X993Y2282D01*
X977Y2281D02*
X994Y2281D01*
X978Y2280D02*
X995Y2280D01*
X979Y2279D02*
X996Y2279D01*
X980Y2278D02*
X997Y2278D01*
X980Y2277D02*
X998Y2277D01*
X981Y2276D02*
X1000Y2276D01*
X982Y2275D02*
X1001Y2275D01*
X983Y2274D02*
X1002Y2274D01*
X984Y2273D02*
X1004Y2273D01*
X985Y2272D02*
X1005Y2272D01*
X985Y2271D02*
X1007Y2271D01*
X986Y2270D02*
X1009Y2270D01*
X1106Y2270D02*
X1109Y2270D01*
X987Y2269D02*
X1011Y2269D01*
X1100Y2269D02*
X1111Y2269D01*
X988Y2268D02*
X1014Y2268D01*
X1094Y2268D02*
X1112Y2268D01*
X990Y2267D02*
X1017Y2267D01*
X1088Y2267D02*
X1113Y2267D01*
X991Y2266D02*
X1021Y2266D01*
X1080Y2266D02*
X1113Y2266D01*
X992Y2265D02*
X1026Y2265D01*
X1071Y2265D02*
X1114Y2265D01*
X993Y2264D02*
X1036Y2264D01*
X1056Y2264D02*
X1114Y2264D01*
X994Y2263D02*
X1114Y2263D01*
X996Y2262D02*
X1114Y2262D01*
X997Y2261D02*
X1114Y2261D01*
X998Y2260D02*
X1113Y2260D01*
X1000Y2259D02*
X1113Y2259D01*
X1002Y2258D02*
X1112Y2258D01*
X1004Y2257D02*
X1111Y2257D01*
X1006Y2256D02*
X1108Y2256D01*
X1009Y2255D02*
X1102Y2255D01*
X1011Y2254D02*
X1097Y2254D01*
X1015Y2253D02*
X1090Y2253D01*
X1920Y2253D02*
X1929Y2253D01*
X2168Y2253D02*
X2177Y2253D01*
X1019Y2252D02*
X1082Y2252D01*
X1915Y2252D02*
X1934Y2252D01*
X2163Y2252D02*
X2182Y2252D01*
X1025Y2251D02*
X1072Y2251D01*
X1912Y2251D02*
X1937Y2251D01*
X2160Y2251D02*
X2185Y2251D01*
X1035Y2250D02*
X1060Y2250D01*
X1909Y2250D02*
X1940Y2250D01*
X2157Y2250D02*
X2188Y2250D01*
X1907Y2249D02*
X1942Y2249D01*
X2155Y2249D02*
X2190Y2249D01*
X1905Y2248D02*
X1944Y2248D01*
X2153Y2248D02*
X2192Y2248D01*
X1904Y2247D02*
X1945Y2247D01*
X2152Y2247D02*
X2193Y2247D01*
X1902Y2246D02*
X1947Y2246D01*
X2150Y2246D02*
X2195Y2246D01*
X1901Y2245D02*
X1948Y2245D01*
X2149Y2245D02*
X2196Y2245D01*
X1900Y2244D02*
X1949Y2244D01*
X2148Y2244D02*
X2197Y2244D01*
X1898Y2243D02*
X1951Y2243D01*
X2146Y2243D02*
X2199Y2243D01*
X1897Y2242D02*
X1952Y2242D01*
X2145Y2242D02*
X2200Y2242D01*
X1896Y2241D02*
X1953Y2241D01*
X2144Y2241D02*
X2201Y2241D01*
X1895Y2240D02*
X1953Y2240D01*
X2143Y2240D02*
X2201Y2240D01*
X1895Y2239D02*
X1954Y2239D01*
X2143Y2239D02*
X2202Y2239D01*
X1894Y2238D02*
X1955Y2238D01*
X2142Y2238D02*
X2203Y2238D01*
X1893Y2237D02*
X1956Y2237D01*
X2141Y2237D02*
X2204Y2237D01*
X1892Y2236D02*
X1957Y2236D01*
X2140Y2236D02*
X2205Y2236D01*
X1892Y2235D02*
X1957Y2235D01*
X2140Y2235D02*
X2205Y2235D01*
X1891Y2234D02*
X1958Y2234D01*
X2139Y2234D02*
X2206Y2234D01*
X1891Y2233D02*
X1958Y2233D01*
X2138Y2233D02*
X2206Y2233D01*
X1890Y2232D02*
X1959Y2232D01*
X2138Y2232D02*
X2207Y2232D01*
X1890Y2231D02*
X1959Y2231D01*
X2137Y2231D02*
X2207Y2231D01*
X1889Y2230D02*
X1960Y2230D01*
X2137Y2230D02*
X2208Y2230D01*
X1889Y2229D02*
X1960Y2229D01*
X2137Y2229D02*
X2208Y2229D01*
X1888Y2228D02*
X1961Y2228D01*
X2136Y2228D02*
X2209Y2228D01*
X1888Y2227D02*
X1961Y2227D01*
X2136Y2227D02*
X2209Y2227D01*
X1887Y2226D02*
X1961Y2226D01*
X2135Y2226D02*
X2209Y2226D01*
X1887Y2225D02*
X1962Y2225D01*
X2135Y2225D02*
X2210Y2225D01*
X1887Y2224D02*
X1962Y2224D01*
X2135Y2224D02*
X2210Y2224D01*
X1887Y2223D02*
X1962Y2223D01*
X2135Y2223D02*
X2210Y2223D01*
X1886Y2222D02*
X1963Y2222D01*
X2134Y2222D02*
X2210Y2222D01*
X1886Y2221D02*
X1963Y2221D01*
X2134Y2221D02*
X2211Y2221D01*
X1886Y2220D02*
X1963Y2220D01*
X2134Y2220D02*
X2211Y2220D01*
X1886Y2219D02*
X1963Y2219D01*
X2134Y2219D02*
X2211Y2219D01*
X1886Y2218D02*
X1963Y2218D01*
X2134Y2218D02*
X2211Y2218D01*
X1886Y2217D02*
X1963Y2217D01*
X2134Y2217D02*
X2211Y2217D01*
X1886Y2216D02*
X1963Y2216D01*
X2134Y2216D02*
X2211Y2216D01*
X1886Y2215D02*
X1963Y2215D01*
X2134Y2215D02*
X2211Y2215D01*
X1886Y2214D02*
X1963Y2214D01*
X2134Y2214D02*
X2211Y2214D01*
X1886Y2213D02*
X1963Y2213D01*
X2134Y2213D02*
X2211Y2213D01*
X1886Y2212D02*
X1963Y2212D01*
X2134Y2212D02*
X2211Y2212D01*
X1886Y2211D02*
X1963Y2211D01*
X2134Y2211D02*
X2211Y2211D01*
X1886Y2210D02*
X1963Y2210D01*
X2134Y2210D02*
X2211Y2210D01*
X1886Y2209D02*
X1963Y2209D01*
X2134Y2209D02*
X2211Y2209D01*
X1886Y2208D02*
X1963Y2208D01*
X2134Y2208D02*
X2211Y2208D01*
X1886Y2207D02*
X1963Y2207D01*
X2134Y2207D02*
X2211Y2207D01*
X1886Y2206D02*
X1963Y2206D01*
X2134Y2206D02*
X2211Y2206D01*
X1886Y2205D02*
X1963Y2205D01*
X2134Y2205D02*
X2211Y2205D01*
X1886Y2204D02*
X1963Y2204D01*
X2134Y2204D02*
X2211Y2204D01*
X1886Y2203D02*
X1963Y2203D01*
X2134Y2203D02*
X2211Y2203D01*
X1886Y2202D02*
X1963Y2202D01*
X2134Y2202D02*
X2211Y2202D01*
X1886Y2201D02*
X1963Y2201D01*
X2134Y2201D02*
X2211Y2201D01*
X1886Y2200D02*
X1963Y2200D01*
X2134Y2200D02*
X2211Y2200D01*
X1886Y2199D02*
X1963Y2199D01*
X2134Y2199D02*
X2211Y2199D01*
X1886Y2198D02*
X1963Y2198D01*
X2134Y2198D02*
X2211Y2198D01*
X1886Y2197D02*
X1963Y2197D01*
X2134Y2197D02*
X2211Y2197D01*
X1886Y2196D02*
X1963Y2196D01*
X2134Y2196D02*
X2211Y2196D01*
X1886Y2195D02*
X1963Y2195D01*
X2134Y2195D02*
X2211Y2195D01*
X1886Y2194D02*
X1921Y2194D01*
X1928Y2194D02*
X1963Y2194D01*
X2134Y2194D02*
X2169Y2194D01*
X2176Y2194D02*
X2211Y2194D01*
X1886Y2193D02*
X1917Y2193D01*
X1932Y2193D02*
X1963Y2193D01*
X2134Y2193D02*
X2165Y2193D01*
X2180Y2193D02*
X2211Y2193D01*
X1886Y2192D02*
X1915Y2192D01*
X1934Y2192D02*
X1963Y2192D01*
X2134Y2192D02*
X2163Y2192D01*
X2182Y2192D02*
X2211Y2192D01*
X1886Y2191D02*
X1913Y2191D01*
X1936Y2191D02*
X1963Y2191D01*
X2134Y2191D02*
X2161Y2191D01*
X2184Y2191D02*
X2211Y2191D01*
X1886Y2190D02*
X1912Y2190D01*
X1937Y2190D02*
X1963Y2190D01*
X2134Y2190D02*
X2160Y2190D01*
X2185Y2190D02*
X2211Y2190D01*
X1886Y2189D02*
X1911Y2189D01*
X1938Y2189D02*
X1963Y2189D01*
X2134Y2189D02*
X2159Y2189D01*
X2186Y2189D02*
X2211Y2189D01*
X1886Y2188D02*
X1910Y2188D01*
X1939Y2188D02*
X1963Y2188D01*
X2134Y2188D02*
X2158Y2188D01*
X2187Y2188D02*
X2211Y2188D01*
X1886Y2187D02*
X1909Y2187D01*
X1940Y2187D02*
X1963Y2187D01*
X2134Y2187D02*
X2157Y2187D01*
X2188Y2187D02*
X2211Y2187D01*
X1886Y2186D02*
X1908Y2186D01*
X1941Y2186D02*
X1963Y2186D01*
X2134Y2186D02*
X2156Y2186D01*
X2189Y2186D02*
X2211Y2186D01*
X1886Y2185D02*
X1907Y2185D01*
X1942Y2185D02*
X1963Y2185D01*
X2134Y2185D02*
X2155Y2185D01*
X2190Y2185D02*
X2211Y2185D01*
X1886Y2184D02*
X1907Y2184D01*
X1942Y2184D02*
X1963Y2184D01*
X2134Y2184D02*
X2155Y2184D01*
X2190Y2184D02*
X2211Y2184D01*
X1886Y2183D02*
X1906Y2183D01*
X1943Y2183D02*
X1963Y2183D01*
X2134Y2183D02*
X2154Y2183D01*
X2191Y2183D02*
X2211Y2183D01*
X1886Y2182D02*
X1906Y2182D01*
X1943Y2182D02*
X1963Y2182D01*
X2134Y2182D02*
X2154Y2182D01*
X2191Y2182D02*
X2211Y2182D01*
X1886Y2181D02*
X1905Y2181D01*
X1944Y2181D02*
X1963Y2181D01*
X2134Y2181D02*
X2153Y2181D01*
X2191Y2181D02*
X2211Y2181D01*
X1886Y2180D02*
X1905Y2180D01*
X1944Y2180D02*
X1963Y2180D01*
X2134Y2180D02*
X2153Y2180D01*
X2192Y2180D02*
X2211Y2180D01*
X1886Y2179D02*
X1905Y2179D01*
X1944Y2179D02*
X1963Y2179D01*
X2134Y2179D02*
X2153Y2179D01*
X2192Y2179D02*
X2211Y2179D01*
X1886Y2178D02*
X1905Y2178D01*
X1944Y2178D02*
X1963Y2178D01*
X2134Y2178D02*
X2153Y2178D01*
X2192Y2178D02*
X2211Y2178D01*
X1886Y2177D02*
X1905Y2177D01*
X1944Y2177D02*
X1963Y2177D01*
X2134Y2177D02*
X2153Y2177D01*
X2192Y2177D02*
X2211Y2177D01*
X1886Y2176D02*
X1904Y2176D01*
X1945Y2176D02*
X1963Y2176D01*
X2134Y2176D02*
X2152Y2176D01*
X2192Y2176D02*
X2211Y2176D01*
X1886Y2175D02*
X1904Y2175D01*
X1945Y2175D02*
X1963Y2175D01*
X2134Y2175D02*
X2152Y2175D01*
X2193Y2175D02*
X2211Y2175D01*
X1886Y2174D02*
X1904Y2174D01*
X1945Y2174D02*
X1963Y2174D01*
X2134Y2174D02*
X2152Y2174D01*
X2193Y2174D02*
X2211Y2174D01*
X1886Y2173D02*
X1904Y2173D01*
X1944Y2173D02*
X1963Y2173D01*
X2134Y2173D02*
X2152Y2173D01*
X2192Y2173D02*
X2211Y2173D01*
X1886Y2172D02*
X1905Y2172D01*
X1944Y2172D02*
X1963Y2172D01*
X2134Y2172D02*
X2153Y2172D01*
X2192Y2172D02*
X2211Y2172D01*
X1886Y2171D02*
X1905Y2171D01*
X1944Y2171D02*
X1963Y2171D01*
X2134Y2171D02*
X2153Y2171D01*
X2192Y2171D02*
X2211Y2171D01*
X1886Y2170D02*
X1905Y2170D01*
X1944Y2170D02*
X1963Y2170D01*
X2134Y2170D02*
X2153Y2170D01*
X2192Y2170D02*
X2211Y2170D01*
X1886Y2169D02*
X1905Y2169D01*
X1944Y2169D02*
X1963Y2169D01*
X2134Y2169D02*
X2153Y2169D01*
X2192Y2169D02*
X2211Y2169D01*
X1886Y2168D02*
X1906Y2168D01*
X1943Y2168D02*
X1963Y2168D01*
X2134Y2168D02*
X2154Y2168D01*
X2191Y2168D02*
X2211Y2168D01*
X1886Y2167D02*
X1906Y2167D01*
X1943Y2167D02*
X1963Y2167D01*
X2134Y2167D02*
X2154Y2167D01*
X2191Y2167D02*
X2211Y2167D01*
X1886Y2166D02*
X1906Y2166D01*
X1943Y2166D02*
X1963Y2166D01*
X2134Y2166D02*
X2154Y2166D01*
X2191Y2166D02*
X2211Y2166D01*
X1886Y2165D02*
X1907Y2165D01*
X1942Y2165D02*
X1963Y2165D01*
X2134Y2165D02*
X2155Y2165D01*
X2190Y2165D02*
X2211Y2165D01*
X1886Y2164D02*
X1907Y2164D01*
X1941Y2164D02*
X1963Y2164D01*
X2134Y2164D02*
X2155Y2164D01*
X2189Y2164D02*
X2211Y2164D01*
X1886Y2163D02*
X1908Y2163D01*
X1941Y2163D02*
X1963Y2163D01*
X2134Y2163D02*
X2156Y2163D01*
X2189Y2163D02*
X2211Y2163D01*
X1886Y2162D02*
X1909Y2162D01*
X1940Y2162D02*
X1963Y2162D01*
X2134Y2162D02*
X2157Y2162D01*
X2188Y2162D02*
X2211Y2162D01*
X1886Y2161D02*
X1910Y2161D01*
X1939Y2161D02*
X1963Y2161D01*
X2134Y2161D02*
X2158Y2161D01*
X2187Y2161D02*
X2211Y2161D01*
X1886Y2160D02*
X1911Y2160D01*
X1938Y2160D02*
X1963Y2160D01*
X2134Y2160D02*
X2159Y2160D01*
X2186Y2160D02*
X2211Y2160D01*
X1886Y2159D02*
X1912Y2159D01*
X1937Y2159D02*
X1963Y2159D01*
X2134Y2159D02*
X2160Y2159D01*
X2185Y2159D02*
X2211Y2159D01*
X1886Y2158D02*
X1914Y2158D01*
X1935Y2158D02*
X1963Y2158D01*
X2134Y2158D02*
X2162Y2158D01*
X2183Y2158D02*
X2211Y2158D01*
X1886Y2157D02*
X1915Y2157D01*
X1934Y2157D02*
X1963Y2157D01*
X2134Y2157D02*
X2163Y2157D01*
X2182Y2157D02*
X2211Y2157D01*
X1886Y2156D02*
X1918Y2156D01*
X1931Y2156D02*
X1963Y2156D01*
X2134Y2156D02*
X2166Y2156D01*
X2179Y2156D02*
X2211Y2156D01*
X1886Y2155D02*
X1963Y2155D01*
X2134Y2155D02*
X2211Y2155D01*
X1886Y2154D02*
X1963Y2154D01*
X2134Y2154D02*
X2211Y2154D01*
X1886Y2153D02*
X1963Y2153D01*
X2134Y2153D02*
X2211Y2153D01*
X1886Y2152D02*
X1963Y2152D01*
X2134Y2152D02*
X2211Y2152D01*
X1886Y2151D02*
X1963Y2151D01*
X2134Y2151D02*
X2211Y2151D01*
X1886Y2150D02*
X1963Y2150D01*
X2134Y2150D02*
X2211Y2150D01*
X1886Y2149D02*
X1963Y2149D01*
X2134Y2149D02*
X2211Y2149D01*
X1886Y2148D02*
X1963Y2148D01*
X2134Y2148D02*
X2211Y2148D01*
X1886Y2147D02*
X1963Y2147D01*
X2134Y2147D02*
X2211Y2147D01*
X1886Y2146D02*
X1963Y2146D01*
X2134Y2146D02*
X2211Y2146D01*
X1886Y2145D02*
X1963Y2145D01*
X2134Y2145D02*
X2211Y2145D01*
X1886Y2144D02*
X1963Y2144D01*
X2134Y2144D02*
X2211Y2144D01*
X1886Y2143D02*
X1963Y2143D01*
X2134Y2143D02*
X2211Y2143D01*
X1886Y2142D02*
X1963Y2142D01*
X2134Y2142D02*
X2211Y2142D01*
X1886Y2141D02*
X1963Y2141D01*
X2134Y2141D02*
X2211Y2141D01*
X1886Y2140D02*
X1963Y2140D01*
X2134Y2140D02*
X2211Y2140D01*
X1886Y2139D02*
X1963Y2139D01*
X2134Y2139D02*
X2211Y2139D01*
X1886Y2138D02*
X1963Y2138D01*
X2134Y2138D02*
X2211Y2138D01*
X1886Y2137D02*
X1963Y2137D01*
X2134Y2137D02*
X2211Y2137D01*
X1886Y2136D02*
X1963Y2136D01*
X2134Y2136D02*
X2211Y2136D01*
X1886Y2135D02*
X1963Y2135D01*
X2134Y2135D02*
X2211Y2135D01*
X1886Y2134D02*
X1963Y2134D01*
X2134Y2134D02*
X2211Y2134D01*
X1886Y2133D02*
X1963Y2133D01*
X2134Y2133D02*
X2211Y2133D01*
X1886Y2132D02*
X1963Y2132D01*
X2134Y2132D02*
X2211Y2132D01*
X1886Y2131D02*
X1963Y2131D01*
X2134Y2131D02*
X2211Y2131D01*
X1886Y2130D02*
X1963Y2130D01*
X2134Y2130D02*
X2211Y2130D01*
X1886Y2129D02*
X1963Y2129D01*
X2134Y2129D02*
X2211Y2129D01*
X1886Y2128D02*
X1963Y2128D01*
X2134Y2128D02*
X2211Y2128D01*
X1887Y2127D02*
X1962Y2127D01*
X2134Y2127D02*
X2210Y2127D01*
X1887Y2126D02*
X1962Y2126D01*
X2135Y2126D02*
X2210Y2126D01*
X1887Y2125D02*
X1962Y2125D01*
X2135Y2125D02*
X2210Y2125D01*
X1887Y2124D02*
X1962Y2124D01*
X2135Y2124D02*
X2210Y2124D01*
X1888Y2123D02*
X1961Y2123D01*
X2136Y2123D02*
X2209Y2123D01*
X1888Y2122D02*
X1961Y2122D01*
X2136Y2122D02*
X2209Y2122D01*
X1888Y2121D02*
X1961Y2121D01*
X2136Y2121D02*
X2209Y2121D01*
X1889Y2120D02*
X1960Y2120D01*
X2137Y2120D02*
X2208Y2120D01*
X1889Y2119D02*
X1960Y2119D01*
X2137Y2119D02*
X2208Y2119D01*
X1890Y2118D02*
X1959Y2118D01*
X2138Y2118D02*
X2207Y2118D01*
X1890Y2117D02*
X1959Y2117D01*
X2138Y2117D02*
X2207Y2117D01*
X1891Y2116D02*
X1958Y2116D01*
X2139Y2116D02*
X2206Y2116D01*
X1891Y2115D02*
X1958Y2115D01*
X2139Y2115D02*
X2206Y2115D01*
X1892Y2114D02*
X1957Y2114D01*
X2140Y2114D02*
X2205Y2114D01*
X1893Y2113D02*
X1956Y2113D01*
X2141Y2113D02*
X2204Y2113D01*
X1893Y2112D02*
X1956Y2112D01*
X2141Y2112D02*
X2204Y2112D01*
X1894Y2111D02*
X1955Y2111D01*
X2142Y2111D02*
X2203Y2111D01*
X1895Y2110D02*
X1954Y2110D01*
X2143Y2110D02*
X2202Y2110D01*
X1896Y2109D02*
X1953Y2109D01*
X2144Y2109D02*
X2201Y2109D01*
X1897Y2108D02*
X1952Y2108D01*
X2145Y2108D02*
X2200Y2108D01*
X1898Y2107D02*
X1951Y2107D01*
X2146Y2107D02*
X2199Y2107D01*
X1899Y2106D02*
X1950Y2106D01*
X2147Y2106D02*
X2198Y2106D01*
X1900Y2105D02*
X1949Y2105D01*
X2148Y2105D02*
X2197Y2105D01*
X1901Y2104D02*
X1948Y2104D01*
X2149Y2104D02*
X2196Y2104D01*
X1903Y2103D02*
X1946Y2103D01*
X2150Y2103D02*
X2194Y2103D01*
X1904Y2102D02*
X1945Y2102D01*
X2152Y2102D02*
X2193Y2102D01*
X1906Y2101D02*
X1943Y2101D01*
X2154Y2101D02*
X2191Y2101D01*
X1908Y2100D02*
X1941Y2100D01*
X2156Y2100D02*
X2189Y2100D01*
X1910Y2099D02*
X1939Y2099D01*
X2158Y2099D02*
X2187Y2099D01*
X1912Y2098D02*
X1936Y2098D01*
X2160Y2098D02*
X2184Y2098D01*
X1916Y2097D02*
X1933Y2097D01*
X2164Y2097D02*
X2181Y2097D01*
X1924Y2096D02*
X1925Y2096D01*
X2172Y2096D02*
X2173Y2096D01*
D02*
G04 End of Copper0*
M02*